<?xml version="1.0" encoding="UTF-8"?><svg xmlns="http://www.w3.org/2000/svg" xmlns:xlink="http://www.w3.org/1999/xlink" fill-opacity="1" color-rendering="auto" color-interpolation="auto" text-rendering="auto" stroke="black" stroke-linecap="square" width="403" stroke-miterlimit="10" shape-rendering="auto" stroke-opacity="1" fill="black" stroke-dasharray="none" font-weight="normal" stroke-width="1" height="227" font-family="'Dialog'" font-style="normal" stroke-linejoin="miter" font-size="12px" stroke-dashoffset="0" image-rendering="auto">
  <!--Generated by ySVG 2.6-->
  <defs id="genericDefs"/>
  <g>
    <defs id="defs1">
      <linearGradient x1="-1.8168" gradientUnits="userSpaceOnUse" x2="88.5249" y1="366.9232" y2="366.9232" id="linearGradient1" spreadMethod="reflect">
        <stop stop-opacity="1" stop-color="rgb(238,238,255)" offset="0%"/>
        <stop stop-opacity="1" stop-color="rgb(248,248,255)" offset="100%"/>
      </linearGradient>
      <linearGradient x1="-35.5145" gradientUnits="userSpaceOnUse" x2="189.6181" y1="440.8263" y2="440.8263" id="linearGradient2" spreadMethod="reflect">
        <stop stop-opacity="1" stop-color="rgb(238,238,255)" offset="0%"/>
        <stop stop-opacity="1" stop-color="rgb(248,248,255)" offset="100%"/>
      </linearGradient>
      <linearGradient x1="-111.4203" gradientUnits="userSpaceOnUse" x2="-38.0991" y1="514.7295" y2="514.7295" id="linearGradient3" spreadMethod="reflect">
        <stop stop-opacity="1" stop-color="rgb(238,238,255)" offset="0%"/>
        <stop stop-opacity="1" stop-color="rgb(248,248,255)" offset="100%"/>
      </linearGradient>
      <linearGradient x1="116.2969" gradientUnits="userSpaceOnUse" x2="189.6181" y1="514.7295" y2="514.7295" id="linearGradient4" spreadMethod="reflect">
        <stop stop-opacity="1" stop-color="rgb(238,238,255)" offset="0%"/>
        <stop stop-opacity="1" stop-color="rgb(248,248,255)" offset="100%"/>
      </linearGradient>
      <linearGradient x1="7.5445" gradientUnits="userSpaceOnUse" x2="60.441" y1="514.7295" y2="514.7295" id="linearGradient5" spreadMethod="reflect">
        <stop stop-opacity="1" stop-color="rgb(238,238,255)" offset="0%"/>
        <stop stop-opacity="1" stop-color="rgb(248,248,255)" offset="100%"/>
      </linearGradient>
      <clipPath clipPathUnits="userSpaceOnUse" id="clipPath1">
        <path d="M0 0 L403 0 L403 227 L0 227 L0 0 Z"/>
      </clipPath>
      <clipPath clipPathUnits="userSpaceOnUse" id="clipPath2">
        <path d="M-163 352 L203.3636 352 L203.3636 558.3636 L-163 558.3636 L-163 352 Z"/>
      </clipPath>
    </defs>
    <g fill="white" text-rendering="geometricPrecision" shape-rendering="geometricPrecision" transform="scale(1.1,1.1) translate(163,-352)" stroke="white">
      <rect x="-163" width="367" height="207" y="352" clip-path="url(#clipPath2)" stroke="none"/>
    </g>
    <g fill="url(#linearGradient1)" text-rendering="geometricPrecision" shape-rendering="geometricPrecision" transform="matrix(1.1,0,0,1.1,179.3,-387.2)" stroke="url(#linearGradient1)">
      <rect x="-46.9877" width="135.5126" height="29.3806" y="366.9232" clip-path="url(#clipPath2)" stroke="none"/>
    </g>
    <g text-rendering="geometricPrecision" stroke-miterlimit="1.45" shape-rendering="geometricPrecision" transform="matrix(1.1,0,0,1.1,179.3,-387.2)" stroke-linecap="butt">
      <rect fill="none" x="-46.9877" width="135.5126" height="29.3806" y="366.9232" clip-path="url(#clipPath2)"/>
      <text x="-33.9521" font-size="11px" y="385.4269" clip-path="url(#clipPath2)" font-family="'Arial'" stroke="none" xml:space="preserve">cm : ConceptualModel</text>
      <line y2="387.758" fill="none" x1="-33.9521" clip-path="url(#clipPath2)" x2="75.4893" y1="387.758"/>
    </g>
    <g fill="url(#linearGradient2)" text-rendering="geometricPrecision" shape-rendering="geometricPrecision" transform="matrix(1.1,0,0,1.1,179.3,-387.2)" stroke="url(#linearGradient2)">
      <rect x="-148.0809" width="337.699" height="29.3806" y="440.8263" clip-path="url(#clipPath2)" stroke="none"/>
    </g>
    <g text-rendering="geometricPrecision" stroke-miterlimit="1.45" shape-rendering="geometricPrecision" transform="matrix(1.1,0,0,1.1,179.3,-387.2)" stroke-linecap="butt">
      <rect fill="none" x="-148.0809" width="337.699" height="29.3806" y="440.8263" clip-path="url(#clipPath2)"/>
      <text x="-30.5898" font-size="11px" y="459.3301" clip-path="url(#clipPath2)" font-family="'Arial'" stroke="none" xml:space="preserve">cp : CentrifugalPump</text>
      <line y2="461.6612" fill="none" x1="-30.5898" clip-path="url(#clipPath2)" x2="72.127" y1="461.6612"/>
    </g>
    <g fill="url(#linearGradient3)" text-rendering="geometricPrecision" shape-rendering="geometricPrecision" transform="matrix(1.1,0,0,1.1,179.3,-387.2)" stroke="url(#linearGradient3)">
      <rect x="-148.0809" width="109.9818" height="29.3806" y="514.7295" clip-path="url(#clipPath2)" stroke="none"/>
    </g>
    <g text-rendering="geometricPrecision" stroke-miterlimit="1.45" shape-rendering="geometricPrecision" transform="matrix(1.1,0,0,1.1,179.3,-387.2)" stroke-linecap="butt">
      <rect fill="none" x="-148.0809" width="109.9818" height="29.3806" y="514.7295" clip-path="url(#clipPath2)"/>
      <text x="-143.5299" font-size="11px" y="533.2333" clip-path="url(#clipPath2)" font-family="'Arial'" stroke="none" xml:space="preserve">pn1 : ProcessNozzle</text>
      <line y2="535.5644" fill="none" x1="-143.5299" clip-path="url(#clipPath2)" x2="-42.65" y1="535.5644"/>
    </g>
    <g fill="url(#linearGradient4)" text-rendering="geometricPrecision" shape-rendering="geometricPrecision" transform="matrix(1.1,0,0,1.1,179.3,-387.2)" stroke="url(#linearGradient4)">
      <rect x="79.6363" width="109.9818" height="29.3806" y="514.7295" clip-path="url(#clipPath2)" stroke="none"/>
    </g>
    <g text-rendering="geometricPrecision" stroke-miterlimit="1.45" shape-rendering="geometricPrecision" transform="matrix(1.1,0,0,1.1,179.3,-387.2)" stroke-linecap="butt">
      <rect fill="none" x="79.6363" width="109.9818" height="29.3806" y="514.7295" clip-path="url(#clipPath2)"/>
      <text x="84.1873" font-size="11px" y="533.2333" clip-path="url(#clipPath2)" font-family="'Arial'" stroke="none" xml:space="preserve">pn2 : ProcessNozzle</text>
      <line y2="535.5644" fill="none" x1="84.1873" clip-path="url(#clipPath2)" x2="185.0672" y1="535.5644"/>
    </g>
    <g fill="url(#linearGradient5)" text-rendering="geometricPrecision" shape-rendering="geometricPrecision" transform="matrix(1.1,0,0,1.1,179.3,-387.2)" stroke="url(#linearGradient5)">
      <rect x="-18.9038" width="79.3448" height="29.3806" y="514.7295" clip-path="url(#clipPath2)" stroke="none"/>
    </g>
    <g text-rendering="geometricPrecision" stroke-miterlimit="1.45" shape-rendering="geometricPrecision" transform="matrix(1.1,0,0,1.1,179.3,-387.2)" stroke-linecap="butt">
      <rect fill="none" x="-18.9038" width="79.3448" height="29.3806" y="514.7295" clip-path="url(#clipPath2)"/>
      <text x="-12.2448" font-size="11px" y="533.2333" clip-path="url(#clipPath2)" font-family="'Arial'" stroke="none" xml:space="preserve">ch : Chamber</text>
      <line y2="535.5644" fill="none" x1="-12.2448" clip-path="url(#clipPath2)" x2="53.7821" y1="535.5644"/>
      <path fill="none" d="M20.7686 403.3038 L20.7686 432.8263" clip-path="url(#clipPath2)"/>
      <path d="M20.7686 396.3038 L25.7686 403.3038 L20.7686 410.3038 L15.7686 403.3038 Z" clip-path="url(#clipPath2)" stroke="none"/>
      <path d="M20.7686 440.8263 L25.7686 428.8263 L20.7686 431.8263 L15.7686 428.8263 Z" clip-path="url(#clipPath2)" stroke="none"/>
      <text x="-80.6284" font-size="11px" y="432.8586" clip-path="url(#clipPath2)" font-family="'Arial'" stroke="none" xml:space="preserve">TaggedPlantItems</text>
      <path fill="none" d="M-93.09 477.1806 L-93.09 506.7295" clip-path="url(#clipPath2)"/>
      <path d="M-93.09 470.1806 L-88.09 477.1806 L-93.09 484.1806 L-98.09 477.1806 Z" clip-path="url(#clipPath2)" stroke="none"/>
      <path d="M-93.09 514.7295 L-88.09 502.7295 L-93.09 505.7295 L-98.09 502.7295 Z" clip-path="url(#clipPath2)" stroke="none"/>
      <text x="-144.1128" font-size="11px" y="507.4493" clip-path="url(#clipPath2)" font-family="'Arial'" stroke="none" xml:space="preserve">Nozzles</text>
      <path fill="none" d="M134.6272 477.2421 L134.6272 506.7295" clip-path="url(#clipPath2)"/>
      <path d="M134.6272 470.2421 L139.6272 477.2421 L134.6272 484.2421 L129.6272 477.2421 Z" clip-path="url(#clipPath2)" stroke="none"/>
      <path d="M134.6272 514.7295 L139.6272 502.7295 L134.6272 505.7295 L129.6272 502.7295 Z" clip-path="url(#clipPath2)" stroke="none"/>
      <text x="83.4476" font-size="11px" y="509.4511" clip-path="url(#clipPath2)" font-family="'Arial'" stroke="none" xml:space="preserve">Nozzles</text>
      <path fill="none" d="M20.7686 477.207 L20.7686 506.7295" clip-path="url(#clipPath2)"/>
      <path d="M20.7686 470.207 L25.7686 477.207 L20.7686 484.207 L15.7686 477.207 Z" clip-path="url(#clipPath2)" stroke="none"/>
      <path d="M20.7686 514.7295 L25.7686 502.7295 L20.7686 505.7295 L15.7686 502.7295 Z" clip-path="url(#clipPath2)" stroke="none"/>
      <text x="-44.3417" font-size="11px" y="507.749" clip-path="url(#clipPath2)" font-family="'Arial'" stroke="none" xml:space="preserve">Chambers</text>
    </g>
  </g>
</svg>
