<?xml version="1.0" encoding="UTF-8" standalone="no"?>
<svg
   width="191.76871"
   height="176.56075"
   xml:space="preserve"
   overflow="hidden"
   version="1.1"
   id="svg629"
   xmlns="http://www.w3.org/2000/svg"
   xmlns:svg="http://www.w3.org/2000/svg"><defs
     id="defs605"><clipPath
       id="clip0"><rect
         x="1006"
         y="563"
         width="517"
         height="504"
         id="rect602" /></clipPath></defs><g
     clip-path="url(#clip0)"
     transform="matrix(0.37092593,0,0,0.37092593,-373.15149,-208.8313)"
     id="g627"
     style="stroke-width:2.69595"><rect
       x="1006"
       y="563"
       width="517"
       height="476"
       fill="#d9d9d9"
       id="rect607"
       style="stroke-width:6.17205" /><path
       d="m 1107,756.5 c 0,-86.985 70.52,-157.5 157.5,-157.5 86.98,0 157.5,70.515 157.5,157.5 0,86.985 -70.52,157.5 -157.5,157.5 -86.98,0 -157.5,-70.515 -157.5,-157.5 z"
       stroke="#3c3c3c"
       stroke-width="7.5"
       stroke-miterlimit="8"
       fill="none"
       fill-rule="evenodd"
       id="path609" /><path
       d="m 1264,599 157.7,157.699"
       stroke="#3c3c3c"
       stroke-width="7.5"
       stroke-miterlimit="8"
       fill="none"
       fill-rule="evenodd"
       id="path611" /><path
       d="M 0,0 157.699,157.699"
       stroke="#3c3c3c"
       stroke-width="7.5"
       stroke-miterlimit="8"
       fill="none"
       fill-rule="evenodd"
       transform="matrix(-1,0,0,1,1421.7,756)"
       id="path613" /><path
       d="M 0,0 315.398,3.60892e-4"
       stroke="#3c3c3c"
       stroke-width="7.5"
       stroke-miterlimit="8"
       fill="none"
       fill-rule="evenodd"
       transform="matrix(-1,0,0,1,1422.4,756)"
       id="path615" /><text
       fill="#3c3c3c"
       font-family="Arial, Arial_MSFontService, sans-serif"
       font-weight="400"
       font-size="73px"
       transform="translate(1174.61,1006)"
       id="text617"
       style="stroke-width:6.17205">P123</text><path
       d="M 0,0 75.5857,0.00396982"
       stroke="#3c3c3c"
       stroke-width="7.5"
       stroke-miterlimit="8"
       fill="none"
       fill-rule="evenodd"
       transform="matrix(1,0,0,-1,1416,756.004)"
       id="path619" /><path
       d="M 0,0 3.60892e-4,84.0565"
       stroke="#3c3c3c"
       stroke-width="7.5"
       stroke-miterlimit="8"
       fill="none"
       fill-rule="evenodd"
       transform="matrix(1,0,0,-1,1491,798.057)"
       id="path621" /><path
       d="m 1040,756 h 67.14"
       stroke="#3c3c3c"
       stroke-width="7.5"
       stroke-miterlimit="8"
       fill="none"
       fill-rule="evenodd"
       id="path623" /><path
       d="M 0,0 3.60892e-4,84.0565"
       stroke="#3c3c3c"
       stroke-width="7.5"
       stroke-miterlimit="8"
       fill="none"
       fill-rule="evenodd"
       transform="matrix(1,0,0,-1,1037,798.057)"
       id="path625" /></g></svg>
