<?xml version="1.0" encoding="UTF-8"?><svg xmlns="http://www.w3.org/2000/svg" xmlns:xlink="http://www.w3.org/1999/xlink" fill-opacity="1" color-rendering="auto" color-interpolation="auto" text-rendering="auto" stroke="black" stroke-linecap="square" width="903" stroke-miterlimit="10" shape-rendering="auto" stroke-opacity="1" fill="black" stroke-dasharray="none" font-weight="normal" stroke-width="1" height="330" font-family="'Dialog'" font-style="normal" stroke-linejoin="miter" font-size="12px" stroke-dashoffset="0" image-rendering="auto">
  <!--Generated by ySVG 2.6-->
  <defs id="genericDefs"/>
  <g>
    <g fill="white" text-rendering="geometricPrecision" shape-rendering="geometricPrecision" transform="scale(1.1,1.1) translate(-235,-310)" stroke="white">
      <rect x="234" width="822" height="300" y="310" clip-path="url(#clipPath2)" stroke="none"/>
    </g>
    <g fill="url(#linearGradient1)" text-rendering="geometricPrecision" shape-rendering="geometricPrecision" transform="matrix(1.1,0,0,1.1,-258.5,-341)" stroke="url(#linearGradient1)">
      <rect x="473.9738" width="163.8801" height="29.3806" y="514.7295" clip-path="url(#clipPath2)" stroke="none"/>
    </g>
    <g text-rendering="geometricPrecision" stroke-miterlimit="1.45" shape-rendering="geometricPrecision" transform="matrix(1.1,0,0,1.1,-258.5,-341)" stroke-linecap="butt">
      <rect fill="none" x="473.9738" width="163.8801" height="29.3806" y="514.7295" clip-path="url(#clipPath2)"/>
      <text x="478.5567" font-size="11px" y="533.2333" clip-path="url(#clipPath2)" font-family="'Arial'" stroke="none" xml:space="preserve">pn2_grp : RepresentationGroup</text>
      <line y2="535.5644" fill="none" x1="478.5567" clip-path="url(#clipPath2)" x2="633.271" y1="535.5644"/>
    </g>
    <g fill="white" text-rendering="geometricPrecision" shape-rendering="geometricPrecision" transform="matrix(1.1,0,0,1.1,-258.5,-341)" stroke="white">
      <rect x="464.4741" width="27.9529" height="29.3806" y="490.28" clip-path="url(#clipPath2)" stroke="none"/>
    </g>
    <g text-rendering="geometricPrecision" stroke-miterlimit="1.45" stroke-dasharray="6,2" shape-rendering="geometricPrecision" transform="matrix(1.1,0,0,1.1,-258.5,-341)" stroke-linecap="butt">
      <rect fill="none" x="464.4741" width="27.9529" height="29.3806" y="490.28" clip-path="url(#clipPath2)"/>
    </g>
    <g text-rendering="geometricPrecision" shape-rendering="geometricPrecision" transform="matrix(0.2854,0,0,0.2854,211.7565,190.4024)">
      <g clip-path="url(#clipPath3)">
        <svg xmlns:svg="http://www.w3.org/2000/svg" xml:space="preserve" opacity="1" writing-mode="lr-tb" stop-color="rgb(0, 0, 0)" shape-rendering="auto" glyph-orientation-horizontal="0deg" color-profile="auto" lighting-color="rgb(255, 255, 255)" color="rgb(0, 0, 0)" font-weight="400" alignment-baseline="auto" font-style="normal" version="1.1" color-interpolation-filters="linearrgb" text-anchor="start" stroke-linecap="butt" color-interpolation="srgb" font-variant="normal" word-spacing="normal" fill-opacity="1" text-rendering="auto" clip-path="none" text-decoration="none" letter-spacing="normal" glyph-orientation-vertical="auto" display="inline" font-size-adjust="none" fill="rgb(0, 0, 0)" overflow="hidden" font-stretch="normal" stroke-dasharray="none" id="svg1.svg629" stroke-miterlimit="4" stop-opacity="1" color-rendering="auto" font-size="12" mask="none" direction="ltr" baseline-shift="baseline" pointer-events="visiblepainted" enable-background="accumulate" fill-rule="nonzero" image-rendering="auto" stroke-dashoffset="0" width="225.82599" marker-end="none" clip="auto" cursor="auto" stroke="none" filter="none" visibility="visible" kerning="auto" stroke-width="1" font-family="&quot;Arial&quot;,&quot;Helvetica&quot;,sans-serif" flood-opacity="1" clip-rule="nonzero" src="none" height="207.91716" unicode-bidi="normal" stroke-linejoin="miter" stroke-opacity="1" flood-color="rgb(0, 0, 0)" dominant-baseline="auto" marker-start="none" marker-mid="none"><defs id="svg1.defs605"><clipPath id="svg1.clip0"><rect x="1006" width="517" y="563" height="504" id="svg1.rect602"/></clipPath><linearGradient x1="528.6005" gradientUnits="userSpaceOnUse" x2="637.8539" y1="514.7295" y2="514.7295" id="linearGradient1" spreadMethod="reflect"><stop stop-opacity="1" stop-color="rgb(238,238,255)" offset="0%"/><stop stop-opacity="1" stop-color="rgb(248,248,255)" offset="100%"/></linearGradient><linearGradient x1="387.0842" gradientUnits="userSpaceOnUse" x2="637.8539" y1="440.8263" y2="440.8263" id="linearGradient2" spreadMethod="reflect"><stop stop-opacity="1" stop-color="rgb(238,238,255)" offset="0%"/><stop stop-opacity="1" stop-color="rgb(248,248,255)" offset="100%"/></linearGradient><linearGradient x1="849.8499" gradientUnits="userSpaceOnUse" x2="940.1916" y1="366.9232" y2="366.9232" id="linearGradient3" spreadMethod="reflect"><stop stop-opacity="1" stop-color="rgb(238,238,255)" offset="0%"/><stop stop-opacity="1" stop-color="rgb(248,248,255)" offset="100%"/></linearGradient><linearGradient x1="816.1521" gradientUnits="userSpaceOnUse" x2="1041.2848" y1="440.8263" y2="440.8263" id="linearGradient4" spreadMethod="reflect"><stop stop-opacity="1" stop-color="rgb(238,238,255)" offset="0%"/><stop stop-opacity="1" stop-color="rgb(248,248,255)" offset="100%"/></linearGradient><linearGradient x1="740.2464" gradientUnits="userSpaceOnUse" x2="813.5676" y1="514.7295" y2="514.7295" id="linearGradient5" spreadMethod="reflect"><stop stop-opacity="1" stop-color="rgb(238,238,255)" offset="0%"/><stop stop-opacity="1" stop-color="rgb(248,248,255)" offset="100%"/></linearGradient><linearGradient x1="967.9636" gradientUnits="userSpaceOnUse" x2="1041.2848" y1="514.7295" y2="514.7295" id="linearGradient6" spreadMethod="reflect"><stop stop-opacity="1" stop-color="rgb(238,238,255)" offset="0%"/><stop stop-opacity="1" stop-color="rgb(248,248,255)" offset="100%"/></linearGradient><linearGradient x1="859.2112" gradientUnits="userSpaceOnUse" x2="912.1077" y1="514.7295" y2="514.7295" id="linearGradient7" spreadMethod="reflect"><stop stop-opacity="1" stop-color="rgb(238,238,255)" offset="0%"/><stop stop-opacity="1" stop-color="rgb(248,248,255)" offset="100%"/></linearGradient><linearGradient x1="427.1912" gradientUnits="userSpaceOnUse" x2="517.5329" y1="366.9232" y2="366.9232" id="linearGradient8" spreadMethod="reflect"><stop stop-opacity="1" stop-color="rgb(238,238,255)" offset="0%"/><stop stop-opacity="1" stop-color="rgb(248,248,255)" offset="100%"/></linearGradient><linearGradient x1="316.326" gradientUnits="userSpaceOnUse" x2="425.5794" y1="514.7295" y2="514.7295" id="linearGradient9" spreadMethod="reflect"><stop stop-opacity="1" stop-color="rgb(238,238,255)" offset="0%"/><stop stop-opacity="1" stop-color="rgb(248,248,255)" offset="100%"/></linearGradient><clipPath clipPathUnits="userSpaceOnUse" id="clipPath1"><path d="M0 0 L903 0 L903 330 L0 330 L0 0 Z"/></clipPath><clipPath clipPathUnits="userSpaceOnUse" id="clipPath2"><path d="M235 310 L1055.9091 310 L1055.9091 610 L235 610 L235 310 Z"/></clipPath><clipPath clipPathUnits="userSpaceOnUse" id="clipPath3"><path d="M-741.9214 -667.1043 L2421.8784 -667.1043 L2421.8784 489.1016 L-741.9214 489.1016 L-741.9214 -667.1043 Z"/></clipPath><clipPath clipPathUnits="userSpaceOnUse" id="clipPath4"><path d="M-64.2129 -365.0525 L3234.9617 -365.0525 L3234.9617 840.626 L-64.2129 840.626 L-64.2129 -365.0525 Z"/></clipPath><clipPath clipPathUnits="userSpaceOnUse" id="clipPath5"><path d="M-493.1388 -82.0419 L2950.364 -82.0419 L2950.364 1213.9851 L-493.1388 1213.9851 L-493.1388 -82.0419 Z"/></clipPath><clipPath clipPathUnits="userSpaceOnUse" id="clipPath6"><path d="M-91.3199 -624.032 L2886.5857 -624.032 L2886.5857 464.2391 L-91.3199 464.2391 L-91.3199 -624.032 Z"/></clipPath></defs><g id="svg1.g627" style="stroke-width:2.28937" clip-path="url(#svg1.clip0)" transform="matrix(0.43680075,0,0,0.43680075,-439.42155,-245.91882)"><path transform="matrix(1,0,0,-1,1416,756.004)" fill="none" fill-rule="evenodd" id="svg1.path619" d="M 0,0 75.5857,0.00396982" stroke="#3c3c3c" stroke-width="8" stroke-miterlimit="8"/><path transform="matrix(1,0,0,-1,1491,798.057)" fill="none" fill-rule="evenodd" id="svg1.path621" d="M 0,0 3.60892e-4,84.0565" stroke="#3c3c3c" stroke-width="8" stroke-miterlimit="8"/></g></svg>
      </g>
    </g>
    <g fill="url(#linearGradient2)" text-rendering="geometricPrecision" shape-rendering="geometricPrecision" transform="matrix(1.1,0,0,1.1,-258.5,-341)" stroke="url(#linearGradient2)">
      <rect x="261.6993" width="376.1546" height="29.3806" y="440.8263" clip-path="url(#clipPath2)" stroke="none"/>
    </g>
    <g text-rendering="geometricPrecision" stroke-miterlimit="1.45" shape-rendering="geometricPrecision" transform="matrix(1.1,0,0,1.1,-258.5,-341)" stroke-linecap="butt">
      <rect fill="none" x="261.6993" width="376.1546" height="29.3806" y="440.8263" clip-path="url(#clipPath2)"/>
      <text x="375.7871" font-size="11px" y="459.3301" clip-path="url(#clipPath2)" font-family="'Arial'" stroke="none" xml:space="preserve">cp_grp : RepresentationGroup</text>
      <line y2="461.6612" fill="none" x1="375.7871" clip-path="url(#clipPath2)" x2="523.7661" y1="461.6612"/>
    </g>
    <g fill="white" text-rendering="geometricPrecision" shape-rendering="geometricPrecision" transform="matrix(1.1,0,0,1.1,-258.5,-341)" stroke="white">
      <rect x="249.9733" width="58.0906" height="58.3676" y="397.5128" clip-path="url(#clipPath2)" stroke="none"/>
    </g>
    <g text-rendering="geometricPrecision" stroke-miterlimit="1.45" stroke-dasharray="6,2" shape-rendering="geometricPrecision" transform="matrix(1.1,0,0,1.1,-258.5,-341)" stroke-linecap="butt">
      <rect fill="none" x="249.9733" width="58.0906" height="58.3676" y="397.5128" clip-path="url(#clipPath2)"/>
    </g>
    <g fill="url(#linearGradient3)" text-rendering="geometricPrecision" shape-rendering="geometricPrecision" transform="matrix(1.1,0,0,1.1,-258.5,-341)" stroke="url(#linearGradient3)">
      <rect x="804.679" width="135.5126" height="29.3806" y="366.9232" clip-path="url(#clipPath2)" stroke="none"/>
    </g>
    <g text-rendering="geometricPrecision" stroke-miterlimit="1.45" shape-rendering="geometricPrecision" transform="matrix(1.1,0,0,1.1,-258.5,-341)" stroke-linecap="butt">
      <rect fill="none" x="804.679" width="135.5126" height="29.3806" y="366.9232" clip-path="url(#clipPath2)"/>
      <text x="817.7146" font-size="11px" y="385.4269" clip-path="url(#clipPath2)" font-family="'Arial'" stroke="none" xml:space="preserve">cm : ConceptualModel</text>
      <line y2="387.758" fill="none" x1="817.7146" clip-path="url(#clipPath2)" x2="927.156" y1="387.758"/>
    </g>
    <g fill="url(#linearGradient4)" text-rendering="geometricPrecision" shape-rendering="geometricPrecision" transform="matrix(1.1,0,0,1.1,-258.5,-341)" stroke="url(#linearGradient4)">
      <rect x="703.5858" width="337.699" height="29.3806" y="440.8263" clip-path="url(#clipPath2)" stroke="none"/>
    </g>
    <g text-rendering="geometricPrecision" stroke-miterlimit="1.45" shape-rendering="geometricPrecision" transform="matrix(1.1,0,0,1.1,-258.5,-341)" stroke-linecap="butt">
      <rect fill="none" x="703.5858" width="337.699" height="29.3806" y="440.8263" clip-path="url(#clipPath2)"/>
      <text x="821.0769" font-size="11px" y="459.3301" clip-path="url(#clipPath2)" font-family="'Arial'" stroke="none" xml:space="preserve">cp : CentrifugalPump</text>
      <line y2="461.6612" fill="none" x1="821.0769" clip-path="url(#clipPath2)" x2="923.7937" y1="461.6612"/>
    </g>
    <g fill="url(#linearGradient5)" text-rendering="geometricPrecision" shape-rendering="geometricPrecision" transform="matrix(1.1,0,0,1.1,-258.5,-341)" stroke="url(#linearGradient5)">
      <rect x="703.5858" width="109.9818" height="29.3806" y="514.7295" clip-path="url(#clipPath2)" stroke="none"/>
    </g>
    <g text-rendering="geometricPrecision" stroke-miterlimit="1.45" shape-rendering="geometricPrecision" transform="matrix(1.1,0,0,1.1,-258.5,-341)" stroke-linecap="butt">
      <rect fill="none" x="703.5858" width="109.9818" height="29.3806" y="514.7295" clip-path="url(#clipPath2)"/>
      <text x="708.1367" font-size="11px" y="533.2333" clip-path="url(#clipPath2)" font-family="'Arial'" stroke="none" xml:space="preserve">pn1 : ProcessNozzle</text>
      <line y2="535.5644" fill="none" x1="708.1367" clip-path="url(#clipPath2)" x2="809.0166" y1="535.5644"/>
    </g>
    <g fill="url(#linearGradient6)" text-rendering="geometricPrecision" shape-rendering="geometricPrecision" transform="matrix(1.1,0,0,1.1,-258.5,-341)" stroke="url(#linearGradient6)">
      <rect x="931.303" width="109.9818" height="29.3806" y="514.7295" clip-path="url(#clipPath2)" stroke="none"/>
    </g>
    <g text-rendering="geometricPrecision" stroke-miterlimit="1.45" shape-rendering="geometricPrecision" transform="matrix(1.1,0,0,1.1,-258.5,-341)" stroke-linecap="butt">
      <rect fill="none" x="931.303" width="109.9818" height="29.3806" y="514.7295" clip-path="url(#clipPath2)"/>
      <text x="935.8539" font-size="11px" y="533.2333" clip-path="url(#clipPath2)" font-family="'Arial'" stroke="none" xml:space="preserve">pn2 : ProcessNozzle</text>
      <line y2="535.5644" fill="none" x1="935.8539" clip-path="url(#clipPath2)" x2="1036.7338" y1="535.5644"/>
    </g>
    <g fill="url(#linearGradient7)" text-rendering="geometricPrecision" shape-rendering="geometricPrecision" transform="matrix(1.1,0,0,1.1,-258.5,-341)" stroke="url(#linearGradient7)">
      <rect x="832.7629" width="79.3448" height="29.3806" y="514.7295" clip-path="url(#clipPath2)" stroke="none"/>
    </g>
    <g text-rendering="geometricPrecision" stroke-miterlimit="1.45" shape-rendering="geometricPrecision" transform="matrix(1.1,0,0,1.1,-258.5,-341)" stroke-linecap="butt">
      <rect fill="none" x="832.7629" width="79.3448" height="29.3806" y="514.7295" clip-path="url(#clipPath2)"/>
      <text x="839.4219" font-size="11px" y="533.2333" clip-path="url(#clipPath2)" font-family="'Arial'" stroke="none" xml:space="preserve">ch : Chamber</text>
      <line y2="535.5644" fill="none" x1="839.4219" clip-path="url(#clipPath2)" x2="905.4487" y1="535.5644"/>
    </g>
    <g fill="url(#linearGradient8)" text-rendering="geometricPrecision" shape-rendering="geometricPrecision" transform="matrix(1.1,0,0,1.1,-258.5,-341)" stroke="url(#linearGradient8)">
      <rect x="382.0203" width="135.5126" height="29.3806" y="366.9232" clip-path="url(#clipPath2)" stroke="none"/>
    </g>
    <g text-rendering="geometricPrecision" stroke-miterlimit="1.45" shape-rendering="geometricPrecision" transform="matrix(1.1,0,0,1.1,-258.5,-341)" stroke-linecap="butt">
      <rect fill="none" x="382.0203" width="135.5126" height="29.3806" y="366.9232" clip-path="url(#clipPath2)"/>
      <text x="421.3501" font-size="11px" y="385.4269" clip-path="url(#clipPath2)" font-family="'Arial'" stroke="none" xml:space="preserve">d : Diagram</text>
      <line y2="387.758" fill="none" x1="421.3501" clip-path="url(#clipPath2)" x2="478.2031" y1="387.758"/>
    </g>
    <g fill="url(#linearGradient9)" text-rendering="geometricPrecision" shape-rendering="geometricPrecision" transform="matrix(1.1,0,0,1.1,-258.5,-341)" stroke="url(#linearGradient9)">
      <rect x="261.6993" width="163.8801" height="29.3806" y="514.7295" clip-path="url(#clipPath2)" stroke="none"/>
    </g>
    <g text-rendering="geometricPrecision" stroke-miterlimit="1.45" shape-rendering="geometricPrecision" transform="matrix(1.1,0,0,1.1,-258.5,-341)" stroke-linecap="butt">
      <rect fill="none" x="261.6993" width="163.8801" height="29.3806" y="514.7295" clip-path="url(#clipPath2)"/>
      <text x="266.2822" font-size="11px" y="533.2333" clip-path="url(#clipPath2)" font-family="'Arial'" stroke="none" xml:space="preserve">pn1_grp : RepresentationGroup</text>
      <line y2="535.5644" fill="none" x1="266.2822" clip-path="url(#clipPath2)" x2="420.9965" y1="535.5644"/>
    </g>
    <g text-rendering="geometricPrecision" shape-rendering="geometricPrecision" transform="matrix(0.2737,0,0,0.2737,17.5754,99.9166)">
      <g clip-path="url(#clipPath4)">
        <svg xmlns:svg="http://www.w3.org/2000/svg" xml:space="preserve" opacity="1" writing-mode="lr-tb" stop-color="rgb(0, 0, 0)" shape-rendering="auto" glyph-orientation-horizontal="0deg" color-profile="auto" lighting-color="rgb(255, 255, 255)" color="rgb(0, 0, 0)" font-weight="400" alignment-baseline="auto" font-style="normal" version="1.1" color-interpolation-filters="linearrgb" text-anchor="start" stroke-linecap="butt" color-interpolation="srgb" font-variant="normal" word-spacing="normal" fill-opacity="1" text-rendering="auto" clip-path="none" text-decoration="none" letter-spacing="normal" glyph-orientation-vertical="auto" display="inline" font-size-adjust="none" fill="rgb(0, 0, 0)" overflow="hidden" font-stretch="normal" stroke-dasharray="none" id="svg2.svg629" stroke-miterlimit="4" stop-opacity="1" color-rendering="auto" font-size="12" mask="none" direction="ltr" baseline-shift="baseline" pointer-events="visiblepainted" enable-background="accumulate" fill-rule="nonzero" image-rendering="auto" stroke-dashoffset="0" width="225.82599" marker-end="none" clip="auto" cursor="auto" stroke="none" filter="none" visibility="visible" kerning="auto" stroke-width="1" font-family="&quot;Arial&quot;,&quot;Helvetica&quot;,sans-serif" flood-opacity="1" clip-rule="nonzero" src="none" height="207.91716" unicode-bidi="normal" stroke-linejoin="miter" stroke-opacity="1" flood-color="rgb(0, 0, 0)" dominant-baseline="auto" marker-start="none" marker-mid="none"><defs id="svg2.defs605"><clipPath id="svg2.clip0"><rect x="1006" width="517" y="563" height="504" id="svg2.rect602"/></clipPath></defs><g id="svg2.g627" style="stroke-width:2.28937" clip-path="url(#svg2.clip0)" transform="matrix(0.43680075,0,0,0.43680075,-439.42155,-245.91882)"><path fill="none" fill-rule="evenodd" id="svg2.path609" d="m 1107,756.5 c 0,-86.985 70.52,-157.5 157.5,-157.5 86.98,0 157.5,70.515 157.5,157.5 0,86.985 -70.52,157.5 -157.5,157.5 -86.98,0 -157.5,-70.515 -157.5,-157.5 z" stroke="#3c3c3c" stroke-width="8" stroke-miterlimit="8"/><path fill="none" fill-rule="evenodd" id="svg2.path611" d="m 1264,599 157.7,157.699" stroke="#3c3c3c" stroke-width="8" stroke-miterlimit="8"/><path transform="matrix(-1,0,0,1,1421.7,756)" fill="none" fill-rule="evenodd" id="svg2.path613" d="M 0,0 157.699,157.699" stroke="#3c3c3c" stroke-width="8" stroke-miterlimit="8"/><path transform="matrix(-1,0,0,1,1422.4,756)" fill="none" fill-rule="evenodd" id="svg2.path615" d="M 0,0 315.398,3.60892e-4" stroke="#3c3c3c" stroke-width="8" stroke-miterlimit="8"/><text font-size="73px" transform="translate(1174.61,1006)" fill="#3c3c3c" style="stroke-width:5.24123" font-family="Arial, Arial_MSFontService, sans-serif" id="svg2.text617" font-weight="400">P123</text><path transform="matrix(1,0,0,-1,1416,756.004)" fill="none" fill-rule="evenodd" id="svg2.path619" d="M 0,0 75.5857,0.00396982" stroke="#3c3c3c" stroke-width="8" stroke-miterlimit="8"/><path transform="matrix(1,0,0,-1,1491,798.057)" fill="none" fill-rule="evenodd" id="svg2.path621" d="M 0,0 3.60892e-4,84.0565" stroke="#3c3c3c" stroke-width="8" stroke-miterlimit="8"/><path fill="none" fill-rule="evenodd" id="svg2.path623" d="m 1040,756 h 67.14" stroke="#3c3c3c" stroke-width="8" stroke-miterlimit="8"/><path transform="matrix(1,0,0,-1,1037,798.057)" fill="none" fill-rule="evenodd" id="svg2.path625" d="M 0,0 3.60892e-4,84.0565" stroke="#3c3c3c" stroke-width="8" stroke-miterlimit="8"/></g></svg>
      </g>
    </g>
    <g fill="white" text-rendering="geometricPrecision" shape-rendering="geometricPrecision" transform="matrix(1.1,0,0,1.1,-258.5,-341)" stroke="white">
      <rect x="348.1675" width="62.6227" height="58.3676" y="324.5802" clip-path="url(#clipPath2)" stroke="none"/>
    </g>
    <g text-rendering="geometricPrecision" stroke-miterlimit="1.45" stroke-dasharray="6,2" shape-rendering="geometricPrecision" transform="matrix(1.1,0,0,1.1,-258.5,-341)" stroke-linecap="butt">
      <rect fill="none" x="348.1675" width="62.6227" height="58.3676" y="324.5802" clip-path="url(#clipPath2)"/>
    </g>
    <g text-rendering="geometricPrecision" shape-rendering="geometricPrecision" transform="matrix(0.2622,0,0,0.2546,129.3173,20.8899)">
      <g clip-path="url(#clipPath5)">
        <svg xmlns:svg="http://www.w3.org/2000/svg" xml:space="preserve" opacity="1" writing-mode="lr-tb" stop-color="rgb(0, 0, 0)" shape-rendering="auto" glyph-orientation-horizontal="0deg" color-profile="auto" lighting-color="rgb(255, 255, 255)" color="rgb(0, 0, 0)" font-weight="400" alignment-baseline="auto" font-style="normal" version="1.1" color-interpolation-filters="linearrgb" text-anchor="start" stroke-linecap="butt" color-interpolation="srgb" font-variant="normal" word-spacing="normal" fill-opacity="1" text-rendering="auto" clip-path="none" text-decoration="none" letter-spacing="normal" glyph-orientation-vertical="auto" display="inline" font-size-adjust="none" fill="rgb(0, 0, 0)" overflow="hidden" font-stretch="normal" stroke-dasharray="none" id="svg3.svg629" stroke-miterlimit="4" stop-opacity="1" color-rendering="auto" font-size="12" mask="none" direction="ltr" baseline-shift="baseline" pointer-events="visiblepainted" enable-background="accumulate" fill-rule="nonzero" image-rendering="auto" stroke-dashoffset="0" width="225.82599" marker-end="none" clip="auto" cursor="auto" stroke="none" filter="none" visibility="visible" kerning="auto" stroke-width="1" font-family="&quot;Arial&quot;,&quot;Helvetica&quot;,sans-serif" flood-opacity="1" clip-rule="nonzero" src="none" height="207.91716" unicode-bidi="normal" stroke-linejoin="miter" stroke-opacity="1" flood-color="rgb(0, 0, 0)" dominant-baseline="auto" marker-start="none" marker-mid="none"><defs id="svg3.defs605"><clipPath id="svg3.clip0"><rect x="1006" width="517" y="563" height="504" id="svg3.rect602"/></clipPath></defs><g id="svg3.g627" style="stroke-width:2.28937" clip-path="url(#svg3.clip0)" transform="matrix(0.43680075,0,0,0.43680075,-439.42155,-245.91882)"><rect x="1006" y="563" fill="#d9d9d9" width="517" style="stroke-width:5.24123" id="svg3.rect607" height="476"/><path fill="none" fill-rule="evenodd" id="svg3.path609" d="m 1107,756.5 c 0,-86.985 70.52,-157.5 157.5,-157.5 86.98,0 157.5,70.515 157.5,157.5 0,86.985 -70.52,157.5 -157.5,157.5 -86.98,0 -157.5,-70.515 -157.5,-157.5 z" stroke="#3c3c3c" stroke-width="8" stroke-miterlimit="8"/><path fill="none" fill-rule="evenodd" id="svg3.path611" d="m 1264,599 157.7,157.699" stroke="#3c3c3c" stroke-width="8" stroke-miterlimit="8"/><path transform="matrix(-1,0,0,1,1421.7,756)" fill="none" fill-rule="evenodd" id="svg3.path613" d="M 0,0 157.699,157.699" stroke="#3c3c3c" stroke-width="8" stroke-miterlimit="8"/><path transform="matrix(-1,0,0,1,1422.4,756)" fill="none" fill-rule="evenodd" id="svg3.path615" d="M 0,0 315.398,3.60892e-4" stroke="#3c3c3c" stroke-width="8" stroke-miterlimit="8"/><text font-size="73px" transform="translate(1174.61,1006)" fill="#3c3c3c" style="stroke-width:5.24123" font-family="Arial, Arial_MSFontService, sans-serif" id="svg3.text617" font-weight="400">P123</text><path transform="matrix(1,0,0,-1,1416,756.004)" fill="none" fill-rule="evenodd" id="svg3.path619" d="M 0,0 75.5857,0.00396982" stroke="#3c3c3c" stroke-width="8" stroke-miterlimit="8"/><path transform="matrix(1,0,0,-1,1491,798.057)" fill="none" fill-rule="evenodd" id="svg3.path621" d="M 0,0 3.60892e-4,84.0565" stroke="#3c3c3c" stroke-width="8" stroke-miterlimit="8"/><path fill="none" fill-rule="evenodd" id="svg3.path623" d="m 1040,756 h 67.14" stroke="#3c3c3c" stroke-width="8" stroke-miterlimit="8"/><path transform="matrix(1,0,0,-1,1037,798.057)" fill="none" fill-rule="evenodd" id="svg3.path625" d="M 0,0 3.60892e-4,84.0565" stroke="#3c3c3c" stroke-width="8" stroke-miterlimit="8"/></g></svg>
      </g>
    </g>
    <g fill="white" text-rendering="geometricPrecision" shape-rendering="geometricPrecision" transform="matrix(1.1,0,0,1.1,-258.5,-341)" stroke="white">
      <rect x="253.9121" width="27.9529" height="29.3806" y="490.5773" clip-path="url(#clipPath2)" stroke="none"/>
    </g>
    <g text-rendering="geometricPrecision" stroke-miterlimit="1.45" stroke-dasharray="6,2" shape-rendering="geometricPrecision" transform="matrix(1.1,0,0,1.1,-258.5,-341)" stroke-linecap="butt">
      <rect fill="none" x="253.9121" width="27.9529" height="29.3806" y="490.5773" clip-path="url(#clipPath2)"/>
    </g>
    <g text-rendering="geometricPrecision" shape-rendering="geometricPrecision" transform="matrix(0.3032,0,0,0.3032,27.6912,189.2273)">
      <g clip-path="url(#clipPath6)">
        <svg xmlns:svg="http://www.w3.org/2000/svg" xml:space="preserve" opacity="1" writing-mode="lr-tb" stop-color="rgb(0, 0, 0)" shape-rendering="auto" glyph-orientation-horizontal="0deg" color-profile="auto" lighting-color="rgb(255, 255, 255)" color="rgb(0, 0, 0)" font-weight="400" alignment-baseline="auto" font-style="normal" version="1.1" color-interpolation-filters="linearrgb" text-anchor="start" stroke-linecap="butt" color-interpolation="srgb" font-variant="normal" word-spacing="normal" fill-opacity="1" text-rendering="auto" clip-path="none" text-decoration="none" letter-spacing="normal" glyph-orientation-vertical="auto" display="inline" font-size-adjust="none" fill="rgb(0, 0, 0)" overflow="hidden" font-stretch="normal" stroke-dasharray="none" id="svg4.svg629" stroke-miterlimit="4" stop-opacity="1" color-rendering="auto" font-size="12" mask="none" direction="ltr" baseline-shift="baseline" pointer-events="visiblepainted" enable-background="accumulate" fill-rule="nonzero" image-rendering="auto" stroke-dashoffset="0" width="225.82599" marker-end="none" clip="auto" cursor="auto" stroke="none" filter="none" visibility="visible" kerning="auto" stroke-width="1" font-family="&quot;Arial&quot;,&quot;Helvetica&quot;,sans-serif" flood-opacity="1" clip-rule="nonzero" src="none" height="207.91716" unicode-bidi="normal" stroke-linejoin="miter" stroke-opacity="1" flood-color="rgb(0, 0, 0)" dominant-baseline="auto" marker-start="none" marker-mid="none"><defs id="svg4.defs605"><clipPath id="svg4.clip0"><rect x="1006" width="517" y="563" height="504" id="svg4.rect602"/></clipPath></defs><g id="svg4.g627" style="stroke-width:2.28937" clip-path="url(#svg4.clip0)" transform="matrix(0.43680075,0,0,0.43680075,-439.42155,-245.91882)"><path fill="none" fill-rule="evenodd" id="svg4.path623" d="m 1040,756 h 67.14" stroke="#3c3c3c" stroke-width="8" stroke-miterlimit="8"/><path transform="matrix(1,0,0,-1,1037,798.057)" fill="none" fill-rule="evenodd" id="svg4.path625" d="M 0,0 3.60892e-4,84.0565" stroke="#3c3c3c" stroke-width="8" stroke-miterlimit="8"/></g></svg>
      </g>
    </g>
    <g text-rendering="geometricPrecision" stroke-miterlimit="1.45" shape-rendering="geometricPrecision" transform="matrix(1.1,0,0,1.1,-258.5,-341)" stroke-linecap="butt">
      <path fill="none" d="M555.9138 477.1872 L555.9138 506.7295" clip-path="url(#clipPath2)"/>
      <path d="M555.9138 470.1872 L560.9138 477.1872 L555.9138 484.1872 L550.9138 477.1872 Z" clip-path="url(#clipPath2)" stroke="none"/>
      <path d="M555.9138 514.7295 L560.9138 502.7295 L555.9138 505.7295 L550.9138 502.7295 Z" clip-path="url(#clipPath2)" stroke="none"/>
      <text x="568.9639" font-size="11px" y="509.6135" clip-path="url(#clipPath2)" font-family="'Arial'" stroke="none" xml:space="preserve">Groups</text>
      <path fill="none" d="M872.4353 403.3038 L872.4353 432.8263" clip-path="url(#clipPath2)"/>
      <path d="M872.4353 396.3038 L877.4353 403.3038 L872.4353 410.3038 L867.4353 403.3038 Z" clip-path="url(#clipPath2)" stroke="none"/>
      <path d="M872.4353 440.8263 L877.4353 428.8263 L872.4353 431.8263 L867.4353 428.8263 Z" clip-path="url(#clipPath2)" stroke="none"/>
      <text x="882.3635" font-size="11px" y="434.8135" clip-path="url(#clipPath2)" font-family="'Arial'" stroke="none" xml:space="preserve">TaggedPlantItems</text>
      <path fill="none" d="M637.8539 455.5167 L695.5858 455.5167" clip-path="url(#clipPath2)"/>
      <path d="M703.5858 455.5167 L691.5858 450.5167 L694.5858 455.5167 L691.5858 460.5167 Z" clip-path="url(#clipPath2)" stroke="none"/>
      <path fill="none" d="M484.6284 440.822 L502.6089 434.0326 L529.0251 425.5924 L555.4413 418.6868 L581.8574 413.3158 L608.2736 409.4794 L634.6898 407.1775 L661.106 406.4102 L687.5221 407.1775 L713.9383 409.4794 L740.3545 413.3158 L766.7706 418.6868 L793.1868 425.5924 L819.603 434.0326 L830.0993 437.996" clip-path="url(#clipPath2)"/>
      <path d="M837.5835 440.822 L828.1234 431.9053 L829.1638 437.6427 L824.5909 441.2606 Z" clip-path="url(#clipPath2)" stroke="none"/>
      <text x="806.8743" font-size="11px" y="428.321" clip-path="url(#clipPath2)" font-family="sans-serif" stroke="none" xml:space="preserve">Represents</text>
      <path fill="none" d="M758.5767 477.1806 L758.5767 506.7295" clip-path="url(#clipPath2)"/>
      <path d="M758.5767 470.1806 L763.5767 477.1806 L758.5767 484.1806 L753.5767 477.1806 Z" clip-path="url(#clipPath2)" stroke="none"/>
      <path d="M758.5767 514.7295 L763.5767 502.7295 L758.5767 505.7295 L753.5767 502.7295 Z" clip-path="url(#clipPath2)" stroke="none"/>
      <text x="769.4385" font-size="11px" y="507.8135" clip-path="url(#clipPath2)" font-family="'Arial'" stroke="none" xml:space="preserve">Nozzles</text>
      <path fill="none" d="M986.2939 477.2421 L986.2939 506.7295" clip-path="url(#clipPath2)"/>
      <path d="M986.2939 470.2421 L991.2939 477.2421 L986.2939 484.2421 L981.2939 477.2421 Z" clip-path="url(#clipPath2)" stroke="none"/>
      <path d="M986.2939 514.7295 L991.2939 502.7295 L986.2939 505.7295 L981.2939 502.7295 Z" clip-path="url(#clipPath2)" stroke="none"/>
      <text x="994.4385" font-size="11px" y="507.8135" clip-path="url(#clipPath2)" font-family="'Arial'" stroke="none" xml:space="preserve">Nozzles</text>
      <path fill="none" d="M582.366 544.1238 L582.8126 544.372 L609.7113 557.3306 L636.6101 568.2956 L663.5089 577.2669 L690.4076 584.2446 L717.3063 589.2287 L744.2051 592.2191 L771.1039 593.2159 L798.0026 592.2191 L824.9014 589.2287 L851.8001 584.2446 L878.6989 577.2669 L905.5977 568.2956 L932.4964 557.3306 L952.6474 547.6227 L952.7348 547.5742" clip-path="url(#clipPath2)"/>
      <path d="M959.9315 544.0802 L946.9527 544.8232 L951.8352 548.0109 L951.3202 553.8191 Z" clip-path="url(#clipPath2)" stroke="none"/>
      <text x="966.8743" font-size="11px" y="559.321" clip-path="url(#clipPath2)" font-family="sans-serif" stroke="none" xml:space="preserve">Represents</text>
      <path fill="none" d="M872.4353 477.207 L872.4353 506.7295" clip-path="url(#clipPath2)"/>
      <path d="M872.4353 470.207 L877.4353 477.207 L872.4353 484.207 L867.4353 477.207 Z" clip-path="url(#clipPath2)" stroke="none"/>
      <path d="M872.4353 514.7295 L877.4353 502.7295 L872.4353 505.7295 L867.4353 502.7295 Z" clip-path="url(#clipPath2)" stroke="none"/>
      <text x="882.6296" font-size="11px" y="508.8135" clip-path="url(#clipPath2)" font-family="'Arial'" stroke="none" xml:space="preserve">Chambers</text>
      <path fill="none" d="M481.0168 366.9252 L502.6089 357.9419 L529.0251 348.6423 L555.4413 341.0336 L581.8574 335.1157 L608.2736 330.8887 L634.6898 328.3524 L661.106 327.507 L687.5221 328.3524 L713.9383 330.8887 L740.3545 335.1157 L766.7706 341.0336 L793.1868 348.6423 L819.603 357.9419 L833.8089 363.8522" clip-path="url(#clipPath2)"/>
      <path d="M841.1951 366.9252 L832.0364 357.6993 L832.8856 363.4681 L828.1951 366.9321 Z" clip-path="url(#clipPath2)" stroke="none"/>
      <text x="823.8743" font-size="11px" y="351.321" clip-path="url(#clipPath2)" font-family="sans-serif" stroke="none" xml:space="preserve">Represents</text>
      <path fill="none" d="M449.7766 403.3038 L449.7766 432.7828" clip-path="url(#clipPath2)"/>
      <path d="M449.7766 396.3038 L454.7766 403.3038 L449.7766 410.3038 L444.7766 403.3038 Z" clip-path="url(#clipPath2)" stroke="none"/>
      <path d="M449.7766 440.7828 L454.7766 428.7828 L449.7766 431.7828 L444.7766 428.7828 Z" clip-path="url(#clipPath2)" stroke="none"/>
      <text x="401.7639" font-size="11px" y="434.4135" clip-path="url(#clipPath2)" font-family="'Arial'" stroke="none" xml:space="preserve">Groups</text>
      <path fill="none" d="M343.6394 477.2311 L343.6394 506.7295" clip-path="url(#clipPath2)"/>
      <path d="M343.6394 470.2311 L348.6394 477.2311 L343.6394 484.2311 L338.6394 477.2311 Z" clip-path="url(#clipPath2)" stroke="none"/>
      <path d="M343.6394 514.7295 L348.6394 502.7295 L343.6394 505.7295 L338.6394 502.7295 Z" clip-path="url(#clipPath2)" stroke="none"/>
      <text x="353.7639" font-size="11px" y="508.0135" clip-path="url(#clipPath2)" font-family="'Arial'" stroke="none" xml:space="preserve">Groups</text>
      <path fill="none" d="M368.2813 544.1174 L369.573 544.8878 L395.5065 558.2935 L421.4401 569.6367 L447.3737 578.9175 L473.3073 586.1359 L499.2409 591.2919 L525.1744 594.3856 L551.108 595.4167 L577.0416 594.3856 L602.9752 591.2919 L628.9088 586.1359 L654.8423 578.9175 L680.7759 569.6367 L706.7095 558.2935 L726.8704 547.8718 L726.9562 547.8206" clip-path="url(#clipPath2)"/>
      <path d="M734.0229 544.0706 L721.0792 545.2789 L726.0729 548.2894 L725.7667 554.1122 Z" clip-path="url(#clipPath2)" stroke="none"/>
      <text x="737.8743" font-size="11px" y="559.321" clip-path="url(#clipPath2)" font-family="sans-serif" stroke="none" xml:space="preserve">Represents</text>
    </g>
  </g>
</svg>
