<svg xmlns="http://www.w3.org/2000/svg" width="18.0mm" height="22.0mm" viewBox="-1 -1 18 22" style="background-color: #ffffff;"><polyline points="0,0 0,16" stroke="#000000" stroke-width="0.25" stroke-dasharray="none" stroke-dashoffset="0mm" stroke-linecap="round" stroke-linejoin="round"/><polygon points="8,-2 7.96875,-1.515625 7.875,-1.0625 7.71875,-0.640625 7.5,-0.25 7.21875,0.109375 6.875,0.4375 6.46875,0.734375 6,1 5.46875,1.234375 4.875,1.4375 4.21875,1.609375 3.5,1.75 2.71875,1.859375 1.875,1.9375 0.96875,1.984375 0,2 0,2 -0.96875,1.984375 -1.875,1.9375 -2.71875,1.859375 -3.5,1.75 -4.21875,1.609375 -4.875,1.4375 -5.46875,1.234375 -6,1 -6.46875,0.734375 -6.875,0.4375 -7.21875,0.109375 -7.5,-0.25 -7.71875,-0.640625 -7.875,-1.0625 -7.96875,-1.515625 -8,-2" stroke="#000000" stroke-width="0.25" stroke-dasharray="none" stroke-dashoffset="0mm" stroke-linecap="round" stroke-linejoin="round" fill="none" transform="translate(8,18)"/><polyline points="16,0 16,16" stroke="#000000" stroke-width="0.25" stroke-dasharray="none" stroke-dashoffset="0mm" stroke-linecap="round" stroke-linejoin="round"/></svg>