<svg xmlns="http://www.w3.org/2000/svg" width="10.0mm" height="6.0mm" viewBox="-5 -3 10 6" style="background-color: #ffffff;"><polyline points="4.030724,0.963815 3.412163,0.834122 2.889267,0.620662 2.488636,0.33767 2.236872,-0.000622" stroke="#000000" stroke-width="0.25" stroke-dasharray="none" stroke-dashoffset="0mm" stroke-linecap="round" stroke-linejoin="round" fill="none"/><polyline points="-2.413581,-0.039822 -2.634274,0.365844 -2.996599,0.683195 -3.465323,0.889946 -4.005213,0.963815" stroke="#000000" stroke-width="0.25" stroke-dasharray="none" stroke-dashoffset="0mm" stroke-linecap="round" stroke-linejoin="round" fill="none"/><polyline points="2.251805,-0.0392 2.1195,0.173076 1.928942,0.366117 1.68657,0.537136 1.398823,0.68335 0.712954,0.890218 -0.077155,0.964437" stroke="#000000" stroke-width="0.25" stroke-dasharray="none" stroke-dashoffset="0mm" stroke-linecap="round" stroke-linejoin="round" fill="none"/><polyline points="-0.077155,0.964437 -0.867507,0.891219 -1.554143,0.685295 -1.84249,0.539439 -2.085614,0.368654 -2.277084,0.175688 -2.41047,-0.036711" stroke="#000000" stroke-width="0.25" stroke-dasharray="none" stroke-dashoffset="0mm" stroke-linecap="round" stroke-linejoin="round" fill="none"/><polyline points="-3.982191,-1.991096 3.982191,-1.991096" stroke="#000000" stroke-width="0.25" stroke-dasharray="none" stroke-dashoffset="0mm" stroke-linecap="round" stroke-linejoin="round"/><polyline points="3.982191,1.991096 3.982191,-1.991096" stroke="#000000" stroke-width="0.25" stroke-dasharray="none" stroke-dashoffset="0mm" stroke-linecap="round" stroke-linejoin="round"/><polyline points="-3.982191,1.991096 -3.982191,-1.991096" stroke="#000000" stroke-width="0.25" stroke-dasharray="none" stroke-dashoffset="0mm" stroke-linecap="round" stroke-linejoin="round"/><polyline points="-3.982191,1.991096 3.982191,1.991096" stroke="#000000" stroke-width="0.25" stroke-dasharray="none" stroke-dashoffset="0mm" stroke-linecap="round" stroke-linejoin="round"/></svg>