<svg xmlns="http://www.w3.org/2000/svg" width="58.0mm" height="38.0mm" viewBox="-1 -29 58 38" style="background-color: #ffffff;"><polygon points="-10,-1 10,-1 10,1 -10,1" stroke="#000000" stroke-width="0.25" stroke-dasharray="none" stroke-dashoffset="0mm" stroke-linecap="round" stroke-linejoin="round" fill="none" transform="translate(28,7)"/><polygon points="-8,-3 8,-3 8,3 -8,3" stroke="#000000" stroke-width="0.25" stroke-dasharray="none" stroke-dashoffset="0mm" stroke-linecap="round" stroke-linejoin="round" fill="none" transform="translate(28,3)"/><polygon points="-10,-1 10,-1 10,1 -10,1" stroke="#000000" stroke-width="0.25" stroke-dasharray="none" stroke-dashoffset="0mm" stroke-linecap="round" stroke-linejoin="round" fill="none" transform="translate(28,-27)"/><polygon points="-8,-3 8,-3 8,3 -8,3" stroke="#000000" stroke-width="0.25" stroke-dasharray="none" stroke-dashoffset="0mm" stroke-linecap="round" stroke-linejoin="round" fill="none" transform="translate(28,-23)"/><polygon points="-28,4 -20,-4 20,-4 28,4" stroke="#000000" stroke-width="0.25" stroke-dasharray="none" stroke-dashoffset="0mm" stroke-linecap="round" stroke-linejoin="round" fill="none" transform="translate(28,-16)"/><polygon points="-28,-6 28,-6 28,6 -28,6" stroke="#000000" stroke-width="0.25" stroke-dasharray="none" stroke-dashoffset="0mm" stroke-linecap="round" stroke-linejoin="round" fill="none" transform="translate(28,-6)"/></svg>