<svg xmlns="http://www.w3.org/2000/svg" width="18.0mm" height="13.0mm" viewBox="-9 -9 18 13" style="background-color: #ffffff;"><polyline points="-6.5,0 -5.599609,-0.021484 -4.773438,-0.085938 -4.021484,-0.193359 -3.34375,-0.34375 -2.740234,-0.537109 -2.210937,-0.773438 -1.755859,-1.052734 -1.375,-1.375" stroke="#000000" stroke-width="0.25" stroke-dasharray="none" stroke-dashoffset="0mm" stroke-linecap="round" stroke-linejoin="round" fill="none"/><polyline points="-1.375,-1.375 -1.056641,-1.746094 -0.789063,-2.171875 -0.572266,-2.652344 -0.40625,-3.1875 -0.291016,-3.777344 -0.226563,-4.421875 -0.212891,-5.121094 -0.25,-5.875" stroke="#000000" stroke-width="0.25" stroke-dasharray="none" stroke-dashoffset="0mm" stroke-linecap="round" stroke-linejoin="round" fill="none"/><polyline points="-8,3 8,3" stroke="#000000" stroke-width="0.25" stroke-dasharray="none" stroke-dashoffset="0mm" stroke-linecap="round" stroke-linejoin="round"/><polyline points="-8,3 -8,-3" stroke="#000000" stroke-width="0.25" stroke-dasharray="none" stroke-dashoffset="0mm" stroke-linecap="round" stroke-linejoin="round"/><polyline points="8,3 8,-3" stroke="#000000" stroke-width="0.25" stroke-dasharray="none" stroke-dashoffset="0mm" stroke-linecap="round" stroke-linejoin="round"/><polyline points="3,-3 8,-3" stroke="#000000" stroke-width="0.25" stroke-dasharray="none" stroke-dashoffset="0mm" stroke-linecap="round" stroke-linejoin="round"/><polyline points="-8,-3 -3,-3" stroke="#000000" stroke-width="0.25" stroke-dasharray="none" stroke-dashoffset="0mm" stroke-linecap="round" stroke-linejoin="round"/><polyline points="-3,-3 -3,-8" stroke="#000000" stroke-width="0.25" stroke-dasharray="none" stroke-dashoffset="0mm" stroke-linecap="round" stroke-linejoin="round"/><polyline points="3,-3 3,-8" stroke="#000000" stroke-width="0.25" stroke-dasharray="none" stroke-dashoffset="0mm" stroke-linecap="round" stroke-linejoin="round"/><polyline points="-3,-8 3,-8" stroke="#000000" stroke-width="0.25" stroke-dasharray="none" stroke-dashoffset="0mm" stroke-linecap="round" stroke-linejoin="round"/></svg>