<svg xmlns="http://www.w3.org/2000/svg" width="54.0mm" height="44.0mm" viewBox="-13.5 -13.5 27 22" style="background-color: #ffffff;"><polyline points="-13,-13.5 -13,8.5" stroke="#b4b4b4" stroke-width="0.05" stroke-dasharray="none" stroke-dashoffset="0mm" stroke-linecap="round" stroke-linejoin="round"/><polyline points="-12,-13.5 -12,8.5" stroke="#b4b4b4" stroke-width="0.05" stroke-dasharray="none" stroke-dashoffset="0mm" stroke-linecap="round" stroke-linejoin="round"/><polyline points="-11,-13.5 -11,8.5" stroke="#b4b4b4" stroke-width="0.05" stroke-dasharray="none" stroke-dashoffset="0mm" stroke-linecap="round" stroke-linejoin="round"/><polyline points="-10,-13.5 -10,8.5" stroke="#b4b4b4" stroke-width="0.05" stroke-dasharray="none" stroke-dashoffset="0mm" stroke-linecap="round" stroke-linejoin="round"/><polyline points="-9,-13.5 -9,8.5" stroke="#b4b4b4" stroke-width="0.05" stroke-dasharray="none" stroke-dashoffset="0mm" stroke-linecap="round" stroke-linejoin="round"/><polyline points="-8,-13.5 -8,8.5" stroke="#b4b4b4" stroke-width="0.05" stroke-dasharray="none" stroke-dashoffset="0mm" stroke-linecap="round" stroke-linejoin="round"/><polyline points="-7,-13.5 -7,8.5" stroke="#b4b4b4" stroke-width="0.05" stroke-dasharray="none" stroke-dashoffset="0mm" stroke-linecap="round" stroke-linejoin="round"/><polyline points="-6,-13.5 -6,8.5" stroke="#b4b4b4" stroke-width="0.05" stroke-dasharray="none" stroke-dashoffset="0mm" stroke-linecap="round" stroke-linejoin="round"/><polyline points="-5,-13.5 -5,8.5" stroke="#b4b4b4" stroke-width="0.05" stroke-dasharray="none" stroke-dashoffset="0mm" stroke-linecap="round" stroke-linejoin="round"/><polyline points="-4,-13.5 -4,8.5" stroke="#b4b4b4" stroke-width="0.05" stroke-dasharray="none" stroke-dashoffset="0mm" stroke-linecap="round" stroke-linejoin="round"/><polyline points="-3,-13.5 -3,8.5" stroke="#b4b4b4" stroke-width="0.05" stroke-dasharray="none" stroke-dashoffset="0mm" stroke-linecap="round" stroke-linejoin="round"/><polyline points="-2,-13.5 -2,8.5" stroke="#b4b4b4" stroke-width="0.05" stroke-dasharray="none" stroke-dashoffset="0mm" stroke-linecap="round" stroke-linejoin="round"/><polyline points="-1,-13.5 -1,8.5" stroke="#b4b4b4" stroke-width="0.05" stroke-dasharray="none" stroke-dashoffset="0mm" stroke-linecap="round" stroke-linejoin="round"/><polyline points="0,-13.5 0,8.5" stroke="#b4b4b4" stroke-width="0.05" stroke-dasharray="none" stroke-dashoffset="0mm" stroke-linecap="round" stroke-linejoin="round"/><polyline points="1,-13.5 1,8.5" stroke="#b4b4b4" stroke-width="0.05" stroke-dasharray="none" stroke-dashoffset="0mm" stroke-linecap="round" stroke-linejoin="round"/><polyline points="2,-13.5 2,8.5" stroke="#b4b4b4" stroke-width="0.05" stroke-dasharray="none" stroke-dashoffset="0mm" stroke-linecap="round" stroke-linejoin="round"/><polyline points="3,-13.5 3,8.5" stroke="#b4b4b4" stroke-width="0.05" stroke-dasharray="none" stroke-dashoffset="0mm" stroke-linecap="round" stroke-linejoin="round"/><polyline points="4,-13.5 4,8.5" stroke="#b4b4b4" stroke-width="0.05" stroke-dasharray="none" stroke-dashoffset="0mm" stroke-linecap="round" stroke-linejoin="round"/><polyline points="5,-13.5 5,8.5" stroke="#b4b4b4" stroke-width="0.05" stroke-dasharray="none" stroke-dashoffset="0mm" stroke-linecap="round" stroke-linejoin="round"/><polyline points="6,-13.5 6,8.5" stroke="#b4b4b4" stroke-width="0.05" stroke-dasharray="none" stroke-dashoffset="0mm" stroke-linecap="round" stroke-linejoin="round"/><polyline points="7,-13.5 7,8.5" stroke="#b4b4b4" stroke-width="0.05" stroke-dasharray="none" stroke-dashoffset="0mm" stroke-linecap="round" stroke-linejoin="round"/><polyline points="8,-13.5 8,8.5" stroke="#b4b4b4" stroke-width="0.05" stroke-dasharray="none" stroke-dashoffset="0mm" stroke-linecap="round" stroke-linejoin="round"/><polyline points="9,-13.5 9,8.5" stroke="#b4b4b4" stroke-width="0.05" stroke-dasharray="none" stroke-dashoffset="0mm" stroke-linecap="round" stroke-linejoin="round"/><polyline points="10,-13.5 10,8.5" stroke="#b4b4b4" stroke-width="0.05" stroke-dasharray="none" stroke-dashoffset="0mm" stroke-linecap="round" stroke-linejoin="round"/><polyline points="11,-13.5 11,8.5" stroke="#b4b4b4" stroke-width="0.05" stroke-dasharray="none" stroke-dashoffset="0mm" stroke-linecap="round" stroke-linejoin="round"/><polyline points="12,-13.5 12,8.5" stroke="#b4b4b4" stroke-width="0.05" stroke-dasharray="none" stroke-dashoffset="0mm" stroke-linecap="round" stroke-linejoin="round"/><polyline points="13,-13.5 13,8.5" stroke="#b4b4b4" stroke-width="0.05" stroke-dasharray="none" stroke-dashoffset="0mm" stroke-linecap="round" stroke-linejoin="round"/><polyline points="-13.5,-13 13.5,-13" stroke="#b4b4b4" stroke-width="0.05" stroke-dasharray="none" stroke-dashoffset="0mm" stroke-linecap="round" stroke-linejoin="round"/><polyline points="-13.5,-12 13.5,-12" stroke="#b4b4b4" stroke-width="0.05" stroke-dasharray="none" stroke-dashoffset="0mm" stroke-linecap="round" stroke-linejoin="round"/><polyline points="-13.5,-11 13.5,-11" stroke="#b4b4b4" stroke-width="0.05" stroke-dasharray="none" stroke-dashoffset="0mm" stroke-linecap="round" stroke-linejoin="round"/><polyline points="-13.5,-10 13.5,-10" stroke="#b4b4b4" stroke-width="0.05" stroke-dasharray="none" stroke-dashoffset="0mm" stroke-linecap="round" stroke-linejoin="round"/><polyline points="-13.5,-9 13.5,-9" stroke="#b4b4b4" stroke-width="0.05" stroke-dasharray="none" stroke-dashoffset="0mm" stroke-linecap="round" stroke-linejoin="round"/><polyline points="-13.5,-8 13.5,-8" stroke="#b4b4b4" stroke-width="0.05" stroke-dasharray="none" stroke-dashoffset="0mm" stroke-linecap="round" stroke-linejoin="round"/><polyline points="-13.5,-7 13.5,-7" stroke="#b4b4b4" stroke-width="0.05" stroke-dasharray="none" stroke-dashoffset="0mm" stroke-linecap="round" stroke-linejoin="round"/><polyline points="-13.5,-6 13.5,-6" stroke="#b4b4b4" stroke-width="0.05" stroke-dasharray="none" stroke-dashoffset="0mm" stroke-linecap="round" stroke-linejoin="round"/><polyline points="-13.5,-5 13.5,-5" stroke="#b4b4b4" stroke-width="0.05" stroke-dasharray="none" stroke-dashoffset="0mm" stroke-linecap="round" stroke-linejoin="round"/><polyline points="-13.5,-4 13.5,-4" stroke="#b4b4b4" stroke-width="0.05" stroke-dasharray="none" stroke-dashoffset="0mm" stroke-linecap="round" stroke-linejoin="round"/><polyline points="-13.5,-3 13.5,-3" stroke="#b4b4b4" stroke-width="0.05" stroke-dasharray="none" stroke-dashoffset="0mm" stroke-linecap="round" stroke-linejoin="round"/><polyline points="-13.5,-2 13.5,-2" stroke="#b4b4b4" stroke-width="0.05" stroke-dasharray="none" stroke-dashoffset="0mm" stroke-linecap="round" stroke-linejoin="round"/><polyline points="-13.5,-1 13.5,-1" stroke="#b4b4b4" stroke-width="0.05" stroke-dasharray="none" stroke-dashoffset="0mm" stroke-linecap="round" stroke-linejoin="round"/><polyline points="-13.5,0 13.5,0" stroke="#b4b4b4" stroke-width="0.05" stroke-dasharray="none" stroke-dashoffset="0mm" stroke-linecap="round" stroke-linejoin="round"/><polyline points="-13.5,1 13.5,1" stroke="#b4b4b4" stroke-width="0.05" stroke-dasharray="none" stroke-dashoffset="0mm" stroke-linecap="round" stroke-linejoin="round"/><polyline points="-13.5,2 13.5,2" stroke="#b4b4b4" stroke-width="0.05" stroke-dasharray="none" stroke-dashoffset="0mm" stroke-linecap="round" stroke-linejoin="round"/><polyline points="-13.5,3 13.5,3" stroke="#b4b4b4" stroke-width="0.05" stroke-dasharray="none" stroke-dashoffset="0mm" stroke-linecap="round" stroke-linejoin="round"/><polyline points="-13.5,4 13.5,4" stroke="#b4b4b4" stroke-width="0.05" stroke-dasharray="none" stroke-dashoffset="0mm" stroke-linecap="round" stroke-linejoin="round"/><polyline points="-13.5,5 13.5,5" stroke="#b4b4b4" stroke-width="0.05" stroke-dasharray="none" stroke-dashoffset="0mm" stroke-linecap="round" stroke-linejoin="round"/><polyline points="-13.5,6 13.5,6" stroke="#b4b4b4" stroke-width="0.05" stroke-dasharray="none" stroke-dashoffset="0mm" stroke-linecap="round" stroke-linejoin="round"/><polyline points="-13.5,7 13.5,7" stroke="#b4b4b4" stroke-width="0.05" stroke-dasharray="none" stroke-dashoffset="0mm" stroke-linecap="round" stroke-linejoin="round"/><polyline points="-13.5,8 13.5,8" stroke="#b4b4b4" stroke-width="0.05" stroke-dasharray="none" stroke-dashoffset="0mm" stroke-linecap="round" stroke-linejoin="round"/><polyline points="-10,-13.5 -10,8.5" stroke="#b4b4b4" stroke-width="0.08" stroke-dasharray="none" stroke-dashoffset="0mm" stroke-linecap="round" stroke-linejoin="round"/><polyline points="-5,-13.5 -5,8.5" stroke="#b4b4b4" stroke-width="0.08" stroke-dasharray="none" stroke-dashoffset="0mm" stroke-linecap="round" stroke-linejoin="round"/><polyline points="0,-13.5 0,8.5" stroke="#b4b4b4" stroke-width="0.08" stroke-dasharray="none" stroke-dashoffset="0mm" stroke-linecap="round" stroke-linejoin="round"/><polyline points="5,-13.5 5,8.5" stroke="#b4b4b4" stroke-width="0.08" stroke-dasharray="none" stroke-dashoffset="0mm" stroke-linecap="round" stroke-linejoin="round"/><polyline points="10,-13.5 10,8.5" stroke="#b4b4b4" stroke-width="0.08" stroke-dasharray="none" stroke-dashoffset="0mm" stroke-linecap="round" stroke-linejoin="round"/><polyline points="-13.5,-10 13.5,-10" stroke="#b4b4b4" stroke-width="0.08" stroke-dasharray="none" stroke-dashoffset="0mm" stroke-linecap="round" stroke-linejoin="round"/><polyline points="-13.5,-5 13.5,-5" stroke="#b4b4b4" stroke-width="0.08" stroke-dasharray="none" stroke-dashoffset="0mm" stroke-linecap="round" stroke-linejoin="round"/><polyline points="-13.5,0 13.5,0" stroke="#b4b4b4" stroke-width="0.08" stroke-dasharray="none" stroke-dashoffset="0mm" stroke-linecap="round" stroke-linejoin="round"/><polyline points="-13.5,5 13.5,5" stroke="#b4b4b4" stroke-width="0.08" stroke-dasharray="none" stroke-dashoffset="0mm" stroke-linecap="round" stroke-linejoin="round"/><polyline points="-6.5,0 -5.599609,-0.021484 -4.773438,-0.085938 -4.021484,-0.193359 -3.34375,-0.34375 -2.740234,-0.537109 -2.210937,-0.773438 -1.755859,-1.052734 -1.375,-1.375" stroke="#000000" stroke-width="0.25" stroke-dasharray="none" stroke-dashoffset="0mm" stroke-linecap="round" stroke-linejoin="round" fill="none"/><polyline points="-1.375,-1.375 -1.056641,-1.746094 -0.789063,-2.171875 -0.572266,-2.652344 -0.40625,-3.1875 -0.291016,-3.777344 -0.226563,-4.421875 -0.212891,-5.121094 -0.25,-5.875" stroke="#000000" stroke-width="0.25" stroke-dasharray="none" stroke-dashoffset="0mm" stroke-linecap="round" stroke-linejoin="round" fill="none"/><polyline points="-8,3 8,3" stroke="#000000" stroke-width="0.25" stroke-dasharray="none" stroke-dashoffset="0mm" stroke-linecap="round" stroke-linejoin="round"/><polyline points="-8,3 -8,-3" stroke="#000000" stroke-width="0.25" stroke-dasharray="none" stroke-dashoffset="0mm" stroke-linecap="round" stroke-linejoin="round"/><polyline points="8,3 8,-3" stroke="#000000" stroke-width="0.25" stroke-dasharray="none" stroke-dashoffset="0mm" stroke-linecap="round" stroke-linejoin="round"/><polyline points="3,-3 8,-3" stroke="#000000" stroke-width="0.25" stroke-dasharray="none" stroke-dashoffset="0mm" stroke-linecap="round" stroke-linejoin="round"/><polyline points="-8,-3 -3,-3" stroke="#000000" stroke-width="0.25" stroke-dasharray="none" stroke-dashoffset="0mm" stroke-linecap="round" stroke-linejoin="round"/><polyline points="-3,-3 -3,-8" stroke="#000000" stroke-width="0.25" stroke-dasharray="none" stroke-dashoffset="0mm" stroke-linecap="round" stroke-linejoin="round"/><polyline points="3,-3 3,-8" stroke="#000000" stroke-width="0.25" stroke-dasharray="none" stroke-dashoffset="0mm" stroke-linecap="round" stroke-linejoin="round"/><polyline points="-3,-8 3,-8" stroke="#000000" stroke-width="0.25" stroke-dasharray="none" stroke-dashoffset="0mm" stroke-linecap="round" stroke-linejoin="round"/><ellipse rx="1" ry="1" stroke="#ff0000" stroke-width="0.125" stroke-dasharray="none" stroke-dashoffset="0mm" stroke-linecap="round" stroke-linejoin="round" fill="none"/><ellipse rx="1" ry="1" stroke="#0000ff" stroke-width="0" stroke-dasharray="none" stroke-dashoffset="0mm" stroke-linecap="round" stroke-linejoin="round" fill="#0000ff" transform="translate(0,-8)"/></svg>