<svg xmlns="http://www.w3.org/2000/svg" width="14.0mm" height="32.0mm" viewBox="-7 -1 14 32" style="background-color: #ffffff;"><polyline points="4.623098,27.010469 4.917839,27.072278 5.18748,27.183612 5.427018,27.338804 5.631452,27.532185 5.795778,27.758084 5.914995,28.010834 5.9841,28.284766 5.99809,28.57421" stroke="#000000" stroke-width="0.25" stroke-dasharray="none" stroke-dashoffset="0mm" stroke-linecap="round" stroke-linejoin="round" fill="none"/><polyline points="5.99809,28.57421 5.95437,28.860718 5.857388,29.126638 5.712711,29.366792 5.525906,29.576001 5.302538,29.749087 5.048174,29.880872 4.768381,29.966178 4.468724,29.999827" stroke="#000000" stroke-width="0.25" stroke-dasharray="none" stroke-dashoffset="0mm" stroke-linecap="round" stroke-linejoin="round" fill="none"/><polyline points="-4.623098,29.989202 -4.917839,29.927393 -5.18748,29.816058 -5.427018,29.660866 -5.631452,29.467486 -5.795778,29.241586 -5.914995,28.988836 -5.9841,28.714905 -5.99809,28.425461" stroke="#000000" stroke-width="0.25" stroke-dasharray="none" stroke-dashoffset="0mm" stroke-linecap="round" stroke-linejoin="round" fill="none"/><polyline points="-5.99809,28.425461 -5.95437,28.138952 -5.857388,27.873032 -5.712711,27.632879 -5.525906,27.42367 -5.302538,27.250583 -5.048174,27.118798 -4.768381,27.033492 -4.468724,26.999844" stroke="#000000" stroke-width="0.25" stroke-dasharray="none" stroke-dashoffset="0mm" stroke-linecap="round" stroke-linejoin="round" fill="none"/><polyline points="-4.615598,29.996702 4.687473,26.999844" stroke="#000000" stroke-width="0.25" stroke-dasharray="none" stroke-dashoffset="0mm" stroke-linecap="round" stroke-linejoin="round"/><polyline points="-4.484349,27.021094 4.499974,29.999827" stroke="#000000" stroke-width="0.25" stroke-dasharray="none" stroke-dashoffset="0mm" stroke-linecap="round" stroke-linejoin="round"/><polyline points="0,28.499835 0,0" stroke="#000000" stroke-width="0.25" stroke-dasharray="none" stroke-dashoffset="0mm" stroke-linecap="round" stroke-linejoin="round"/></svg>