<svg xmlns="http://www.w3.org/2000/svg" width="86.0mm" height="26.0mm" viewBox="-49 -13 86 26" style="background-color: #ffffff;"><polygon points="-32,-8 32,-8 32,8 -32,8" stroke="#000000" stroke-width="0.25" stroke-dasharray="none" stroke-dashoffset="0mm" stroke-linecap="round" stroke-linejoin="round" fill="none" transform="translate(0,0.10375)"/><polyline points="-44,7.97875 -36,7.97875" stroke="#000000" stroke-width="0.25" stroke-dasharray="none" stroke-dashoffset="0mm" stroke-linecap="round" stroke-linejoin="round"/><polyline points="31.92625,-7.88 32.354942,-7.754486 32.768464,-7.563013 33.165093,-7.30897 33.543105,-6.995743 33.900779,-6.62672 34.236389,-6.205289 34.548214,-5.734836 34.834531,-5.21875 35.323748,-4.063228 35.690254,-2.765821 35.920266,-1.353628 36,0.14625" stroke="#000000" stroke-width="0.25" stroke-dasharray="none" stroke-dashoffset="0mm" stroke-linecap="round" stroke-linejoin="round" fill="none"/><polyline points="36,0.14625 35.920266,1.646127 35.690254,3.05832 35.323748,4.355727 34.834531,5.51125 34.548214,6.027335 34.236389,6.497788 33.900779,6.919219 33.543105,7.288242 33.165093,7.601469 32.768464,7.855512 32.354942,8.046985 31.92625,8.1725" stroke="#000000" stroke-width="0.25" stroke-dasharray="none" stroke-dashoffset="0mm" stroke-linecap="round" stroke-linejoin="round" fill="none"/><polyline points="-44,-8.02125 -35.9225,-7.92" stroke="#000000" stroke-width="0.25" stroke-dasharray="none" stroke-dashoffset="0mm" stroke-linecap="round" stroke-linejoin="round"/><polyline points="-34,12 -32,12" stroke="#000000" stroke-width="0.25" stroke-dasharray="none" stroke-dashoffset="0mm" stroke-linecap="round" stroke-linejoin="round"/><polyline points="-32,12 -32,-12" stroke="#000000" stroke-width="0.25" stroke-dasharray="none" stroke-dashoffset="0mm" stroke-linecap="round" stroke-linejoin="round"/><polyline points="-34,-12 -32,-12" stroke="#000000" stroke-width="0.25" stroke-dasharray="none" stroke-dashoffset="0mm" stroke-linecap="round" stroke-linejoin="round"/><polygon points="-1,-12 1,-12 1,12 -1,12" stroke="#000000" stroke-width="0.25" stroke-dasharray="none" stroke-dashoffset="0mm" stroke-linecap="round" stroke-linejoin="round" fill="none" transform="translate(-35,0)"/><polyline points="-46,12 -44,12" stroke="#000000" stroke-width="0.25" stroke-dasharray="none" stroke-dashoffset="0mm" stroke-linecap="round" stroke-linejoin="round"/><polyline points="-44,12 -44,-12" stroke="#000000" stroke-width="0.25" stroke-dasharray="none" stroke-dashoffset="0mm" stroke-linecap="round" stroke-linejoin="round"/><polyline points="-46,-12 -44,-12" stroke="#000000" stroke-width="0.25" stroke-dasharray="none" stroke-dashoffset="0mm" stroke-linecap="round" stroke-linejoin="round"/><polygon points="-1,-12 1,-12 1,12 -1,12" stroke="#000000" stroke-width="0.25" stroke-dasharray="none" stroke-dashoffset="0mm" stroke-linecap="round" stroke-linejoin="round" fill="none" transform="translate(-47,0)"/></svg>