<svg xmlns="http://www.w3.org/2000/svg" width="14.0mm" height="32.0mm" viewBox="-7 -1 14 32" style="background-color: #ffffff;"><polyline points="2.937483,26.999844 2.999983,5.999965" stroke="#000000" stroke-width="0.25" stroke-dasharray="none" stroke-dashoffset="0mm" stroke-linecap="round" stroke-linejoin="round"/><polyline points="4.685598,27.010469 4.980339,27.072278 5.249979,27.183612 5.489518,27.338804 5.693951,27.532185 5.858278,27.758084 5.977495,28.010834 6.0466,28.284766 6.06059,28.57421" stroke="#000000" stroke-width="0.25" stroke-dasharray="none" stroke-dashoffset="0mm" stroke-linecap="round" stroke-linejoin="round" fill="none"/><polyline points="6.06059,28.57421 6.01687,28.860718 5.919888,29.126638 5.775211,29.366792 5.588405,29.576001 5.365037,29.749087 5.110674,29.880872 4.83088,29.966178 4.531224,29.999827" stroke="#000000" stroke-width="0.25" stroke-dasharray="none" stroke-dashoffset="0mm" stroke-linecap="round" stroke-linejoin="round" fill="none"/><polyline points="-4.560599,29.989202 -4.855339,29.927393 -5.12498,29.816058 -5.364519,29.660866 -5.568952,29.467486 -5.733279,29.241586 -5.852495,28.988836 -5.9216,28.714905 -5.935591,28.425461" stroke="#000000" stroke-width="0.25" stroke-dasharray="none" stroke-dashoffset="0mm" stroke-linecap="round" stroke-linejoin="round" fill="none"/><polyline points="-5.935591,28.425461 -5.89187,28.138952 -5.794888,27.873032 -5.650211,27.632879 -5.463406,27.42367 -5.240038,27.250583 -4.985674,27.118798 -4.705881,27.033492 -4.406225,26.999844" stroke="#000000" stroke-width="0.25" stroke-dasharray="none" stroke-dashoffset="0mm" stroke-linecap="round" stroke-linejoin="round" fill="none"/><polyline points="-4.553099,29.996702 4.562474,29.999827" stroke="#000000" stroke-width="0.25" stroke-dasharray="none" stroke-dashoffset="0mm" stroke-linecap="round" stroke-linejoin="round"/><polyline points="-4.421849,27.021094 4.687473,26.999844" stroke="#000000" stroke-width="0.25" stroke-dasharray="none" stroke-dashoffset="0mm" stroke-linecap="round" stroke-linejoin="round"/><polyline points="2.999983,5.999965 5.999965,5.999965" stroke="#000000" stroke-width="0.25" stroke-dasharray="none" stroke-dashoffset="0mm" stroke-linecap="round" stroke-linejoin="round"/><polyline points="0,26.999844 0,0" stroke="#000000" stroke-width="0.25" stroke-dasharray="none" stroke-dashoffset="0mm" stroke-linecap="round" stroke-linejoin="round"/></svg>