<svg xmlns="http://www.w3.org/2000/svg" width="88.0mm" height="31.0mm" viewBox="-52 -13.5 88 31" style="background-color: #ffffff;"><polyline points="-34.999971,12.49999 -26.999977,12.49999" stroke="#000000" stroke-width="0.25" stroke-dasharray="none" stroke-dashoffset="0mm" stroke-linecap="round" stroke-linejoin="round"/><polyline points="-34.999971,-3.499997 -26.999977,-12.49999" stroke="#000000" stroke-width="0.25" stroke-dasharray="none" stroke-dashoffset="0mm" stroke-linecap="round" stroke-linejoin="round"/><polyline points="26.924978,-12.48499 27.75757,-12.363884 28.563941,-12.128625 29.340342,-11.784972 30.083022,-11.338682 30.788231,-10.795515 31.45222,-10.161229 32.071238,-9.441584 32.641535,-8.642337 33.159362,-7.769247 33.620968,-6.828073 34.022603,-5.824574 34.360518,-4.764508 34.630962,-3.653634 34.830186,-2.49771 34.954439,-1.302496 34.999971,-0.07375" stroke="#000000" stroke-width="0.25" stroke-dasharray="none" stroke-dashoffset="0mm" stroke-linecap="round" stroke-linejoin="round" fill="none"/><polyline points="34.999971,-0.07375 34.964186,1.155689 34.849453,2.352942 34.659472,3.51219 34.39794,4.627613 34.068557,5.693393 33.675021,6.70371 33.221031,7.652746 32.710285,8.53468 32.146483,9.343695 31.533323,10.073971 30.874504,10.719689 30.173725,11.27503 29.434684,11.734174 28.66108,12.091303 27.856611,12.340598 27.024977,12.47624" stroke="#000000" stroke-width="0.25" stroke-dasharray="none" stroke-dashoffset="0mm" stroke-linecap="round" stroke-linejoin="round" fill="none"/><polygon points="-26.999977,-12.49999 26.999977,-12.49999 26.999977,12.49999 -26.999977,12.49999" stroke="#000000" stroke-width="0.25" stroke-dasharray="none" stroke-dashoffset="0mm" stroke-linecap="round" stroke-linejoin="round" fill="none"/><polyline points="-46.999961,12.624989 -38.999967,12.49999" stroke="#000000" stroke-width="0.25" stroke-dasharray="none" stroke-dashoffset="0mm" stroke-linecap="round" stroke-linejoin="round"/><polyline points="-46.999961,-3.499997 -39.029967,-3.576247" stroke="#000000" stroke-width="0.25" stroke-dasharray="none" stroke-dashoffset="0mm" stroke-linecap="round" stroke-linejoin="round"/><polyline points="-36.999969,16.439986 -34.999971,16.439986" stroke="#000000" stroke-width="0.25" stroke-dasharray="none" stroke-dashoffset="0mm" stroke-linecap="round" stroke-linejoin="round"/><polyline points="-34.999971,16.439986 -34.999971,-7.559994" stroke="#000000" stroke-width="0.25" stroke-dasharray="none" stroke-dashoffset="0mm" stroke-linecap="round" stroke-linejoin="round"/><polyline points="-36.999969,-7.559994 -34.999971,-7.559994" stroke="#000000" stroke-width="0.25" stroke-dasharray="none" stroke-dashoffset="0mm" stroke-linecap="round" stroke-linejoin="round"/><polygon points="-0.999999,-11.99999 0.999999,-11.99999 0.999999,11.99999 -0.999999,11.99999" stroke="#000000" stroke-width="0.25" stroke-dasharray="none" stroke-dashoffset="0mm" stroke-linecap="round" stroke-linejoin="round" fill="none" transform="translate(-37.999968,4.439996)"/><polyline points="-48.999959,16.499986 -46.999961,16.499986" stroke="#000000" stroke-width="0.25" stroke-dasharray="none" stroke-dashoffset="0mm" stroke-linecap="round" stroke-linejoin="round"/><polyline points="-46.999961,16.499986 -46.999961,-7.499994" stroke="#000000" stroke-width="0.25" stroke-dasharray="none" stroke-dashoffset="0mm" stroke-linecap="round" stroke-linejoin="round"/><polyline points="-48.999959,-7.499994 -46.999961,-7.499994" stroke="#000000" stroke-width="0.25" stroke-dasharray="none" stroke-dashoffset="0mm" stroke-linecap="round" stroke-linejoin="round"/><polygon points="-0.999999,-11.99999 0.999999,-11.99999 0.999999,11.99999 -0.999999,11.99999" stroke="#000000" stroke-width="0.25" stroke-dasharray="none" stroke-dashoffset="0mm" stroke-linecap="round" stroke-linejoin="round" fill="none" transform="translate(-49.999958,4.499996)"/></svg>