<svg xmlns="http://www.w3.org/2000/svg" width="12.0mm" height="16.0mm" viewBox="-5 -13 12 16" style="background-color: #ffffff;"><polyline points="0,0 6,-9" stroke="#000000" stroke-width="0.25" stroke-dasharray="none" stroke-dashoffset="0mm" stroke-linecap="round" stroke-linejoin="round"/><polyline points="6,-9 6,-12" stroke="#000000" stroke-width="0.25" stroke-dasharray="none" stroke-dashoffset="0mm" stroke-linecap="round" stroke-linejoin="round"/><polyline points="0,-12 6,-12" stroke="#000000" stroke-width="0.25" stroke-dasharray="none" stroke-dashoffset="0mm" stroke-linecap="round" stroke-linejoin="round"/><polyline points="0,-8 0,-12" stroke="#000000" stroke-width="0.25" stroke-dasharray="none" stroke-dashoffset="0mm" stroke-linecap="round" stroke-linejoin="round"/><polyline points="0,0 0,-6" stroke="#000000" stroke-width="0.25" stroke-dasharray="none" stroke-dashoffset="0mm" stroke-linecap="round" stroke-linejoin="round"/><polygon points="-2.5,1 -2.460938,0.53125 -2.34375,0.125 -2.148438,-0.21875 -1.875,-0.5 -1.523437,-0.71875 -1.09375,-0.875 -0.585937,-0.96875 0,-1 0,-1 0.585937,-0.96875 1.09375,-0.875 1.523437,-0.71875 1.875,-0.5 2.148438,-0.21875 2.34375,0.125 2.460938,0.53125 2.5,1" stroke="#000000" stroke-width="0.25" stroke-dasharray="none" stroke-dashoffset="0mm" stroke-linecap="round" stroke-linejoin="round" fill="none" transform="translate(0,-7)"/><polygon points="2,2 -2,0 2,-2" stroke="#000000" stroke-width="0.25" stroke-dasharray="none" stroke-dashoffset="0mm" stroke-linecap="round" stroke-linejoin="round" fill="none" transform="translate(2,0)"/><polygon points="-2,-2 2,0 -2,2" stroke="#000000" stroke-width="0.25" stroke-dasharray="none" stroke-dashoffset="0mm" stroke-linecap="round" stroke-linejoin="round" fill="none" transform="translate(-2,0)"/></svg>