<svg xmlns="http://www.w3.org/2000/svg" width="12.0mm" height="32.0mm" viewBox="-5 -1 12 32" style="background-color: #ffffff;"><polyline points="2.623116,27.010532 2.917857,27.07234 3.187499,27.183676 3.427038,27.338868 3.631472,27.532249 3.795799,27.758149 3.915016,28.010899 3.984121,28.284831 3.998111,28.574276" stroke="#000000" stroke-width="0.25" stroke-dasharray="none" stroke-dashoffset="0mm" stroke-linecap="round" stroke-linejoin="round" fill="none"/><polyline points="3.998111,28.574276 3.954391,28.860785 3.857409,29.126706 3.712731,29.36686 3.525925,29.57607 3.302557,29.749156 3.048193,29.880942 2.768399,29.966248 2.468741,29.999896" stroke="#000000" stroke-width="0.25" stroke-dasharray="none" stroke-dashoffset="0mm" stroke-linecap="round" stroke-linejoin="round" fill="none"/><polyline points="-2.623116,29.989271 -2.917857,29.927462 -3.187499,29.816127 -3.427038,29.660935 -3.631472,29.467554 -3.795799,29.241654 -3.915016,28.988904 -3.984121,28.714972 -3.998111,28.425527" stroke="#000000" stroke-width="0.25" stroke-dasharray="none" stroke-dashoffset="0mm" stroke-linecap="round" stroke-linejoin="round" fill="none"/><polyline points="-3.998111,28.425527 -3.954391,28.139018 -3.857409,27.873097 -3.712731,27.632943 -3.525925,27.423733 -3.302557,27.250647 -3.048193,27.118861 -2.768399,27.033555 -2.468741,26.999907" stroke="#000000" stroke-width="0.25" stroke-dasharray="none" stroke-dashoffset="0mm" stroke-linecap="round" stroke-linejoin="round" fill="none"/><polyline points="-2.615616,29.996771 2.499991,29.999896" stroke="#000000" stroke-width="0.25" stroke-dasharray="none" stroke-dashoffset="0mm" stroke-linecap="round" stroke-linejoin="round"/><polyline points="-2.484366,27.021157 2.624991,26.999907" stroke="#000000" stroke-width="0.25" stroke-dasharray="none" stroke-dashoffset="0mm" stroke-linecap="round" stroke-linejoin="round"/><polyline points="0,5.999979 5.999979,5.999979" stroke="#000000" stroke-width="0.25" stroke-dasharray="none" stroke-dashoffset="0mm" stroke-linecap="round" stroke-linejoin="round"/><polyline points="0,26.999907 0,0" stroke="#000000" stroke-width="0.25" stroke-dasharray="none" stroke-dashoffset="0mm" stroke-linecap="round" stroke-linejoin="round"/></svg>