<svg xmlns="http://www.w3.org/2000/svg" width="10.0mm" height="10.0mm" viewBox="-5 -5.1 10 10" style="background-color: #ffffff;"><polyline points="-4.075326,0.160476 -3.813998,0.587354" stroke="#000000" stroke-width="0.25" stroke-dasharray="none" stroke-dashoffset="0mm" stroke-linecap="round" stroke-linejoin="round"/><polyline points="-3.813998,0.587354 -3.682501,0.738514 -3.549974,0.76448 -3.416416,0.665253 -3.281827,0.440833" stroke="#000000" stroke-width="0.25" stroke-dasharray="none" stroke-dashoffset="0mm" stroke-linecap="round" stroke-linejoin="round" fill="none"/><polyline points="-3.281827,0.440833 -2.807376,-0.567691" stroke="#000000" stroke-width="0.25" stroke-dasharray="none" stroke-dashoffset="0mm" stroke-linecap="round" stroke-linejoin="round"/><polyline points="-2.807376,-0.567691 -2.668506,-0.785016 -2.522104,-0.862954 -2.368169,-0.801507 -2.206702,-0.600675" stroke="#000000" stroke-width="0.25" stroke-dasharray="none" stroke-dashoffset="0mm" stroke-linecap="round" stroke-linejoin="round" fill="none"/><polyline points="-2.206702,-0.600675 -1.472192,0.600675" stroke="#000000" stroke-width="0.25" stroke-dasharray="none" stroke-dashoffset="0mm" stroke-linecap="round" stroke-linejoin="round"/><polyline points="-1.472192,0.600675 -1.310685,0.801547 -1.156631,0.863113 -1.010031,0.785372 -0.870883,0.568326" stroke="#000000" stroke-width="0.25" stroke-dasharray="none" stroke-dashoffset="0mm" stroke-linecap="round" stroke-linejoin="round" fill="none"/><polyline points="-0.870883,0.568326 -0.334272,-0.568326" stroke="#000000" stroke-width="0.25" stroke-dasharray="none" stroke-dashoffset="0mm" stroke-linecap="round" stroke-linejoin="round"/><polyline points="-0.334272,-0.568326 -0.19445,-0.785769 -0.045828,-0.864699 0.111596,-0.805115 0.27782,-0.607017" stroke="#000000" stroke-width="0.25" stroke-dasharray="none" stroke-dashoffset="0mm" stroke-linecap="round" stroke-linejoin="round" fill="none"/><polyline points="0.27782,-0.607017 1.054193,0.607017" stroke="#000000" stroke-width="0.25" stroke-dasharray="none" stroke-dashoffset="0mm" stroke-linecap="round" stroke-linejoin="round"/><polyline points="1.054193,0.607017 1.22121,0.805511 1.381012,0.866284 1.533599,0.789337 1.678971,0.574669" stroke="#000000" stroke-width="0.25" stroke-dasharray="none" stroke-dashoffset="0mm" stroke-linecap="round" stroke-linejoin="round" fill="none"/><polyline points="1.678971,0.574669 2.253639,-0.574669" stroke="#000000" stroke-width="0.25" stroke-dasharray="none" stroke-dashoffset="0mm" stroke-linecap="round" stroke-linejoin="round"/><polyline points="2.253639,-0.574669 2.397108,-0.788187 2.543987,-0.861686 2.694274,-0.795164 2.847971,-0.588623" stroke="#000000" stroke-width="0.25" stroke-dasharray="none" stroke-dashoffset="0mm" stroke-linecap="round" stroke-linejoin="round" fill="none"/><polyline points="2.847971,-0.588623 3.36809,0.334906" stroke="#000000" stroke-width="0.25" stroke-dasharray="none" stroke-dashoffset="0mm" stroke-linecap="round" stroke-linejoin="round"/><polyline points="3.36809,0.334906 3.511123,0.557226 3.629419,0.671081 3.722977,0.676472 3.791798,0.5734" stroke="#000000" stroke-width="0.25" stroke-dasharray="none" stroke-dashoffset="0mm" stroke-linecap="round" stroke-linejoin="round" fill="none"/><polyline points="3.791798,0.5734 3.905336,0.258791" stroke="#000000" stroke-width="0.25" stroke-dasharray="none" stroke-dashoffset="0mm" stroke-linecap="round" stroke-linejoin="round"/><polygon points="-3.99604,-3.99604 3.99604,-3.99604 3.99604,3.99604 -3.99604,3.99604" stroke="#000000" stroke-width="0.25" stroke-dasharray="none" stroke-dashoffset="0mm" stroke-linecap="round" stroke-linejoin="round" fill="none" transform="translate(-0.063429,-0.063429)"/></svg>