<svg xmlns="http://www.w3.org/2000/svg" width="30.0mm" height="82.0mm" viewBox="-15 -41 30 82" style="background-color: #ffffff;"><polyline points="10.000015,35.076304 9.959061,35.571411 9.819275,36.052915 9.585509,36.518375 9.262612,36.96535 8.855435,37.3914 8.368829,37.794084 7.807644,38.170962 7.17673,38.519591 6.480938,38.837532 5.725119,39.122343 4.914122,39.371585 4.052799,39.582815 3.146,39.753594 2.198575,39.88148 1.215375,39.964033 0.20125,39.998812" stroke="#000000" stroke-width="0.25" stroke-dasharray="none" stroke-dashoffset="0mm" stroke-linecap="round" stroke-linejoin="round" fill="none"/><polyline points="0.20125,39.998812 -0.814922,39.983953 -1.804131,39.920777 -2.76133,39.811624 -3.681471,39.658831 -4.559504,39.464737 -5.390382,39.231679 -6.169056,38.961997 -6.890479,38.658029 -7.549602,38.322112 -8.141377,37.956585 -8.660756,37.563786 -9.10269,37.146054 -9.462131,36.705726 -9.734031,36.245142 -9.913342,35.766638 -9.995015,35.272555" stroke="#000000" stroke-width="0.25" stroke-dasharray="none" stroke-dashoffset="0mm" stroke-linecap="round" stroke-linejoin="round" fill="none"/><polyline points="10.040016,35.378805 10.000015,-36.000056" stroke="#000000" stroke-width="0.25" stroke-dasharray="none" stroke-dashoffset="0mm" stroke-linecap="round" stroke-linejoin="round"/><polyline points="-10.040016,35.495055 -10.000015,-36.000056" stroke="#000000" stroke-width="0.25" stroke-dasharray="none" stroke-dashoffset="0mm" stroke-linecap="round" stroke-linejoin="round"/><polyline points="-14.000022,-36.000056 14.000022,-36.000056" stroke="#000000" stroke-width="0.25" stroke-dasharray="none" stroke-dashoffset="0mm" stroke-linecap="round" stroke-linejoin="round"/><polyline points="14.000022,-36.000056 14.000022,-38.000059" stroke="#000000" stroke-width="0.25" stroke-dasharray="none" stroke-dashoffset="0mm" stroke-linecap="round" stroke-linejoin="round"/><polyline points="-14.000022,-36.000056 -14.000022,-38.000059" stroke="#000000" stroke-width="0.25" stroke-dasharray="none" stroke-dashoffset="0mm" stroke-linecap="round" stroke-linejoin="round"/><polygon points="-14.000022,-1.000002 14.000022,-1.000002 14.000022,1.000002 -14.000022,1.000002" stroke="#000000" stroke-width="0.25" stroke-dasharray="none" stroke-dashoffset="0mm" stroke-linecap="round" stroke-linejoin="round" fill="none" transform="translate(0,-39.00006)"/></svg>