<svg xmlns="http://www.w3.org/2000/svg" width="13.0mm" height="5.0mm" viewBox="-6.5 -2.5 13 5" style="background-color: #ffffff;"><polyline points="-3.961864,1.496246 -4.353142,1.468892 -4.716471,1.335543 -5.032808,1.106452 -5.283111,0.791873" stroke="#000000" stroke-width="0.25" stroke-dasharray="none" stroke-dashoffset="0mm" stroke-linecap="round" stroke-linejoin="round" fill="none"/><polyline points="-5.283111,0.791873 -5.442778,0.418407 -5.499672,0.020859 -5.453442,-0.378212 -5.303735,-0.756248" stroke="#000000" stroke-width="0.25" stroke-dasharray="none" stroke-dashoffset="0mm" stroke-linecap="round" stroke-linejoin="round" fill="none"/><polyline points="-5.303735,-0.756248 -5.062086,-1.078015 -4.75194,-1.316168 -4.392224,-1.459986 -4.001864,-1.498746" stroke="#000000" stroke-width="0.25" stroke-dasharray="none" stroke-dashoffset="0mm" stroke-linecap="round" stroke-linejoin="round" fill="none"/><polyline points="3.961864,-1.496246 4.353142,-1.468892 4.716471,-1.335543 5.032808,-1.106452 5.283111,-0.791873" stroke="#000000" stroke-width="0.25" stroke-dasharray="none" stroke-dashoffset="0mm" stroke-linecap="round" stroke-linejoin="round" fill="none"/><polyline points="5.283111,-0.791873 5.442778,-0.418407 5.499672,-0.020859 5.453442,0.378212 5.303735,0.756248" stroke="#000000" stroke-width="0.25" stroke-dasharray="none" stroke-dashoffset="0mm" stroke-linecap="round" stroke-linejoin="round" fill="none"/><polyline points="5.303735,0.756248 5.062086,1.078015 4.75194,1.316168 4.392224,1.459986 4.001864,1.498746" stroke="#000000" stroke-width="0.25" stroke-dasharray="none" stroke-dashoffset="0mm" stroke-linecap="round" stroke-linejoin="round" fill="none"/><polyline points="-3.999989,1.499996 3.999989,1.499996" stroke="#000000" stroke-width="0.25" stroke-dasharray="none" stroke-dashoffset="0mm" stroke-linecap="round" stroke-linejoin="round"/><polyline points="-3.999989,-1.499996 3.999989,-1.499996" stroke="#000000" stroke-width="0.25" stroke-dasharray="none" stroke-dashoffset="0mm" stroke-linecap="round" stroke-linejoin="round"/></svg>