<svg xmlns="http://www.w3.org/2000/svg" width="14.0mm" height="14.0mm" viewBox="-1 -13 14 14" style="background-color: #ffffff;"><polyline points="-0.008755,-7.977519 0.072977,-8.783328 0.307391,-9.53384 0.678312,-10.212984 1.169564,-10.804688 1.764974,-11.29288 2.448367,-11.661487 3.203567,-11.894438 4.014401,-11.975659" stroke="#000000" stroke-width="0.25" stroke-dasharray="none" stroke-dashoffset="0mm" stroke-linecap="round" stroke-linejoin="round" fill="none"/><polyline points="4.014401,-11.975659 4.825028,-11.894438 5.580073,-11.661487 6.263355,-11.29288 6.85869,-10.804688 7.349898,-10.212984 7.720795,-9.53384 7.955201,-8.783328 8.036932,-7.977519" stroke="#000000" stroke-width="0.25" stroke-dasharray="none" stroke-dashoffset="0mm" stroke-linecap="round" stroke-linejoin="round" fill="none"/><polyline points="0,0 0,-8.005036" stroke="#000000" stroke-width="0.25" stroke-dasharray="none" stroke-dashoffset="0mm" stroke-linecap="round" stroke-linejoin="round"/><polyline points="7.172638,-8.028801 4.002518,-4.81553" stroke="#000000" stroke-width="0.25" stroke-dasharray="none" stroke-dashoffset="0mm" stroke-linecap="round" stroke-linejoin="round"/><polyline points="9.87809,-8.005036 4.002518,-2.188877" stroke="#000000" stroke-width="0.25" stroke-dasharray="none" stroke-dashoffset="0mm" stroke-linecap="round" stroke-linejoin="round"/><polyline points="12.015685,-7.404659 4.565372,0" stroke="#000000" stroke-width="0.25" stroke-dasharray="none" stroke-dashoffset="0mm" stroke-linecap="round" stroke-linejoin="round"/><polyline points="12.007555,-4.565372 7.442182,0" stroke="#000000" stroke-width="0.25" stroke-dasharray="none" stroke-dashoffset="0mm" stroke-linecap="round" stroke-linejoin="round"/><polyline points="4.127597,-8.005036 4.002518,-7.879958" stroke="#000000" stroke-width="0.25" stroke-dasharray="none" stroke-dashoffset="0mm" stroke-linecap="round" stroke-linejoin="round"/><polyline points="12.007555,-1.688562 10.381532,0" stroke="#000000" stroke-width="0.25" stroke-dasharray="none" stroke-dashoffset="0mm" stroke-linecap="round" stroke-linejoin="round"/><polygon points="-4.002518,-4.002518 4.002518,-4.002518 4.002518,4.002518 -4.002518,4.002518" stroke="#000000" stroke-width="0.25" stroke-dasharray="none" stroke-dashoffset="0mm" stroke-linecap="round" stroke-linejoin="round" fill="none" transform="translate(8.005036,-4.002518)"/><polyline points="4.002518,-1.409011 5.347114,-0.01626" stroke="#000000" stroke-width="0.25" stroke-dasharray="none" stroke-dashoffset="0mm" stroke-linecap="round" stroke-linejoin="round"/><polyline points="4.018778,-4.146359 8.101347,-0.00813" stroke="#000000" stroke-width="0.25" stroke-dasharray="none" stroke-dashoffset="0mm" stroke-linecap="round" stroke-linejoin="round"/><polyline points="4.002518,-7.004407 11.006925,0" stroke="#000000" stroke-width="0.25" stroke-dasharray="none" stroke-dashoffset="0mm" stroke-linecap="round" stroke-linejoin="round"/><polyline points="5.816159,-8.005036 12.007555,-1.87618" stroke="#000000" stroke-width="0.25" stroke-dasharray="none" stroke-dashoffset="0mm" stroke-linecap="round" stroke-linejoin="round"/><polyline points="11.527252,-8.021297 12.015685,-7.564759" stroke="#000000" stroke-width="0.25" stroke-dasharray="none" stroke-dashoffset="0mm" stroke-linecap="round" stroke-linejoin="round"/><polyline points="8.692969,-8.005036 12.007555,-4.794892" stroke="#000000" stroke-width="0.25" stroke-dasharray="none" stroke-dashoffset="0mm" stroke-linecap="round" stroke-linejoin="round"/></svg>