<svg xmlns="http://www.w3.org/2000/svg" width="15.0mm" height="26.0mm" viewBox="-5 -13 15 26" style="background-color: #ffffff;"><polyline points="8,3.9925 8,-3.9925" stroke="#000000" stroke-width="0.25" stroke-dasharray="none" stroke-dashoffset="0mm" stroke-linecap="round" stroke-linejoin="round"/><polygon points="0,0.96875 -0.645625,-0.96875 0.645625,-0.96875" stroke="#000000" stroke-width="0.25" stroke-dasharray="none" stroke-dashoffset="0mm" stroke-linecap="round" stroke-linejoin="round" fill="#000000" transform="translate(8,4.96125)"/><polygon points="0,-0.96875 0.645625,0.96875 -0.645625,0.96875" stroke="#000000" stroke-width="0.25" stroke-dasharray="none" stroke-dashoffset="0mm" stroke-linecap="round" stroke-linejoin="round" fill="#000000" transform="translate(8,-4.96125)"/><polyline points="3,6 9,6" stroke="#000000" stroke-width="0.25" stroke-dasharray="none" stroke-dashoffset="0mm" stroke-linecap="round" stroke-linejoin="round"/><polyline points="5,-6 9,-6" stroke="#000000" stroke-width="0.25" stroke-dasharray="none" stroke-dashoffset="0mm" stroke-linecap="round" stroke-linejoin="round"/><polyline points="-1,-6 3,-6" stroke="#000000" stroke-width="0.25" stroke-dasharray="none" stroke-dashoffset="0mm" stroke-linecap="round" stroke-linejoin="round"/><polyline points="3.985625,4.15 3.814808,4.550339 3.615303,4.90748 3.390353,5.21842 3.143203,5.480156 2.877098,5.689685 2.595283,5.844004 2.301002,5.94011 1.9975,5.975" stroke="#000000" stroke-width="0.25" stroke-dasharray="none" stroke-dashoffset="0mm" stroke-linecap="round" stroke-linejoin="round" fill="none"/><polyline points="1.9975,5.975 1.693917,5.946628 1.398955,5.856894 1.115902,5.708713 0.848047,5.505 0.598678,5.248669 0.371084,4.942637 0.168553,4.589817 -0.005625,4.193125" stroke="#000000" stroke-width="0.25" stroke-dasharray="none" stroke-dashoffset="0mm" stroke-linecap="round" stroke-linejoin="round" fill="none"/><polyline points="-4,-4.25 -4,12" stroke="#000000" stroke-width="0.25" stroke-dasharray="none" stroke-dashoffset="0mm" stroke-linecap="round" stroke-linejoin="round"/><polyline points="-4,-4.185 -3.827737,-4.584899 -3.626309,-4.941182 -3.39907,-5.250839 -3.149375,-5.51086 -2.880579,-5.718234 -2.596035,-5.869951 -2.299099,-5.963002 -1.993125,-5.994375" stroke="#000000" stroke-width="0.25" stroke-dasharray="none" stroke-dashoffset="0mm" stroke-linecap="round" stroke-linejoin="round" fill="none"/><polyline points="-1.993125,-5.994375 -1.687001,-5.962066 -1.390068,-5.868086 -1.10566,-5.715454 -0.837109,-5.507188 -0.587748,-5.246304 -0.360908,-4.935821 -0.159923,-4.578755 0.011875,-4.178125" stroke="#000000" stroke-width="0.25" stroke-dasharray="none" stroke-dashoffset="0mm" stroke-linecap="round" stroke-linejoin="round" fill="none"/><polyline points="0,-4.25 0.003125,4.218125" stroke="#000000" stroke-width="0.25" stroke-dasharray="none" stroke-dashoffset="0mm" stroke-linecap="round" stroke-linejoin="round"/><polyline points="4,-12 3.984375,4.15875" stroke="#000000" stroke-width="0.25" stroke-dasharray="none" stroke-dashoffset="0mm" stroke-linecap="round" stroke-linejoin="round"/></svg>