<svg xmlns="http://www.w3.org/2000/svg" width="50.0mm" height="12.0mm" viewBox="-1 -1 50 12" style="background-color: #ffffff;"><polyline points="44.97446,4.997162 45.349247,6.223029 45.724034,7.277117 46.098822,8.159429 46.473609,8.869963 46.848396,9.408719 47.223183,9.775699 47.59797,9.9709 47.972757,9.994324" stroke="#000000" stroke-width="0.25" stroke-dasharray="none" stroke-dashoffset="0mm" stroke-linecap="round" stroke-linejoin="round" fill="none"/><polyline points="39.977298,4.997162 40.28962,3.825952 40.601943,2.810904 40.914266,1.952016 41.226588,1.249291 41.538911,0.702726 41.851234,0.312323 42.163556,0.078081 42.475879,0 42.788202,0.078081 43.100524,0.312323 43.412847,0.702726 43.725169,1.249291 44.037492,1.952016 44.349815,2.810904 44.662137,3.825952 44.97446,4.997162" stroke="#000000" stroke-width="0.25" stroke-dasharray="none" stroke-dashoffset="0mm" stroke-linecap="round" stroke-linejoin="round" fill="none"/><polyline points="34.980136,4.997162 35.292458,6.168372 35.604781,7.183421 35.917103,8.042308 36.229426,8.745034 36.541749,9.291599 36.854071,9.682002 37.166394,9.916244 37.478717,9.994324 37.791039,9.916244 38.103362,9.682002 38.415685,9.291599 38.728007,8.745034 39.04033,8.042308 39.352653,7.183421 39.664975,6.168372 39.977298,4.997162" stroke="#000000" stroke-width="0.25" stroke-dasharray="none" stroke-dashoffset="0mm" stroke-linecap="round" stroke-linejoin="round" fill="none"/><polyline points="29.982973,4.997162 30.295296,3.825952 30.607619,2.810904 30.919941,1.952016 31.232264,1.249291 31.544587,0.702726 31.856909,0.312323 32.169232,0.078081 32.481554,0 32.793877,0.078081 33.1062,0.312323 33.418522,0.702726 33.730845,1.249291 34.043168,1.952016 34.35549,2.810904 34.667813,3.825952 34.980136,4.997162" stroke="#000000" stroke-width="0.25" stroke-dasharray="none" stroke-dashoffset="0mm" stroke-linecap="round" stroke-linejoin="round" fill="none"/><polyline points="24.985811,4.997162 25.298134,6.168372 25.610456,7.183421 25.922779,8.042308 26.235102,8.745034 26.547424,9.291599 26.859747,9.682002 27.17207,9.916244 27.484392,9.994324 27.796715,9.916244 28.109038,9.682002 28.42136,9.291599 28.733683,8.745034 29.046005,8.042308 29.358328,7.183421 29.670651,6.168372 29.982973,4.997162" stroke="#000000" stroke-width="0.25" stroke-dasharray="none" stroke-dashoffset="0mm" stroke-linecap="round" stroke-linejoin="round" fill="none"/><polyline points="19.988649,4.997162 20.300972,3.825952 20.613294,2.810904 20.925617,1.952016 21.237939,1.249291 21.550262,0.702726 21.862585,0.312323 22.174907,0.078081 22.48723,0 22.799553,0.078081 23.111875,0.312323 23.424198,0.702726 23.736521,1.249291 24.048843,1.952016 24.361166,2.810904 24.673488,3.825952 24.985811,4.997162" stroke="#000000" stroke-width="0.25" stroke-dasharray="none" stroke-dashoffset="0mm" stroke-linecap="round" stroke-linejoin="round" fill="none"/><polyline points="14.991487,4.997162 15.303809,6.168372 15.616132,7.183421 15.928455,8.042308 16.240777,8.745034 16.5531,9.291599 16.865423,9.682002 17.177745,9.916244 17.490068,9.994324 17.80239,9.916244 18.114713,9.682002 18.427036,9.291599 18.739358,8.745034 19.051681,8.042308 19.364004,7.183421 19.676326,6.168372 19.988649,4.997162" stroke="#000000" stroke-width="0.25" stroke-dasharray="none" stroke-dashoffset="0mm" stroke-linecap="round" stroke-linejoin="round" fill="none"/><polyline points="9.994324,4.997162 10.306647,3.825952 10.61897,2.810904 10.931292,1.952016 11.243615,1.249291 11.555938,0.702726 11.86826,0.312323 12.180583,0.078081 12.492906,0 12.805228,0.078081 13.117551,0.312323 13.429873,0.702726 13.742196,1.249291 14.054519,1.952016 14.366841,2.810904 14.679164,3.825952 14.991487,4.997162" stroke="#000000" stroke-width="0.25" stroke-dasharray="none" stroke-dashoffset="0mm" stroke-linecap="round" stroke-linejoin="round" fill="none"/><polyline points="4.997162,4.997162 5.309485,6.168372 5.621808,7.183421 5.93413,8.042308 6.246453,8.745034 6.558775,9.291599 6.871098,9.682002 7.183421,9.916244 7.495743,9.994324 7.808066,9.916244 8.120389,9.682002 8.432711,9.291599 8.745034,8.745034 9.057357,8.042308 9.369679,7.183421 9.682002,6.168372 9.994324,4.997162" stroke="#000000" stroke-width="0.25" stroke-dasharray="none" stroke-dashoffset="0mm" stroke-linecap="round" stroke-linejoin="round" fill="none"/><polyline points="0,4.997162 0.312323,3.825952 0.624645,2.810904 0.936968,1.952016 1.249291,1.249291 1.561613,0.702726 1.873936,0.312323 2.186258,0.078081 2.498581,0 2.810904,0.078081 3.123226,0.312323 3.435549,0.702726 3.747872,1.249291 4.060194,1.952016 4.372517,2.810904 4.68484,3.825952 4.997162,4.997162" stroke="#000000" stroke-width="0.25" stroke-dasharray="none" stroke-dashoffset="0mm" stroke-linecap="round" stroke-linejoin="round" fill="none"/><polyline points="0,9.994324 47.972757,9.994324" stroke="#000000" stroke-width="0.25" stroke-dasharray="none" stroke-dashoffset="0mm" stroke-linecap="round" stroke-linejoin="round"/><polyline points="0,0 47.972757,0" stroke="#000000" stroke-width="0.25" stroke-dasharray="none" stroke-dashoffset="0mm" stroke-linecap="round" stroke-linejoin="round"/></svg>