<svg xmlns="http://www.w3.org/2000/svg" width="10.0mm" height="42.0mm" viewBox="-5 -1 10 42" style="background-color: #ffffff;"><polyline points="-2.003083,1.058115 -1.536687,0.579079 -1.040378,0.23768 -0.524222,0.033887 0.00171,-0.032328 0.52735,0.039006 1.042631,0.24786 1.537484,0.594204 2.001839,1.078009" stroke="#000000" stroke-width="0.25" stroke-dasharray="none" stroke-dashoffset="0mm" stroke-linecap="round" stroke-linejoin="round" fill="none"/><polyline points="-1.989406,5.268195 -1.989406,0.994703" stroke="#000000" stroke-width="0.25" stroke-dasharray="none" stroke-dashoffset="0mm" stroke-linecap="round" stroke-linejoin="round"/><polyline points="1.988162,5.255761 1.963295,1.071792" stroke="#000000" stroke-width="0.25" stroke-dasharray="none" stroke-dashoffset="0mm" stroke-linecap="round" stroke-linejoin="round"/><polyline points="-4.001192,6.706784 -3.588237,6.294655 -3.143591,5.932256 -2.670998,5.621292 -2.174203,5.363469 -1.65695,5.160489 -1.122985,5.01406 -0.576051,4.925884 -0.019894,4.897668" stroke="#000000" stroke-width="0.25" stroke-dasharray="none" stroke-dashoffset="0mm" stroke-linecap="round" stroke-linejoin="round" fill="none"/><polyline points="-0.019894,4.897668 0.536498,4.930433 1.083216,5.022938 1.616528,5.173494 2.132705,5.38041 2.628016,5.641995 3.098732,5.95656 3.541123,6.322415 3.951457,6.737868" stroke="#000000" stroke-width="0.25" stroke-dasharray="none" stroke-dashoffset="0mm" stroke-linecap="round" stroke-linejoin="round" fill="none"/><polyline points="3.978811,40.036788 3.950214,6.725434" stroke="#000000" stroke-width="0.25" stroke-dasharray="none" stroke-dashoffset="0mm" stroke-linecap="round" stroke-linejoin="round"/><polyline points="-3.978811,40.036788 -4.007409,6.675699" stroke="#000000" stroke-width="0.25" stroke-dasharray="none" stroke-dashoffset="0mm" stroke-linecap="round" stroke-linejoin="round"/><polyline points="-3.978811,40.036788 3.978811,40.036788" stroke="#000000" stroke-width="0.25" stroke-dasharray="none" stroke-dashoffset="0mm" stroke-linecap="round" stroke-linejoin="round"/></svg>