<svg xmlns="http://www.w3.org/2000/svg" width="20.0mm" height="20.0mm" viewBox="-9 -9 20 20" style="background-color: #ffffff;"><polyline points="6.916086,-4.021155 7.231951,-3.420909 7.492901,-2.804311 7.699379,-2.17468 7.851826,-1.535335 7.950683,-0.889596 7.99639,-0.240783 7.989391,0.407785 7.930125,1.052788 7.819034,1.690906 7.65656,2.31882 7.443143,2.93321 7.179225,3.530756 6.865247,4.10814 6.50165,4.662041 6.088877,5.189139 5.627367,5.686115" stroke="#000000" stroke-width="0.25" stroke-dasharray="none" stroke-dashoffset="0mm" stroke-linecap="round" stroke-linejoin="round" fill="none"/><polyline points="5.627367,5.686115 5.125601,6.142526 4.594217,6.549871 4.03654,6.907743 3.455895,7.215737 2.855606,7.473449 2.239,7.680471 1.6094,7.836399 0.970133,7.940828 0.324524,7.99335 -0.324104,7.993562 -0.972423,7.941057 -1.61711,7.83543 -2.254839,7.676275 -2.882285,7.463186 -3.496123,7.195759 -4.093028,6.873587" stroke="#000000" stroke-width="0.25" stroke-dasharray="none" stroke-dashoffset="0mm" stroke-linecap="round" stroke-linejoin="round" fill="none"/><polyline points="-4.093028,6.873587 -4.660627,6.502375 -5.188179,6.090176 -5.674455,5.640107 -6.118224,5.155288 -6.518258,4.638836 -6.873327,4.09387 -7.182202,3.523508 -7.443652,2.930868 -7.656449,2.319068 -7.819362,1.691227 -7.931163,1.050463 -7.990621,0.399893 -7.996508,-0.257364 -7.947594,-0.918189 -7.842649,-1.579464 -7.680443,-2.238072" stroke="#000000" stroke-width="0.25" stroke-dasharray="none" stroke-dashoffset="0mm" stroke-linecap="round" stroke-linejoin="round" fill="none"/><polyline points="-7.680443,-2.238072 -7.463437,-2.880707 -7.196714,-3.494831 -6.882987,-4.078473 -6.524963,-4.629666 -6.125353,-5.146439 -5.686867,-5.626824 -5.212216,-6.06885 -4.704107,-6.47055 -4.165253,-6.829953 -3.598362,-7.145091 -3.006145,-7.413994 -2.391311,-7.634692 -1.75657,-7.805218 -1.104632,-7.9236 -0.438207,-7.987871 0.239994,-7.996061" stroke="#000000" stroke-width="0.25" stroke-dasharray="none" stroke-dashoffset="0mm" stroke-linecap="round" stroke-linejoin="round" fill="none"/><polyline points="6.911711,-4.016155 9.999763,-3.999905" stroke="#000000" stroke-width="0.25" stroke-dasharray="none" stroke-dashoffset="0mm" stroke-linecap="round" stroke-linejoin="round"/><polyline points="0.223745,-7.999811 9.999763,-7.999811" stroke="#000000" stroke-width="0.25" stroke-dasharray="none" stroke-dashoffset="0mm" stroke-linecap="round" stroke-linejoin="round"/><polyline points="9.999763,-3.999905 9.999763,-7.999811" stroke="#000000" stroke-width="0.25" stroke-dasharray="none" stroke-dashoffset="0mm" stroke-linecap="round" stroke-linejoin="round"/><polyline points="7.999811,9.999763 5.656741,5.656741" stroke="#000000" stroke-width="0.25" stroke-dasharray="none" stroke-dashoffset="0mm" stroke-linecap="round" stroke-linejoin="round"/><polyline points="-7.999811,9.999763 -5.656741,5.656741" stroke="#000000" stroke-width="0.25" stroke-dasharray="none" stroke-dashoffset="0mm" stroke-linecap="round" stroke-linejoin="round"/><polyline points="-7.999811,9.999763 7.999811,9.999763" stroke="#000000" stroke-width="0.25" stroke-dasharray="none" stroke-dashoffset="0mm" stroke-linecap="round" stroke-linejoin="round"/><ellipse rx="0.999976" ry="0.999976" stroke="#000000" stroke-width="0.25" stroke-dasharray="none" stroke-dashoffset="0mm" stroke-linecap="round" stroke-linejoin="round" fill="none"/></svg>