<svg xmlns="http://www.w3.org/2000/svg" width="18.0mm" height="6.0mm" viewBox="-9 -3 18 6" style="background-color: #ffffff;"><polyline points="7,2 7,-2" stroke="#000000" stroke-width="0.25" stroke-dasharray="none" stroke-dashoffset="0mm" stroke-linecap="round" stroke-linejoin="round"/><polyline points="-7,2 -7,-2" stroke="#000000" stroke-width="0.25" stroke-dasharray="none" stroke-dashoffset="0mm" stroke-linecap="round" stroke-linejoin="round"/><polyline points="8,2 8,-2" stroke="#000000" stroke-width="0.25" stroke-dasharray="none" stroke-dashoffset="0mm" stroke-linecap="round" stroke-linejoin="round"/><polyline points="-8,2 -8,-2" stroke="#000000" stroke-width="0.25" stroke-dasharray="none" stroke-dashoffset="0mm" stroke-linecap="round" stroke-linejoin="round"/><polyline points="-1.375,0 -1.623047,0.423828 -1.867187,0.757813 -2.107422,1.001953 -2.34375,1.15625" stroke="#000000" stroke-width="0.25" stroke-dasharray="none" stroke-dashoffset="0mm" stroke-linecap="round" stroke-linejoin="round" fill="none"/><polyline points="-2.34375,1.15625 -2.576172,1.240234 -2.804688,1.273438 -3.029297,1.255859 -3.25,1.1875" stroke="#000000" stroke-width="0.25" stroke-dasharray="none" stroke-dashoffset="0mm" stroke-linecap="round" stroke-linejoin="round" fill="none"/><polyline points="-3.25,1.1875 -3.476562,1.042969 -3.71875,0.796875 -3.976562,0.449219 -4.25,0" stroke="#000000" stroke-width="0.25" stroke-dasharray="none" stroke-dashoffset="0mm" stroke-linecap="round" stroke-linejoin="round" fill="none"/><polyline points="4.25,0 4.445312,-0.446016 4.65625,-0.800312 4.882812,-1.062891 5.125,-1.23375" stroke="#000000" stroke-width="0.25" stroke-dasharray="none" stroke-dashoffset="0mm" stroke-linecap="round" stroke-linejoin="round" fill="none"/><polyline points="5.125,-1.23375 5.371094,-1.331406 5.609375,-1.374375 5.839844,-1.362656 6.0625,-1.29625" stroke="#000000" stroke-width="0.25" stroke-dasharray="none" stroke-dashoffset="0mm" stroke-linecap="round" stroke-linejoin="round" fill="none"/><polyline points="6.0625,-1.29625 6.286328,-1.141367 6.520313,-0.864219 6.764453,-0.464805 7.01875,0.056875" stroke="#000000" stroke-width="0.25" stroke-dasharray="none" stroke-dashoffset="0mm" stroke-linecap="round" stroke-linejoin="round" fill="none"/><polyline points="1.375,0 1.154297,-0.418672 0.929688,-0.753437 0.701172,-1.004297 0.46875,-1.17125" stroke="#000000" stroke-width="0.25" stroke-dasharray="none" stroke-dashoffset="0mm" stroke-linecap="round" stroke-linejoin="round" fill="none"/><polyline points="0.46875,-1.17125 0.236328,-1.266953 0.007812,-1.304063 -0.216797,-1.282578 -0.4375,-1.2025" stroke="#000000" stroke-width="0.25" stroke-dasharray="none" stroke-dashoffset="0mm" stroke-linecap="round" stroke-linejoin="round" fill="none"/><polyline points="-0.4375,-1.2025 -0.660156,-1.044297 -0.890625,-0.788438 -1.128906,-0.434922 -1.375,0.01625" stroke="#000000" stroke-width="0.25" stroke-dasharray="none" stroke-dashoffset="0mm" stroke-linecap="round" stroke-linejoin="round" fill="none"/><polyline points="4.25,0 4.001953,0.430937 3.757812,0.77 3.517578,1.017187 3.28125,1.1725" stroke="#000000" stroke-width="0.25" stroke-dasharray="none" stroke-dashoffset="0mm" stroke-linecap="round" stroke-linejoin="round" fill="none"/><polyline points="3.28125,1.1725 3.048828,1.256484 2.820312,1.289687 2.595703,1.272109 2.375,1.20375" stroke="#000000" stroke-width="0.25" stroke-dasharray="none" stroke-dashoffset="0mm" stroke-linecap="round" stroke-linejoin="round" fill="none"/><polyline points="2.375,1.20375 2.148438,1.058203 1.90625,0.809062 1.648438,0.456328 1.375,0" stroke="#000000" stroke-width="0.25" stroke-dasharray="none" stroke-dashoffset="0mm" stroke-linecap="round" stroke-linejoin="round" fill="none"/><polyline points="-7.024375,0.070625 -6.793008,-0.404336 -6.560781,-0.774844 -6.327695,-1.040898 -6.09375,-1.2025" stroke="#000000" stroke-width="0.25" stroke-dasharray="none" stroke-dashoffset="0mm" stroke-linecap="round" stroke-linejoin="round" fill="none"/><polyline points="-6.09375,-1.2025 -5.861328,-1.284531 -5.632812,-1.311875 -5.408203,-1.284531 -5.1875,-1.2025" stroke="#000000" stroke-width="0.25" stroke-dasharray="none" stroke-dashoffset="0mm" stroke-linecap="round" stroke-linejoin="round" fill="none"/><polyline points="-5.1875,-1.2025 -4.964844,-1.044297 -4.734375,-0.788438 -4.496094,-0.434922 -4.25,0.01625" stroke="#000000" stroke-width="0.25" stroke-dasharray="none" stroke-dashoffset="0mm" stroke-linecap="round" stroke-linejoin="round" fill="none"/></svg>