<svg xmlns="http://www.w3.org/2000/svg" width="6.0mm" height="56.0mm" viewBox="-3 -7 6 56" style="background-color: #ffffff;"><polygon points="-1,-2 1,-2 1,2 -1,2" stroke="#000000" stroke-width="0.25" stroke-dasharray="none" stroke-dashoffset="0mm" stroke-linecap="round" stroke-linejoin="round" fill="#000000" transform="translate(0,46)"/><polyline points="-2,-6 2,-6" stroke="#000000" stroke-width="0.25" stroke-dasharray="none" stroke-dashoffset="0mm" stroke-linecap="round" stroke-linejoin="round"/><polyline points="-2,-4 2,-4" stroke="#000000" stroke-width="0.25" stroke-dasharray="none" stroke-dashoffset="0mm" stroke-linecap="round" stroke-linejoin="round"/><polyline points="0,0 0,-4" stroke="#000000" stroke-width="0.25" stroke-dasharray="none" stroke-dashoffset="0mm" stroke-linecap="round" stroke-linejoin="round"/><polygon points="-1,-2 1,-2 1,2 -1,2" stroke="#000000" stroke-width="0.25" stroke-dasharray="none" stroke-dashoffset="0mm" stroke-linecap="round" stroke-linejoin="round" fill="#000000" transform="translate(0,38)"/><polygon points="-1,-2 1,-2 1,2 -1,2" stroke="#000000" stroke-width="0.25" stroke-dasharray="none" stroke-dashoffset="0mm" stroke-linecap="round" stroke-linejoin="round" fill="#000000" transform="translate(0,30)"/><polygon points="-1,-2 1,-2 1,2 -1,2" stroke="#000000" stroke-width="0.25" stroke-dasharray="none" stroke-dashoffset="0mm" stroke-linecap="round" stroke-linejoin="round" fill="#000000" transform="translate(0,22)"/><polygon points="-1,-2 1,-2 1,2 -1,2" stroke="#000000" stroke-width="0.25" stroke-dasharray="none" stroke-dashoffset="0mm" stroke-linecap="round" stroke-linejoin="round" fill="#000000" transform="translate(0,14)"/><polygon points="-1,-2 1,-2 1,2 -1,2" stroke="#000000" stroke-width="0.25" stroke-dasharray="none" stroke-dashoffset="0mm" stroke-linecap="round" stroke-linejoin="round" fill="#000000" transform="translate(0,6)"/><polygon points="-1,-24 1,-24 1,24 -1,24" stroke="#000000" stroke-width="0.25" stroke-dasharray="none" stroke-dashoffset="0mm" stroke-linecap="round" stroke-linejoin="round" fill="none" transform="translate(0,24)"/></svg>