<svg xmlns="http://www.w3.org/2000/svg" width="24.0mm" height="14.0mm" viewBox="-1 -9 24 14" style="background-color: #ffffff;"><polyline points="1.001239,-6.008058 21.000391,-7.993661" stroke="#000000" stroke-width="0.25" stroke-dasharray="none" stroke-dashoffset="0mm" stroke-linecap="round" stroke-linejoin="round"/><polyline points="20.987266,-7.987411 21.239539,-7.991298 21.477807,-7.914912 21.687834,-7.765402 21.855381,-7.549916" stroke="#000000" stroke-width="0.25" stroke-dasharray="none" stroke-dashoffset="0mm" stroke-linecap="round" stroke-linejoin="round" fill="none"/><polyline points="21.855381,-7.549916 21.96248,-7.288727 21.999677,-7.009141 21.966913,-6.728851 21.864131,-6.465553" stroke="#000000" stroke-width="0.25" stroke-dasharray="none" stroke-dashoffset="0mm" stroke-linecap="round" stroke-linejoin="round" fill="none"/><polyline points="21.864131,-6.465553 21.700041,-6.24661 21.492651,-6.092588 21.255847,-6.010988 21.003516,-6.009308" stroke="#000000" stroke-width="0.25" stroke-dasharray="none" stroke-dashoffset="0mm" stroke-linecap="round" stroke-linejoin="round" fill="none"/><polyline points="0.999364,-7.999911 21.014766,-6.008058" stroke="#000000" stroke-width="0.25" stroke-dasharray="none" stroke-dashoffset="0mm" stroke-linecap="round" stroke-linejoin="round"/><polyline points="1.012489,-6.012433 0.760216,-6.008546 0.521947,-6.084932 0.31192,-6.234442 0.144373,-6.449928" stroke="#000000" stroke-width="0.25" stroke-dasharray="none" stroke-dashoffset="0mm" stroke-linecap="round" stroke-linejoin="round" fill="none"/><polyline points="0.144373,-6.449928 0.037275,-6.711117 0.000078,-6.990703 0.032841,-7.270993 0.135623,-7.534291" stroke="#000000" stroke-width="0.25" stroke-dasharray="none" stroke-dashoffset="0mm" stroke-linecap="round" stroke-linejoin="round" fill="none"/><polyline points="0.135623,-7.534291 0.299713,-7.753234 0.507104,-7.907256 0.743908,-7.988856 0.996239,-7.990536" stroke="#000000" stroke-width="0.25" stroke-dasharray="none" stroke-dashoffset="0mm" stroke-linecap="round" stroke-linejoin="round" fill="none"/><polygon points="-10.999877,-3.999955 10.999877,-3.999955 10.999877,3.999955 -10.999877,3.999955" stroke="#000000" stroke-width="0.25" stroke-dasharray="none" stroke-dashoffset="0mm" stroke-linecap="round" stroke-linejoin="round" fill="none" transform="translate(10.999877,0)"/></svg>