<svg xmlns="http://www.w3.org/2000/svg" width="42.0mm" height="52.0mm" viewBox="-21 -1 42 52" style="background-color: #ffffff;"><polyline points="-20,16 -19.960938,16 -19.84375,16 -19.648438,16 -19.375,16 -19.023438,16 -18.59375,16 -18.085938,16 -17.5,16 -16.835938,16 -16.09375,16 -15.273437,16 -14.375,16 -13.398437,16 -12.34375,16 -11.210937,16 -10,16 -8.710937,16 -7.34375,16 -5.898437,16 -4.375,16 -2.773437,16 -1.09375,16 0.664063,16 2.5,16 4.414063,16 6.40625,16 8.476562,16 10.625,16 12.851562,16 15.15625,16 17.539062,16 20,16" stroke="#000000" stroke-width="0.25" stroke-dasharray="none" stroke-dashoffset="0mm" stroke-linecap="round" stroke-linejoin="round" fill="none"/><polyline points="5.9125,0.01375 20,0" stroke="#000000" stroke-width="0.25" stroke-dasharray="none" stroke-dashoffset="0mm" stroke-linecap="round" stroke-linejoin="round"/><polyline points="-20,0 5.9125,0.01375" stroke="#000000" stroke-width="0.25" stroke-dasharray="none" stroke-dashoffset="0mm" stroke-linecap="round" stroke-linejoin="round"/><polyline points="0,50 0.019531,49.966797 0.078125,49.867188 0.175781,49.701172 0.3125,49.46875 0.488281,49.169922 0.703125,48.804688 0.957031,48.373047 1.25,47.875 1.582031,47.310547 1.953125,46.679688 2.363281,45.982422 2.8125,45.21875 3.300781,44.388672 3.828125,43.492188 4.394531,42.529297 5,41.5 5.644531,40.404297 6.328125,39.242188 7.050781,38.013672 7.8125,36.71875 8.613281,35.357422 9.453125,33.929688 10.332031,32.435547 11.25,30.875 12.207031,29.248047 13.203125,27.554687 14.238281,25.794922 15.3125,23.96875 16.425781,22.076172 17.578125,20.117187 18.769531,18.091797 20,16" stroke="#000000" stroke-width="0.25" stroke-dasharray="none" stroke-dashoffset="0mm" stroke-linecap="round" stroke-linejoin="round" fill="none"/><polyline points="-20,16 0,50" stroke="#000000" stroke-width="0.25" stroke-dasharray="none" stroke-dashoffset="0mm" stroke-linecap="round" stroke-linejoin="round"/><polyline points="20,16 20,0" stroke="#000000" stroke-width="0.25" stroke-dasharray="none" stroke-dashoffset="0mm" stroke-linecap="round" stroke-linejoin="round"/><polyline points="-20,16 -20,0" stroke="#000000" stroke-width="0.25" stroke-dasharray="none" stroke-dashoffset="0mm" stroke-linecap="round" stroke-linejoin="round"/></svg>