<svg xmlns="http://www.w3.org/2000/svg" width="14.0mm" height="42.0mm" viewBox="-1 -41 14 42" style="background-color: #ffffff;"><polyline points="5.000247,-3.500173 8.000396,-3.500173" stroke="#000000" stroke-width="0.25" stroke-dasharray="none" stroke-dashoffset="0mm" stroke-linecap="round" stroke-linejoin="round"/><polyline points="5.000247,-8.750433 8.000396,-8.750433" stroke="#000000" stroke-width="0.25" stroke-dasharray="none" stroke-dashoffset="0mm" stroke-linecap="round" stroke-linejoin="round"/><polyline points="5.000247,-15.000742 8.000396,-15.000742" stroke="#000000" stroke-width="0.25" stroke-dasharray="none" stroke-dashoffset="0mm" stroke-linecap="round" stroke-linejoin="round"/><polyline points="5.000247,-21.001039 8.000396,-21.001039" stroke="#000000" stroke-width="0.25" stroke-dasharray="none" stroke-dashoffset="0mm" stroke-linecap="round" stroke-linejoin="round"/><polyline points="4.000198,-36.001781 4.080378,-36.80226 4.310448,-37.548654 4.674704,-38.225084 5.157443,-38.81567 5.74296,-39.304532 6.415552,-39.675791 7.159514,-39.913566 7.959144,-40.001979" stroke="#000000" stroke-width="0.25" stroke-dasharray="none" stroke-dashoffset="0mm" stroke-linecap="round" stroke-linejoin="round" fill="none"/><polyline points="7.959144,-40.001979 8.760419,-39.930032 9.509103,-39.707667 10.189171,-39.350413 10.784596,-38.873798 11.279352,-38.293349 11.657413,-37.624596 11.902752,-36.883065 11.999344,-36.084285" stroke="#000000" stroke-width="0.25" stroke-dasharray="none" stroke-dashoffset="0mm" stroke-linecap="round" stroke-linejoin="round" fill="none"/><polyline points="4.000198,-24.001187 4.000198,-36.001781" stroke="#000000" stroke-width="0.25" stroke-dasharray="none" stroke-dashoffset="0mm" stroke-linecap="round" stroke-linejoin="round"/><polygon points="-4.000198,-12.000594 4.000198,-12.000594 4.000198,12.000594 -4.000198,12.000594" stroke="#000000" stroke-width="0.25" stroke-dasharray="none" stroke-dashoffset="0mm" stroke-linecap="round" stroke-linejoin="round" fill="none" transform="translate(4.000198,-12.000594)"/></svg>