<svg xmlns="http://www.w3.org/2000/svg" width="24.0mm" height="14.0mm" viewBox="-1 -5 24 14" style="background-color: #ffffff;"><polyline points="0.998699,7.994591 20.990173,6.012182" stroke="#000000" stroke-width="0.25" stroke-dasharray="none" stroke-dashoffset="0mm" stroke-linecap="round" stroke-linejoin="round"/><polyline points="20.973309,6.008435 21.225414,6.004551 21.463524,6.080886 21.673412,6.230296 21.840847,6.445639" stroke="#000000" stroke-width="0.25" stroke-dasharray="none" stroke-dashoffset="0mm" stroke-linecap="round" stroke-linejoin="round" fill="none"/><polyline points="21.840847,6.445639 21.947874,6.706654 21.985047,6.986054 21.952305,7.266158 21.849591,7.529281" stroke="#000000" stroke-width="0.25" stroke-dasharray="none" stroke-dashoffset="0mm" stroke-linecap="round" stroke-linejoin="round" fill="none"/><polyline points="21.849591,7.529281 21.68561,7.748078 21.478358,7.901997 21.241712,7.983544 20.989548,7.985222" stroke="#000000" stroke-width="0.25" stroke-dasharray="none" stroke-dashoffset="0mm" stroke-linecap="round" stroke-linejoin="round" fill="none"/><polyline points="0.994952,5.984076 21.000791,8.01083" stroke="#000000" stroke-width="0.25" stroke-dasharray="none" stroke-dashoffset="0mm" stroke-linecap="round" stroke-linejoin="round"/><polyline points="1.011815,7.982099 0.759711,7.985983 0.5216,7.909648 0.311713,7.760238 0.144277,7.544895" stroke="#000000" stroke-width="0.25" stroke-dasharray="none" stroke-dashoffset="0mm" stroke-linecap="round" stroke-linejoin="round" fill="none"/><polyline points="0.144277,7.544895 0.03725,7.28388 0.000078,7.004479 0.03282,6.724376 0.135533,6.461253" stroke="#000000" stroke-width="0.25" stroke-dasharray="none" stroke-dashoffset="0mm" stroke-linecap="round" stroke-linejoin="round" fill="none"/><polyline points="0.135533,6.461253 0.299514,6.242456 0.506766,6.088537 0.743413,6.00699 0.995576,6.005312" stroke="#000000" stroke-width="0.25" stroke-dasharray="none" stroke-dashoffset="0mm" stroke-linecap="round" stroke-linejoin="round" fill="none"/><polygon points="-10.992562,-3.997295 10.992562,-3.997295 10.992562,3.997295 -10.992562,3.997295" stroke="#000000" stroke-width="0.25" stroke-dasharray="none" stroke-dashoffset="0mm" stroke-linecap="round" stroke-linejoin="round" fill="none" transform="translate(10.992562,0)"/></svg>