<svg xmlns="http://www.w3.org/2000/svg" width="114.0mm" height="42.0mm" viewBox="-57 -21 114 42" style="background-color: #ffffff;"><polyline points="39.93125,-15.98625 40.459964,-15.994137 40.983362,-15.928467 41.499908,-15.790946 42.008066,-15.583281 42.5063,-15.307179 42.993074,-14.964346 43.46685,-14.556488 43.926094,-14.085313 44.369268,-13.552526 44.794836,-12.959834 45.201263,-12.308944 45.587012,-11.601563 45.950546,-10.839396 46.29033,-10.02415 46.604826,-9.157533 46.8925,-8.24125" stroke="#000000" stroke-width="0.25" stroke-dasharray="none" stroke-dashoffset="0mm" stroke-linecap="round" stroke-linejoin="round" fill="none"/><polyline points="46.8925,-8.24125 47.372368,-6.306594 47.716914,-4.284004 47.92605,-2.202263 47.999688,-0.090156 47.937739,2.023533 47.740117,4.11002 47.406733,6.14052 46.9375,8.08625" stroke="#000000" stroke-width="0.25" stroke-dasharray="none" stroke-dashoffset="0mm" stroke-linecap="round" stroke-linejoin="round" fill="none"/><polyline points="46.9375,8.08625 46.654849,9.009192 46.3451,9.883103 46.009779,10.706239 45.65041,11.476855 45.26852,12.193206 44.865632,12.853547 44.443274,13.456133 44.002969,13.999219 43.546243,14.481059 43.074622,14.89991 42.58963,15.254025 42.092793,15.54166 41.585636,15.76107 41.069685,15.91051 40.546465,15.988235 40.0175,15.9925" stroke="#000000" stroke-width="0.25" stroke-dasharray="none" stroke-dashoffset="0mm" stroke-linecap="round" stroke-linejoin="round" fill="none"/><polyline points="-39.93125,15.98625 -40.459964,15.994137 -40.983362,15.928467 -41.499908,15.790946 -42.008066,15.583281 -42.5063,15.307179 -42.993074,14.964346 -43.46685,14.556488 -43.926094,14.085313 -44.369268,13.552526 -44.794836,12.959834 -45.201263,12.308944 -45.587012,11.601562 -45.950546,10.839396 -46.29033,10.02415 -46.604826,9.157533 -46.8925,8.24125" stroke="#000000" stroke-width="0.25" stroke-dasharray="none" stroke-dashoffset="0mm" stroke-linecap="round" stroke-linejoin="round" fill="none"/><polyline points="-46.8925,8.24125 -47.372368,6.306594 -47.716914,4.284004 -47.92605,2.202263 -47.999688,0.090156 -47.937739,-2.023533 -47.740117,-4.11002 -47.406733,-6.14052 -46.9375,-8.08625" stroke="#000000" stroke-width="0.25" stroke-dasharray="none" stroke-dashoffset="0mm" stroke-linecap="round" stroke-linejoin="round" fill="none"/><polyline points="-46.9375,-8.08625 -46.654849,-9.009192 -46.3451,-9.883103 -46.009779,-10.706239 -45.65041,-11.476855 -45.26852,-12.193206 -44.865632,-12.853547 -44.443274,-13.456133 -44.002969,-13.999219 -43.546243,-14.481059 -43.074622,-14.89991 -42.58963,-15.254025 -42.092793,-15.54166 -41.585636,-15.76107 -41.069685,-15.91051 -40.546465,-15.988235 -40.0175,-15.9925" stroke="#000000" stroke-width="0.25" stroke-dasharray="none" stroke-dashoffset="0mm" stroke-linecap="round" stroke-linejoin="round" fill="none"/><polyline points="40,16 40,-16" stroke="#000000" stroke-width="0.25" stroke-dasharray="none" stroke-dashoffset="0mm" stroke-linecap="round" stroke-linejoin="round"/><polyline points="-40,16 -40,-16" stroke="#000000" stroke-width="0.25" stroke-dasharray="none" stroke-dashoffset="0mm" stroke-linecap="round" stroke-linejoin="round"/><polyline points="-40,16 40,16" stroke="#000000" stroke-width="0.25" stroke-dasharray="none" stroke-dashoffset="0mm" stroke-linecap="round" stroke-linejoin="round"/><polyline points="-40,-16 40,-16" stroke="#000000" stroke-width="0.25" stroke-dasharray="none" stroke-dashoffset="0mm" stroke-linecap="round" stroke-linejoin="round"/><polyline points="-56,-20 56,-20" stroke="#000000" stroke-width="0.25" stroke-dasharray="none" stroke-dashoffset="0mm" stroke-linecap="round" stroke-linejoin="round"/><polyline points="56,20 56,-20" stroke="#000000" stroke-width="0.25" stroke-dasharray="none" stroke-dashoffset="0mm" stroke-linecap="round" stroke-linejoin="round"/><polyline points="-56,20 -56,-20" stroke="#000000" stroke-width="0.25" stroke-dasharray="none" stroke-dashoffset="0mm" stroke-linecap="round" stroke-linejoin="round"/><polyline points="-56,20 56,20" stroke="#000000" stroke-width="0.25" stroke-dasharray="none" stroke-dashoffset="0mm" stroke-linecap="round" stroke-linejoin="round"/></svg>