<svg xmlns="http://www.w3.org/2000/svg" width="50.0mm" height="38.0mm" viewBox="-1 -17 50 38" style="background-color: #ffffff;"><ellipse rx="2.5" ry="2.5" stroke="#000000" stroke-width="0.25" stroke-dasharray="none" stroke-dashoffset="0mm" stroke-linecap="round" stroke-linejoin="round" fill="none" transform="translate(24,-13.5)"/><polyline points="24,6 24.60833,4.64167 25.12082,3.31668 25.537471,2.025029 25.858281,0.766719 26.083252,-0.458252 26.212383,-1.649883 26.245674,-2.808174 26.183125,-3.933125 26.024736,-5.024736 25.770508,-6.083008 25.420439,-7.107939 24.974531,-8.099531 24.432783,-9.057783 23.795195,-9.982695 23.061768,-10.874268 22.2325,-11.7325" stroke="#000000" stroke-width="0.25" stroke-dasharray="none" stroke-dashoffset="0mm" stroke-linecap="round" stroke-linejoin="round" fill="none"/><polyline points="8,0 10,1.40625 12,2.625 14,3.65625 16,4.5 18,5.15625 20,5.625 22,5.90625 24,6 26,5.90625 28,5.625 30,5.15625 32,4.5 34,3.65625 36,2.625 38,1.40625 40,0" stroke="#000000" stroke-width="0.25" stroke-dasharray="none" stroke-dashoffset="0mm" stroke-linecap="round" stroke-linejoin="round" fill="none"/><polyline points="40,0 48,0" stroke="#000000" stroke-width="0.25" stroke-dasharray="none" stroke-dashoffset="0mm" stroke-linecap="round" stroke-linejoin="round"/><polyline points="0,0 8,0" stroke="#000000" stroke-width="0.25" stroke-dasharray="none" stroke-dashoffset="0mm" stroke-linecap="round" stroke-linejoin="round"/><polyline points="4,2 0,2" stroke="#000000" stroke-width="0.25" stroke-dasharray="none" stroke-dashoffset="0mm" stroke-linecap="round" stroke-linejoin="round"/><polyline points="48,2 44,2" stroke="#000000" stroke-width="0.25" stroke-dasharray="none" stroke-dashoffset="0mm" stroke-linecap="round" stroke-linejoin="round"/><polyline points="44,20 44,2" stroke="#000000" stroke-width="0.25" stroke-dasharray="none" stroke-dashoffset="0mm" stroke-linecap="round" stroke-linejoin="round"/><polyline points="4,20 4,2" stroke="#000000" stroke-width="0.25" stroke-dasharray="none" stroke-dashoffset="0mm" stroke-linecap="round" stroke-linejoin="round"/><polyline points="4,20 44,20" stroke="#000000" stroke-width="0.25" stroke-dasharray="none" stroke-dashoffset="0mm" stroke-linecap="round" stroke-linejoin="round"/></svg>