<svg xmlns="http://www.w3.org/2000/svg" width="14.0mm" height="18.0mm" viewBox="-5 -17 14 18" style="background-color: #ffffff;"><polyline points="0,-3.007364 4.009819,-1.002455" stroke="#000000" stroke-width="0.25" stroke-dasharray="none" stroke-dashoffset="0mm" stroke-linecap="round" stroke-linejoin="round"/><polyline points="-4.009819,-1.002455 0,-3.007364" stroke="#000000" stroke-width="0.25" stroke-dasharray="none" stroke-dashoffset="0mm" stroke-linecap="round" stroke-linejoin="round"/><polyline points="0,-6.014728 4.009819,-4.009819" stroke="#000000" stroke-width="0.25" stroke-dasharray="none" stroke-dashoffset="0mm" stroke-linecap="round" stroke-linejoin="round"/><polyline points="-4.009819,-4.009819 0,-6.014728" stroke="#000000" stroke-width="0.25" stroke-dasharray="none" stroke-dashoffset="0mm" stroke-linecap="round" stroke-linejoin="round"/><polyline points="-0.030074,-12.654737 0.219895,-13.381159 0.564204,-14.038124 0.992169,-14.616733 1.493109,-15.108088 2.05634,-15.503289 2.671179,-15.793438 3.326944,-15.969636 4.012951,-16.022984" stroke="#000000" stroke-width="0.25" stroke-dasharray="none" stroke-dashoffset="0mm" stroke-linecap="round" stroke-linejoin="round" fill="none"/><polyline points="4.012951,-16.022984 4.697588,-15.948165 5.348927,-15.751479 5.956522,-15.442165 6.509925,-15.029458 6.998686,-14.522594 7.412359,-13.93081 7.740495,-13.263344 7.972647,-12.52943" stroke="#000000" stroke-width="0.25" stroke-dasharray="none" stroke-dashoffset="0mm" stroke-linecap="round" stroke-linejoin="round" fill="none"/><polyline points="0,-8.019637 -0.020049,-12.657869" stroke="#000000" stroke-width="0.25" stroke-dasharray="none" stroke-dashoffset="0mm" stroke-linecap="round" stroke-linejoin="round"/><polyline points="-4.009819,-8.019637 4.009819,-8.019637" stroke="#000000" stroke-width="0.25" stroke-dasharray="none" stroke-dashoffset="0mm" stroke-linecap="round" stroke-linejoin="round"/><polyline points="4.009819,0 4.009819,-8.019637" stroke="#000000" stroke-width="0.25" stroke-dasharray="none" stroke-dashoffset="0mm" stroke-linecap="round" stroke-linejoin="round"/><polyline points="-4.009819,0 -4.009819,-8.019637" stroke="#000000" stroke-width="0.25" stroke-dasharray="none" stroke-dashoffset="0mm" stroke-linecap="round" stroke-linejoin="round"/><polyline points="-4.009819,0 4.009819,0" stroke="#000000" stroke-width="0.25" stroke-dasharray="none" stroke-dashoffset="0mm" stroke-linecap="round" stroke-linejoin="round"/></svg>