<svg xmlns="http://www.w3.org/2000/svg" width="100.0mm" height="42.0mm" viewBox="-9.5 -10.5 50 21" style="background-color: #ffffff;"><polyline points="-9,-10.5 -9,10.5" stroke="#b4b4b4" stroke-width="0.05" stroke-dasharray="none" stroke-dashoffset="0mm" stroke-linecap="round" stroke-linejoin="round"/><polyline points="-8,-10.5 -8,10.5" stroke="#b4b4b4" stroke-width="0.05" stroke-dasharray="none" stroke-dashoffset="0mm" stroke-linecap="round" stroke-linejoin="round"/><polyline points="-7,-10.5 -7,10.5" stroke="#b4b4b4" stroke-width="0.05" stroke-dasharray="none" stroke-dashoffset="0mm" stroke-linecap="round" stroke-linejoin="round"/><polyline points="-6,-10.5 -6,10.5" stroke="#b4b4b4" stroke-width="0.05" stroke-dasharray="none" stroke-dashoffset="0mm" stroke-linecap="round" stroke-linejoin="round"/><polyline points="-5,-10.5 -5,10.5" stroke="#b4b4b4" stroke-width="0.05" stroke-dasharray="none" stroke-dashoffset="0mm" stroke-linecap="round" stroke-linejoin="round"/><polyline points="-4,-10.5 -4,10.5" stroke="#b4b4b4" stroke-width="0.05" stroke-dasharray="none" stroke-dashoffset="0mm" stroke-linecap="round" stroke-linejoin="round"/><polyline points="-3,-10.5 -3,10.5" stroke="#b4b4b4" stroke-width="0.05" stroke-dasharray="none" stroke-dashoffset="0mm" stroke-linecap="round" stroke-linejoin="round"/><polyline points="-2,-10.5 -2,10.5" stroke="#b4b4b4" stroke-width="0.05" stroke-dasharray="none" stroke-dashoffset="0mm" stroke-linecap="round" stroke-linejoin="round"/><polyline points="-1,-10.5 -1,10.5" stroke="#b4b4b4" stroke-width="0.05" stroke-dasharray="none" stroke-dashoffset="0mm" stroke-linecap="round" stroke-linejoin="round"/><polyline points="0,-10.5 0,10.5" stroke="#b4b4b4" stroke-width="0.05" stroke-dasharray="none" stroke-dashoffset="0mm" stroke-linecap="round" stroke-linejoin="round"/><polyline points="1,-10.5 1,10.5" stroke="#b4b4b4" stroke-width="0.05" stroke-dasharray="none" stroke-dashoffset="0mm" stroke-linecap="round" stroke-linejoin="round"/><polyline points="2,-10.5 2,10.5" stroke="#b4b4b4" stroke-width="0.05" stroke-dasharray="none" stroke-dashoffset="0mm" stroke-linecap="round" stroke-linejoin="round"/><polyline points="3,-10.5 3,10.5" stroke="#b4b4b4" stroke-width="0.05" stroke-dasharray="none" stroke-dashoffset="0mm" stroke-linecap="round" stroke-linejoin="round"/><polyline points="4,-10.5 4,10.5" stroke="#b4b4b4" stroke-width="0.05" stroke-dasharray="none" stroke-dashoffset="0mm" stroke-linecap="round" stroke-linejoin="round"/><polyline points="5,-10.5 5,10.5" stroke="#b4b4b4" stroke-width="0.05" stroke-dasharray="none" stroke-dashoffset="0mm" stroke-linecap="round" stroke-linejoin="round"/><polyline points="6,-10.5 6,10.5" stroke="#b4b4b4" stroke-width="0.05" stroke-dasharray="none" stroke-dashoffset="0mm" stroke-linecap="round" stroke-linejoin="round"/><polyline points="7,-10.5 7,10.5" stroke="#b4b4b4" stroke-width="0.05" stroke-dasharray="none" stroke-dashoffset="0mm" stroke-linecap="round" stroke-linejoin="round"/><polyline points="8,-10.5 8,10.5" stroke="#b4b4b4" stroke-width="0.05" stroke-dasharray="none" stroke-dashoffset="0mm" stroke-linecap="round" stroke-linejoin="round"/><polyline points="9,-10.5 9,10.5" stroke="#b4b4b4" stroke-width="0.05" stroke-dasharray="none" stroke-dashoffset="0mm" stroke-linecap="round" stroke-linejoin="round"/><polyline points="10,-10.5 10,10.5" stroke="#b4b4b4" stroke-width="0.05" stroke-dasharray="none" stroke-dashoffset="0mm" stroke-linecap="round" stroke-linejoin="round"/><polyline points="11,-10.5 11,10.5" stroke="#b4b4b4" stroke-width="0.05" stroke-dasharray="none" stroke-dashoffset="0mm" stroke-linecap="round" stroke-linejoin="round"/><polyline points="12,-10.5 12,10.5" stroke="#b4b4b4" stroke-width="0.05" stroke-dasharray="none" stroke-dashoffset="0mm" stroke-linecap="round" stroke-linejoin="round"/><polyline points="13,-10.5 13,10.5" stroke="#b4b4b4" stroke-width="0.05" stroke-dasharray="none" stroke-dashoffset="0mm" stroke-linecap="round" stroke-linejoin="round"/><polyline points="14,-10.5 14,10.5" stroke="#b4b4b4" stroke-width="0.05" stroke-dasharray="none" stroke-dashoffset="0mm" stroke-linecap="round" stroke-linejoin="round"/><polyline points="15,-10.5 15,10.5" stroke="#b4b4b4" stroke-width="0.05" stroke-dasharray="none" stroke-dashoffset="0mm" stroke-linecap="round" stroke-linejoin="round"/><polyline points="16,-10.5 16,10.5" stroke="#b4b4b4" stroke-width="0.05" stroke-dasharray="none" stroke-dashoffset="0mm" stroke-linecap="round" stroke-linejoin="round"/><polyline points="17,-10.5 17,10.5" stroke="#b4b4b4" stroke-width="0.05" stroke-dasharray="none" stroke-dashoffset="0mm" stroke-linecap="round" stroke-linejoin="round"/><polyline points="18,-10.5 18,10.5" stroke="#b4b4b4" stroke-width="0.05" stroke-dasharray="none" stroke-dashoffset="0mm" stroke-linecap="round" stroke-linejoin="round"/><polyline points="19,-10.5 19,10.5" stroke="#b4b4b4" stroke-width="0.05" stroke-dasharray="none" stroke-dashoffset="0mm" stroke-linecap="round" stroke-linejoin="round"/><polyline points="20,-10.5 20,10.5" stroke="#b4b4b4" stroke-width="0.05" stroke-dasharray="none" stroke-dashoffset="0mm" stroke-linecap="round" stroke-linejoin="round"/><polyline points="21,-10.5 21,10.5" stroke="#b4b4b4" stroke-width="0.05" stroke-dasharray="none" stroke-dashoffset="0mm" stroke-linecap="round" stroke-linejoin="round"/><polyline points="22,-10.5 22,10.5" stroke="#b4b4b4" stroke-width="0.05" stroke-dasharray="none" stroke-dashoffset="0mm" stroke-linecap="round" stroke-linejoin="round"/><polyline points="23,-10.5 23,10.5" stroke="#b4b4b4" stroke-width="0.05" stroke-dasharray="none" stroke-dashoffset="0mm" stroke-linecap="round" stroke-linejoin="round"/><polyline points="24,-10.5 24,10.5" stroke="#b4b4b4" stroke-width="0.05" stroke-dasharray="none" stroke-dashoffset="0mm" stroke-linecap="round" stroke-linejoin="round"/><polyline points="25,-10.5 25,10.5" stroke="#b4b4b4" stroke-width="0.05" stroke-dasharray="none" stroke-dashoffset="0mm" stroke-linecap="round" stroke-linejoin="round"/><polyline points="26,-10.5 26,10.5" stroke="#b4b4b4" stroke-width="0.05" stroke-dasharray="none" stroke-dashoffset="0mm" stroke-linecap="round" stroke-linejoin="round"/><polyline points="27,-10.5 27,10.5" stroke="#b4b4b4" stroke-width="0.05" stroke-dasharray="none" stroke-dashoffset="0mm" stroke-linecap="round" stroke-linejoin="round"/><polyline points="28,-10.5 28,10.5" stroke="#b4b4b4" stroke-width="0.05" stroke-dasharray="none" stroke-dashoffset="0mm" stroke-linecap="round" stroke-linejoin="round"/><polyline points="29,-10.5 29,10.5" stroke="#b4b4b4" stroke-width="0.05" stroke-dasharray="none" stroke-dashoffset="0mm" stroke-linecap="round" stroke-linejoin="round"/><polyline points="30,-10.5 30,10.5" stroke="#b4b4b4" stroke-width="0.05" stroke-dasharray="none" stroke-dashoffset="0mm" stroke-linecap="round" stroke-linejoin="round"/><polyline points="31,-10.5 31,10.5" stroke="#b4b4b4" stroke-width="0.05" stroke-dasharray="none" stroke-dashoffset="0mm" stroke-linecap="round" stroke-linejoin="round"/><polyline points="32,-10.5 32,10.5" stroke="#b4b4b4" stroke-width="0.05" stroke-dasharray="none" stroke-dashoffset="0mm" stroke-linecap="round" stroke-linejoin="round"/><polyline points="33,-10.5 33,10.5" stroke="#b4b4b4" stroke-width="0.05" stroke-dasharray="none" stroke-dashoffset="0mm" stroke-linecap="round" stroke-linejoin="round"/><polyline points="34,-10.5 34,10.5" stroke="#b4b4b4" stroke-width="0.05" stroke-dasharray="none" stroke-dashoffset="0mm" stroke-linecap="round" stroke-linejoin="round"/><polyline points="35,-10.5 35,10.5" stroke="#b4b4b4" stroke-width="0.05" stroke-dasharray="none" stroke-dashoffset="0mm" stroke-linecap="round" stroke-linejoin="round"/><polyline points="36,-10.5 36,10.5" stroke="#b4b4b4" stroke-width="0.05" stroke-dasharray="none" stroke-dashoffset="0mm" stroke-linecap="round" stroke-linejoin="round"/><polyline points="37,-10.5 37,10.5" stroke="#b4b4b4" stroke-width="0.05" stroke-dasharray="none" stroke-dashoffset="0mm" stroke-linecap="round" stroke-linejoin="round"/><polyline points="38,-10.5 38,10.5" stroke="#b4b4b4" stroke-width="0.05" stroke-dasharray="none" stroke-dashoffset="0mm" stroke-linecap="round" stroke-linejoin="round"/><polyline points="39,-10.5 39,10.5" stroke="#b4b4b4" stroke-width="0.05" stroke-dasharray="none" stroke-dashoffset="0mm" stroke-linecap="round" stroke-linejoin="round"/><polyline points="40,-10.5 40,10.5" stroke="#b4b4b4" stroke-width="0.05" stroke-dasharray="none" stroke-dashoffset="0mm" stroke-linecap="round" stroke-linejoin="round"/><polyline points="-9.5,-10 40.5,-10" stroke="#b4b4b4" stroke-width="0.05" stroke-dasharray="none" stroke-dashoffset="0mm" stroke-linecap="round" stroke-linejoin="round"/><polyline points="-9.5,-9 40.5,-9" stroke="#b4b4b4" stroke-width="0.05" stroke-dasharray="none" stroke-dashoffset="0mm" stroke-linecap="round" stroke-linejoin="round"/><polyline points="-9.5,-8 40.5,-8" stroke="#b4b4b4" stroke-width="0.05" stroke-dasharray="none" stroke-dashoffset="0mm" stroke-linecap="round" stroke-linejoin="round"/><polyline points="-9.5,-7 40.5,-7" stroke="#b4b4b4" stroke-width="0.05" stroke-dasharray="none" stroke-dashoffset="0mm" stroke-linecap="round" stroke-linejoin="round"/><polyline points="-9.5,-6 40.5,-6" stroke="#b4b4b4" stroke-width="0.05" stroke-dasharray="none" stroke-dashoffset="0mm" stroke-linecap="round" stroke-linejoin="round"/><polyline points="-9.5,-5 40.5,-5" stroke="#b4b4b4" stroke-width="0.05" stroke-dasharray="none" stroke-dashoffset="0mm" stroke-linecap="round" stroke-linejoin="round"/><polyline points="-9.5,-4 40.5,-4" stroke="#b4b4b4" stroke-width="0.05" stroke-dasharray="none" stroke-dashoffset="0mm" stroke-linecap="round" stroke-linejoin="round"/><polyline points="-9.5,-3 40.5,-3" stroke="#b4b4b4" stroke-width="0.05" stroke-dasharray="none" stroke-dashoffset="0mm" stroke-linecap="round" stroke-linejoin="round"/><polyline points="-9.5,-2 40.5,-2" stroke="#b4b4b4" stroke-width="0.05" stroke-dasharray="none" stroke-dashoffset="0mm" stroke-linecap="round" stroke-linejoin="round"/><polyline points="-9.5,-1 40.5,-1" stroke="#b4b4b4" stroke-width="0.05" stroke-dasharray="none" stroke-dashoffset="0mm" stroke-linecap="round" stroke-linejoin="round"/><polyline points="-9.5,0 40.5,0" stroke="#b4b4b4" stroke-width="0.05" stroke-dasharray="none" stroke-dashoffset="0mm" stroke-linecap="round" stroke-linejoin="round"/><polyline points="-9.5,1 40.5,1" stroke="#b4b4b4" stroke-width="0.05" stroke-dasharray="none" stroke-dashoffset="0mm" stroke-linecap="round" stroke-linejoin="round"/><polyline points="-9.5,2 40.5,2" stroke="#b4b4b4" stroke-width="0.05" stroke-dasharray="none" stroke-dashoffset="0mm" stroke-linecap="round" stroke-linejoin="round"/><polyline points="-9.5,3 40.5,3" stroke="#b4b4b4" stroke-width="0.05" stroke-dasharray="none" stroke-dashoffset="0mm" stroke-linecap="round" stroke-linejoin="round"/><polyline points="-9.5,4 40.5,4" stroke="#b4b4b4" stroke-width="0.05" stroke-dasharray="none" stroke-dashoffset="0mm" stroke-linecap="round" stroke-linejoin="round"/><polyline points="-9.5,5 40.5,5" stroke="#b4b4b4" stroke-width="0.05" stroke-dasharray="none" stroke-dashoffset="0mm" stroke-linecap="round" stroke-linejoin="round"/><polyline points="-9.5,6 40.5,6" stroke="#b4b4b4" stroke-width="0.05" stroke-dasharray="none" stroke-dashoffset="0mm" stroke-linecap="round" stroke-linejoin="round"/><polyline points="-9.5,7 40.5,7" stroke="#b4b4b4" stroke-width="0.05" stroke-dasharray="none" stroke-dashoffset="0mm" stroke-linecap="round" stroke-linejoin="round"/><polyline points="-9.5,8 40.5,8" stroke="#b4b4b4" stroke-width="0.05" stroke-dasharray="none" stroke-dashoffset="0mm" stroke-linecap="round" stroke-linejoin="round"/><polyline points="-9.5,9 40.5,9" stroke="#b4b4b4" stroke-width="0.05" stroke-dasharray="none" stroke-dashoffset="0mm" stroke-linecap="round" stroke-linejoin="round"/><polyline points="-9.5,10 40.5,10" stroke="#b4b4b4" stroke-width="0.05" stroke-dasharray="none" stroke-dashoffset="0mm" stroke-linecap="round" stroke-linejoin="round"/><polyline points="-5,-10.5 -5,10.5" stroke="#b4b4b4" stroke-width="0.08" stroke-dasharray="none" stroke-dashoffset="0mm" stroke-linecap="round" stroke-linejoin="round"/><polyline points="0,-10.5 0,10.5" stroke="#b4b4b4" stroke-width="0.08" stroke-dasharray="none" stroke-dashoffset="0mm" stroke-linecap="round" stroke-linejoin="round"/><polyline points="5,-10.5 5,10.5" stroke="#b4b4b4" stroke-width="0.08" stroke-dasharray="none" stroke-dashoffset="0mm" stroke-linecap="round" stroke-linejoin="round"/><polyline points="10,-10.5 10,10.5" stroke="#b4b4b4" stroke-width="0.08" stroke-dasharray="none" stroke-dashoffset="0mm" stroke-linecap="round" stroke-linejoin="round"/><polyline points="15,-10.5 15,10.5" stroke="#b4b4b4" stroke-width="0.08" stroke-dasharray="none" stroke-dashoffset="0mm" stroke-linecap="round" stroke-linejoin="round"/><polyline points="20,-10.5 20,10.5" stroke="#b4b4b4" stroke-width="0.08" stroke-dasharray="none" stroke-dashoffset="0mm" stroke-linecap="round" stroke-linejoin="round"/><polyline points="25,-10.5 25,10.5" stroke="#b4b4b4" stroke-width="0.08" stroke-dasharray="none" stroke-dashoffset="0mm" stroke-linecap="round" stroke-linejoin="round"/><polyline points="30,-10.5 30,10.5" stroke="#b4b4b4" stroke-width="0.08" stroke-dasharray="none" stroke-dashoffset="0mm" stroke-linecap="round" stroke-linejoin="round"/><polyline points="35,-10.5 35,10.5" stroke="#b4b4b4" stroke-width="0.08" stroke-dasharray="none" stroke-dashoffset="0mm" stroke-linecap="round" stroke-linejoin="round"/><polyline points="40,-10.5 40,10.5" stroke="#b4b4b4" stroke-width="0.08" stroke-dasharray="none" stroke-dashoffset="0mm" stroke-linecap="round" stroke-linejoin="round"/><polyline points="-9.5,-10 40.5,-10" stroke="#b4b4b4" stroke-width="0.08" stroke-dasharray="none" stroke-dashoffset="0mm" stroke-linecap="round" stroke-linejoin="round"/><polyline points="-9.5,-5 40.5,-5" stroke="#b4b4b4" stroke-width="0.08" stroke-dasharray="none" stroke-dashoffset="0mm" stroke-linecap="round" stroke-linejoin="round"/><polyline points="-9.5,0 40.5,0" stroke="#b4b4b4" stroke-width="0.08" stroke-dasharray="none" stroke-dashoffset="0mm" stroke-linecap="round" stroke-linejoin="round"/><polyline points="-9.5,5 40.5,5" stroke="#b4b4b4" stroke-width="0.08" stroke-dasharray="none" stroke-dashoffset="0mm" stroke-linecap="round" stroke-linejoin="round"/><polyline points="-9.5,10 40.5,10" stroke="#b4b4b4" stroke-width="0.08" stroke-dasharray="none" stroke-dashoffset="0mm" stroke-linecap="round" stroke-linejoin="round"/><polyline points="-1.003309,5.016547 -1.003309,-5.016547" stroke="#000000" stroke-width="0.25" stroke-dasharray="none" stroke-dashoffset="0mm" stroke-linecap="round" stroke-linejoin="round"/><polygon points="1.512803,-3.997561 0.902997,-3.91635 0.335041,-3.683429 -0.178904,-3.314871 -0.626677,-2.826746 -0.996114,-2.235125 -1.275055,-1.55608 -1.451339,-0.805681 -1.512803,0 -1.512803,0 -1.451339,0.805681 -1.275055,1.55608 -0.996114,2.235125 -0.626677,2.826746 -0.178904,3.314871 0.335041,3.683429 0.902997,3.91635 1.512803,3.997561" stroke="#000000" stroke-width="0.25" stroke-dasharray="none" stroke-dashoffset="0mm" stroke-linecap="round" stroke-linejoin="round" fill="none" transform="translate(-2.499808,-0.015049)"/><polyline points="0,5.016547 0,-5.016547" stroke="#000000" stroke-width="0.25" stroke-dasharray="none" stroke-dashoffset="0mm" stroke-linecap="round" stroke-linejoin="round"/><polyline points="34.112523,-4.013238 34.342284,-3.966208 34.529915,-3.825117 34.675414,-3.589967 34.778783,-3.260756 34.84002,-2.837485 34.859126,-2.320153 34.836101,-1.708761 34.770944,-1.003309" stroke="#000000" stroke-width="0.25" stroke-dasharray="none" stroke-dashoffset="0mm" stroke-linecap="round" stroke-linejoin="round" fill="none"/><polyline points="34.770944,-1.003309 34.613687,-0.313534 34.31436,0.250827 33.872963,0.689775 33.289495,1.003309 32.563958,1.19143 31.69635,1.254137 30.686671,1.19143 29.534923,1.003309" stroke="#000000" stroke-width="0.25" stroke-dasharray="none" stroke-dashoffset="0mm" stroke-linecap="round" stroke-linejoin="round" fill="none"/><polyline points="29.534923,1.003309 28.961621,0.877773 28.464498,0.751992 28.043553,0.625966 27.698788,0.499695 27.430202,0.373179 27.237795,0.246418 27.121567,0.119412 27.081518,-0.007838 27.117648,-0.135334 27.229957,-0.263075 27.418445,-0.39106 27.683112,-0.519291 28.023958,-0.647767 28.440983,-0.776487 28.934187,-0.905453 29.50357,-1.034663" stroke="#000000" stroke-width="0.25" stroke-dasharray="none" stroke-dashoffset="0mm" stroke-linecap="round" stroke-linejoin="round" fill="none"/><polyline points="29.50357,-1.034663 30.648459,-1.229642 31.653239,-1.297248 32.517907,-1.23748 33.242465,-1.05034 33.826913,-0.735826 34.271249,-0.293938 34.575475,0.275322 34.739591,0.971956" stroke="#000000" stroke-width="0.25" stroke-dasharray="none" stroke-dashoffset="0mm" stroke-linecap="round" stroke-linejoin="round" fill="none"/><polyline points="34.739591,0.971956 34.811116,1.684757 34.83757,2.302517 34.818954,2.825237 34.755268,3.252917 34.646511,3.585558 34.492683,3.823158 34.293785,3.965718 34.049816,4.013238" stroke="#000000" stroke-width="0.25" stroke-dasharray="none" stroke-dashoffset="0mm" stroke-linecap="round" stroke-linejoin="round" fill="none"/><polyline points="0,4.014492 34.112523,4.013238" stroke="#000000" stroke-width="0.25" stroke-dasharray="none" stroke-dashoffset="0mm" stroke-linecap="round" stroke-linejoin="round"/><polyline points="0,-4.013238 34.112523,-4.013238" stroke="#000000" stroke-width="0.25" stroke-dasharray="none" stroke-dashoffset="0mm" stroke-linecap="round" stroke-linejoin="round"/><ellipse rx="1" ry="1" stroke="#ff0000" stroke-width="0.125" stroke-dasharray="none" stroke-dashoffset="0mm" stroke-linecap="round" stroke-linejoin="round" fill="none"/><ellipse rx="1" ry="1" stroke="#ff4040" stroke-width="0" stroke-dasharray="none" stroke-dashoffset="0mm" stroke-linecap="round" stroke-linejoin="round" fill="#ff4040" transform="translate(17.5,-0.5)"/><text fill="#0000ff" font-size="3.3px" font-family="Arial" text-anchor="middle" transform="translate(17.5,1.15)">A</text></svg>