<svg xmlns="http://www.w3.org/2000/svg" width="102.0mm" height="122.0mm" viewBox="-25.5 -5.5 51 61" style="background-color: #ffffff;"><polyline points="-25,-5.5 -25,55.5" stroke="#b4b4b4" stroke-width="0.05" stroke-dasharray="none" stroke-dashoffset="0mm" stroke-linecap="round" stroke-linejoin="round"/><polyline points="-24,-5.5 -24,55.5" stroke="#b4b4b4" stroke-width="0.05" stroke-dasharray="none" stroke-dashoffset="0mm" stroke-linecap="round" stroke-linejoin="round"/><polyline points="-23,-5.5 -23,55.5" stroke="#b4b4b4" stroke-width="0.05" stroke-dasharray="none" stroke-dashoffset="0mm" stroke-linecap="round" stroke-linejoin="round"/><polyline points="-22,-5.5 -22,55.5" stroke="#b4b4b4" stroke-width="0.05" stroke-dasharray="none" stroke-dashoffset="0mm" stroke-linecap="round" stroke-linejoin="round"/><polyline points="-21,-5.5 -21,55.5" stroke="#b4b4b4" stroke-width="0.05" stroke-dasharray="none" stroke-dashoffset="0mm" stroke-linecap="round" stroke-linejoin="round"/><polyline points="-20,-5.5 -20,55.5" stroke="#b4b4b4" stroke-width="0.05" stroke-dasharray="none" stroke-dashoffset="0mm" stroke-linecap="round" stroke-linejoin="round"/><polyline points="-19,-5.5 -19,55.5" stroke="#b4b4b4" stroke-width="0.05" stroke-dasharray="none" stroke-dashoffset="0mm" stroke-linecap="round" stroke-linejoin="round"/><polyline points="-18,-5.5 -18,55.5" stroke="#b4b4b4" stroke-width="0.05" stroke-dasharray="none" stroke-dashoffset="0mm" stroke-linecap="round" stroke-linejoin="round"/><polyline points="-17,-5.5 -17,55.5" stroke="#b4b4b4" stroke-width="0.05" stroke-dasharray="none" stroke-dashoffset="0mm" stroke-linecap="round" stroke-linejoin="round"/><polyline points="-16,-5.5 -16,55.5" stroke="#b4b4b4" stroke-width="0.05" stroke-dasharray="none" stroke-dashoffset="0mm" stroke-linecap="round" stroke-linejoin="round"/><polyline points="-15,-5.5 -15,55.5" stroke="#b4b4b4" stroke-width="0.05" stroke-dasharray="none" stroke-dashoffset="0mm" stroke-linecap="round" stroke-linejoin="round"/><polyline points="-14,-5.5 -14,55.5" stroke="#b4b4b4" stroke-width="0.05" stroke-dasharray="none" stroke-dashoffset="0mm" stroke-linecap="round" stroke-linejoin="round"/><polyline points="-13,-5.5 -13,55.5" stroke="#b4b4b4" stroke-width="0.05" stroke-dasharray="none" stroke-dashoffset="0mm" stroke-linecap="round" stroke-linejoin="round"/><polyline points="-12,-5.5 -12,55.5" stroke="#b4b4b4" stroke-width="0.05" stroke-dasharray="none" stroke-dashoffset="0mm" stroke-linecap="round" stroke-linejoin="round"/><polyline points="-11,-5.5 -11,55.5" stroke="#b4b4b4" stroke-width="0.05" stroke-dasharray="none" stroke-dashoffset="0mm" stroke-linecap="round" stroke-linejoin="round"/><polyline points="-10,-5.5 -10,55.5" stroke="#b4b4b4" stroke-width="0.05" stroke-dasharray="none" stroke-dashoffset="0mm" stroke-linecap="round" stroke-linejoin="round"/><polyline points="-9,-5.5 -9,55.5" stroke="#b4b4b4" stroke-width="0.05" stroke-dasharray="none" stroke-dashoffset="0mm" stroke-linecap="round" stroke-linejoin="round"/><polyline points="-8,-5.5 -8,55.5" stroke="#b4b4b4" stroke-width="0.05" stroke-dasharray="none" stroke-dashoffset="0mm" stroke-linecap="round" stroke-linejoin="round"/><polyline points="-7,-5.5 -7,55.5" stroke="#b4b4b4" stroke-width="0.05" stroke-dasharray="none" stroke-dashoffset="0mm" stroke-linecap="round" stroke-linejoin="round"/><polyline points="-6,-5.5 -6,55.5" stroke="#b4b4b4" stroke-width="0.05" stroke-dasharray="none" stroke-dashoffset="0mm" stroke-linecap="round" stroke-linejoin="round"/><polyline points="-5,-5.5 -5,55.5" stroke="#b4b4b4" stroke-width="0.05" stroke-dasharray="none" stroke-dashoffset="0mm" stroke-linecap="round" stroke-linejoin="round"/><polyline points="-4,-5.5 -4,55.5" stroke="#b4b4b4" stroke-width="0.05" stroke-dasharray="none" stroke-dashoffset="0mm" stroke-linecap="round" stroke-linejoin="round"/><polyline points="-3,-5.5 -3,55.5" stroke="#b4b4b4" stroke-width="0.05" stroke-dasharray="none" stroke-dashoffset="0mm" stroke-linecap="round" stroke-linejoin="round"/><polyline points="-2,-5.5 -2,55.5" stroke="#b4b4b4" stroke-width="0.05" stroke-dasharray="none" stroke-dashoffset="0mm" stroke-linecap="round" stroke-linejoin="round"/><polyline points="-1,-5.5 -1,55.5" stroke="#b4b4b4" stroke-width="0.05" stroke-dasharray="none" stroke-dashoffset="0mm" stroke-linecap="round" stroke-linejoin="round"/><polyline points="0,-5.5 0,55.5" stroke="#b4b4b4" stroke-width="0.05" stroke-dasharray="none" stroke-dashoffset="0mm" stroke-linecap="round" stroke-linejoin="round"/><polyline points="1,-5.5 1,55.5" stroke="#b4b4b4" stroke-width="0.05" stroke-dasharray="none" stroke-dashoffset="0mm" stroke-linecap="round" stroke-linejoin="round"/><polyline points="2,-5.5 2,55.5" stroke="#b4b4b4" stroke-width="0.05" stroke-dasharray="none" stroke-dashoffset="0mm" stroke-linecap="round" stroke-linejoin="round"/><polyline points="3,-5.5 3,55.5" stroke="#b4b4b4" stroke-width="0.05" stroke-dasharray="none" stroke-dashoffset="0mm" stroke-linecap="round" stroke-linejoin="round"/><polyline points="4,-5.5 4,55.5" stroke="#b4b4b4" stroke-width="0.05" stroke-dasharray="none" stroke-dashoffset="0mm" stroke-linecap="round" stroke-linejoin="round"/><polyline points="5,-5.5 5,55.5" stroke="#b4b4b4" stroke-width="0.05" stroke-dasharray="none" stroke-dashoffset="0mm" stroke-linecap="round" stroke-linejoin="round"/><polyline points="6,-5.5 6,55.5" stroke="#b4b4b4" stroke-width="0.05" stroke-dasharray="none" stroke-dashoffset="0mm" stroke-linecap="round" stroke-linejoin="round"/><polyline points="7,-5.5 7,55.5" stroke="#b4b4b4" stroke-width="0.05" stroke-dasharray="none" stroke-dashoffset="0mm" stroke-linecap="round" stroke-linejoin="round"/><polyline points="8,-5.5 8,55.5" stroke="#b4b4b4" stroke-width="0.05" stroke-dasharray="none" stroke-dashoffset="0mm" stroke-linecap="round" stroke-linejoin="round"/><polyline points="9,-5.5 9,55.5" stroke="#b4b4b4" stroke-width="0.05" stroke-dasharray="none" stroke-dashoffset="0mm" stroke-linecap="round" stroke-linejoin="round"/><polyline points="10,-5.5 10,55.5" stroke="#b4b4b4" stroke-width="0.05" stroke-dasharray="none" stroke-dashoffset="0mm" stroke-linecap="round" stroke-linejoin="round"/><polyline points="11,-5.5 11,55.5" stroke="#b4b4b4" stroke-width="0.05" stroke-dasharray="none" stroke-dashoffset="0mm" stroke-linecap="round" stroke-linejoin="round"/><polyline points="12,-5.5 12,55.5" stroke="#b4b4b4" stroke-width="0.05" stroke-dasharray="none" stroke-dashoffset="0mm" stroke-linecap="round" stroke-linejoin="round"/><polyline points="13,-5.5 13,55.5" stroke="#b4b4b4" stroke-width="0.05" stroke-dasharray="none" stroke-dashoffset="0mm" stroke-linecap="round" stroke-linejoin="round"/><polyline points="14,-5.5 14,55.5" stroke="#b4b4b4" stroke-width="0.05" stroke-dasharray="none" stroke-dashoffset="0mm" stroke-linecap="round" stroke-linejoin="round"/><polyline points="15,-5.5 15,55.5" stroke="#b4b4b4" stroke-width="0.05" stroke-dasharray="none" stroke-dashoffset="0mm" stroke-linecap="round" stroke-linejoin="round"/><polyline points="16,-5.5 16,55.5" stroke="#b4b4b4" stroke-width="0.05" stroke-dasharray="none" stroke-dashoffset="0mm" stroke-linecap="round" stroke-linejoin="round"/><polyline points="17,-5.5 17,55.5" stroke="#b4b4b4" stroke-width="0.05" stroke-dasharray="none" stroke-dashoffset="0mm" stroke-linecap="round" stroke-linejoin="round"/><polyline points="18,-5.5 18,55.5" stroke="#b4b4b4" stroke-width="0.05" stroke-dasharray="none" stroke-dashoffset="0mm" stroke-linecap="round" stroke-linejoin="round"/><polyline points="19,-5.5 19,55.5" stroke="#b4b4b4" stroke-width="0.05" stroke-dasharray="none" stroke-dashoffset="0mm" stroke-linecap="round" stroke-linejoin="round"/><polyline points="20,-5.5 20,55.5" stroke="#b4b4b4" stroke-width="0.05" stroke-dasharray="none" stroke-dashoffset="0mm" stroke-linecap="round" stroke-linejoin="round"/><polyline points="21,-5.5 21,55.5" stroke="#b4b4b4" stroke-width="0.05" stroke-dasharray="none" stroke-dashoffset="0mm" stroke-linecap="round" stroke-linejoin="round"/><polyline points="22,-5.5 22,55.5" stroke="#b4b4b4" stroke-width="0.05" stroke-dasharray="none" stroke-dashoffset="0mm" stroke-linecap="round" stroke-linejoin="round"/><polyline points="23,-5.5 23,55.5" stroke="#b4b4b4" stroke-width="0.05" stroke-dasharray="none" stroke-dashoffset="0mm" stroke-linecap="round" stroke-linejoin="round"/><polyline points="24,-5.5 24,55.5" stroke="#b4b4b4" stroke-width="0.05" stroke-dasharray="none" stroke-dashoffset="0mm" stroke-linecap="round" stroke-linejoin="round"/><polyline points="25,-5.5 25,55.5" stroke="#b4b4b4" stroke-width="0.05" stroke-dasharray="none" stroke-dashoffset="0mm" stroke-linecap="round" stroke-linejoin="round"/><polyline points="-25.5,-5 25.5,-5" stroke="#b4b4b4" stroke-width="0.05" stroke-dasharray="none" stroke-dashoffset="0mm" stroke-linecap="round" stroke-linejoin="round"/><polyline points="-25.5,-4 25.5,-4" stroke="#b4b4b4" stroke-width="0.05" stroke-dasharray="none" stroke-dashoffset="0mm" stroke-linecap="round" stroke-linejoin="round"/><polyline points="-25.5,-3 25.5,-3" stroke="#b4b4b4" stroke-width="0.05" stroke-dasharray="none" stroke-dashoffset="0mm" stroke-linecap="round" stroke-linejoin="round"/><polyline points="-25.5,-2 25.5,-2" stroke="#b4b4b4" stroke-width="0.05" stroke-dasharray="none" stroke-dashoffset="0mm" stroke-linecap="round" stroke-linejoin="round"/><polyline points="-25.5,-1 25.5,-1" stroke="#b4b4b4" stroke-width="0.05" stroke-dasharray="none" stroke-dashoffset="0mm" stroke-linecap="round" stroke-linejoin="round"/><polyline points="-25.5,0 25.5,0" stroke="#b4b4b4" stroke-width="0.05" stroke-dasharray="none" stroke-dashoffset="0mm" stroke-linecap="round" stroke-linejoin="round"/><polyline points="-25.5,1 25.5,1" stroke="#b4b4b4" stroke-width="0.05" stroke-dasharray="none" stroke-dashoffset="0mm" stroke-linecap="round" stroke-linejoin="round"/><polyline points="-25.5,2 25.5,2" stroke="#b4b4b4" stroke-width="0.05" stroke-dasharray="none" stroke-dashoffset="0mm" stroke-linecap="round" stroke-linejoin="round"/><polyline points="-25.5,3 25.5,3" stroke="#b4b4b4" stroke-width="0.05" stroke-dasharray="none" stroke-dashoffset="0mm" stroke-linecap="round" stroke-linejoin="round"/><polyline points="-25.5,4 25.5,4" stroke="#b4b4b4" stroke-width="0.05" stroke-dasharray="none" stroke-dashoffset="0mm" stroke-linecap="round" stroke-linejoin="round"/><polyline points="-25.5,5 25.5,5" stroke="#b4b4b4" stroke-width="0.05" stroke-dasharray="none" stroke-dashoffset="0mm" stroke-linecap="round" stroke-linejoin="round"/><polyline points="-25.5,6 25.5,6" stroke="#b4b4b4" stroke-width="0.05" stroke-dasharray="none" stroke-dashoffset="0mm" stroke-linecap="round" stroke-linejoin="round"/><polyline points="-25.5,7 25.5,7" stroke="#b4b4b4" stroke-width="0.05" stroke-dasharray="none" stroke-dashoffset="0mm" stroke-linecap="round" stroke-linejoin="round"/><polyline points="-25.5,8 25.5,8" stroke="#b4b4b4" stroke-width="0.05" stroke-dasharray="none" stroke-dashoffset="0mm" stroke-linecap="round" stroke-linejoin="round"/><polyline points="-25.5,9 25.5,9" stroke="#b4b4b4" stroke-width="0.05" stroke-dasharray="none" stroke-dashoffset="0mm" stroke-linecap="round" stroke-linejoin="round"/><polyline points="-25.5,10 25.5,10" stroke="#b4b4b4" stroke-width="0.05" stroke-dasharray="none" stroke-dashoffset="0mm" stroke-linecap="round" stroke-linejoin="round"/><polyline points="-25.5,11 25.5,11" stroke="#b4b4b4" stroke-width="0.05" stroke-dasharray="none" stroke-dashoffset="0mm" stroke-linecap="round" stroke-linejoin="round"/><polyline points="-25.5,12 25.5,12" stroke="#b4b4b4" stroke-width="0.05" stroke-dasharray="none" stroke-dashoffset="0mm" stroke-linecap="round" stroke-linejoin="round"/><polyline points="-25.5,13 25.5,13" stroke="#b4b4b4" stroke-width="0.05" stroke-dasharray="none" stroke-dashoffset="0mm" stroke-linecap="round" stroke-linejoin="round"/><polyline points="-25.5,14 25.5,14" stroke="#b4b4b4" stroke-width="0.05" stroke-dasharray="none" stroke-dashoffset="0mm" stroke-linecap="round" stroke-linejoin="round"/><polyline points="-25.5,15 25.5,15" stroke="#b4b4b4" stroke-width="0.05" stroke-dasharray="none" stroke-dashoffset="0mm" stroke-linecap="round" stroke-linejoin="round"/><polyline points="-25.5,16 25.5,16" stroke="#b4b4b4" stroke-width="0.05" stroke-dasharray="none" stroke-dashoffset="0mm" stroke-linecap="round" stroke-linejoin="round"/><polyline points="-25.5,17 25.5,17" stroke="#b4b4b4" stroke-width="0.05" stroke-dasharray="none" stroke-dashoffset="0mm" stroke-linecap="round" stroke-linejoin="round"/><polyline points="-25.5,18 25.5,18" stroke="#b4b4b4" stroke-width="0.05" stroke-dasharray="none" stroke-dashoffset="0mm" stroke-linecap="round" stroke-linejoin="round"/><polyline points="-25.5,19 25.5,19" stroke="#b4b4b4" stroke-width="0.05" stroke-dasharray="none" stroke-dashoffset="0mm" stroke-linecap="round" stroke-linejoin="round"/><polyline points="-25.5,20 25.5,20" stroke="#b4b4b4" stroke-width="0.05" stroke-dasharray="none" stroke-dashoffset="0mm" stroke-linecap="round" stroke-linejoin="round"/><polyline points="-25.5,21 25.5,21" stroke="#b4b4b4" stroke-width="0.05" stroke-dasharray="none" stroke-dashoffset="0mm" stroke-linecap="round" stroke-linejoin="round"/><polyline points="-25.5,22 25.5,22" stroke="#b4b4b4" stroke-width="0.05" stroke-dasharray="none" stroke-dashoffset="0mm" stroke-linecap="round" stroke-linejoin="round"/><polyline points="-25.5,23 25.5,23" stroke="#b4b4b4" stroke-width="0.05" stroke-dasharray="none" stroke-dashoffset="0mm" stroke-linecap="round" stroke-linejoin="round"/><polyline points="-25.5,24 25.5,24" stroke="#b4b4b4" stroke-width="0.05" stroke-dasharray="none" stroke-dashoffset="0mm" stroke-linecap="round" stroke-linejoin="round"/><polyline points="-25.5,25 25.5,25" stroke="#b4b4b4" stroke-width="0.05" stroke-dasharray="none" stroke-dashoffset="0mm" stroke-linecap="round" stroke-linejoin="round"/><polyline points="-25.5,26 25.5,26" stroke="#b4b4b4" stroke-width="0.05" stroke-dasharray="none" stroke-dashoffset="0mm" stroke-linecap="round" stroke-linejoin="round"/><polyline points="-25.5,27 25.5,27" stroke="#b4b4b4" stroke-width="0.05" stroke-dasharray="none" stroke-dashoffset="0mm" stroke-linecap="round" stroke-linejoin="round"/><polyline points="-25.5,28 25.5,28" stroke="#b4b4b4" stroke-width="0.05" stroke-dasharray="none" stroke-dashoffset="0mm" stroke-linecap="round" stroke-linejoin="round"/><polyline points="-25.5,29 25.5,29" stroke="#b4b4b4" stroke-width="0.05" stroke-dasharray="none" stroke-dashoffset="0mm" stroke-linecap="round" stroke-linejoin="round"/><polyline points="-25.5,30 25.5,30" stroke="#b4b4b4" stroke-width="0.05" stroke-dasharray="none" stroke-dashoffset="0mm" stroke-linecap="round" stroke-linejoin="round"/><polyline points="-25.5,31 25.5,31" stroke="#b4b4b4" stroke-width="0.05" stroke-dasharray="none" stroke-dashoffset="0mm" stroke-linecap="round" stroke-linejoin="round"/><polyline points="-25.5,32 25.5,32" stroke="#b4b4b4" stroke-width="0.05" stroke-dasharray="none" stroke-dashoffset="0mm" stroke-linecap="round" stroke-linejoin="round"/><polyline points="-25.5,33 25.5,33" stroke="#b4b4b4" stroke-width="0.05" stroke-dasharray="none" stroke-dashoffset="0mm" stroke-linecap="round" stroke-linejoin="round"/><polyline points="-25.5,34 25.5,34" stroke="#b4b4b4" stroke-width="0.05" stroke-dasharray="none" stroke-dashoffset="0mm" stroke-linecap="round" stroke-linejoin="round"/><polyline points="-25.5,35 25.5,35" stroke="#b4b4b4" stroke-width="0.05" stroke-dasharray="none" stroke-dashoffset="0mm" stroke-linecap="round" stroke-linejoin="round"/><polyline points="-25.5,36 25.5,36" stroke="#b4b4b4" stroke-width="0.05" stroke-dasharray="none" stroke-dashoffset="0mm" stroke-linecap="round" stroke-linejoin="round"/><polyline points="-25.5,37 25.5,37" stroke="#b4b4b4" stroke-width="0.05" stroke-dasharray="none" stroke-dashoffset="0mm" stroke-linecap="round" stroke-linejoin="round"/><polyline points="-25.5,38 25.5,38" stroke="#b4b4b4" stroke-width="0.05" stroke-dasharray="none" stroke-dashoffset="0mm" stroke-linecap="round" stroke-linejoin="round"/><polyline points="-25.5,39 25.5,39" stroke="#b4b4b4" stroke-width="0.05" stroke-dasharray="none" stroke-dashoffset="0mm" stroke-linecap="round" stroke-linejoin="round"/><polyline points="-25.5,40 25.5,40" stroke="#b4b4b4" stroke-width="0.05" stroke-dasharray="none" stroke-dashoffset="0mm" stroke-linecap="round" stroke-linejoin="round"/><polyline points="-25.5,41 25.5,41" stroke="#b4b4b4" stroke-width="0.05" stroke-dasharray="none" stroke-dashoffset="0mm" stroke-linecap="round" stroke-linejoin="round"/><polyline points="-25.5,42 25.5,42" stroke="#b4b4b4" stroke-width="0.05" stroke-dasharray="none" stroke-dashoffset="0mm" stroke-linecap="round" stroke-linejoin="round"/><polyline points="-25.5,43 25.5,43" stroke="#b4b4b4" stroke-width="0.05" stroke-dasharray="none" stroke-dashoffset="0mm" stroke-linecap="round" stroke-linejoin="round"/><polyline points="-25.5,44 25.5,44" stroke="#b4b4b4" stroke-width="0.05" stroke-dasharray="none" stroke-dashoffset="0mm" stroke-linecap="round" stroke-linejoin="round"/><polyline points="-25.5,45 25.5,45" stroke="#b4b4b4" stroke-width="0.05" stroke-dasharray="none" stroke-dashoffset="0mm" stroke-linecap="round" stroke-linejoin="round"/><polyline points="-25.5,46 25.5,46" stroke="#b4b4b4" stroke-width="0.05" stroke-dasharray="none" stroke-dashoffset="0mm" stroke-linecap="round" stroke-linejoin="round"/><polyline points="-25.5,47 25.5,47" stroke="#b4b4b4" stroke-width="0.05" stroke-dasharray="none" stroke-dashoffset="0mm" stroke-linecap="round" stroke-linejoin="round"/><polyline points="-25.5,48 25.5,48" stroke="#b4b4b4" stroke-width="0.05" stroke-dasharray="none" stroke-dashoffset="0mm" stroke-linecap="round" stroke-linejoin="round"/><polyline points="-25.5,49 25.5,49" stroke="#b4b4b4" stroke-width="0.05" stroke-dasharray="none" stroke-dashoffset="0mm" stroke-linecap="round" stroke-linejoin="round"/><polyline points="-25.5,50 25.5,50" stroke="#b4b4b4" stroke-width="0.05" stroke-dasharray="none" stroke-dashoffset="0mm" stroke-linecap="round" stroke-linejoin="round"/><polyline points="-25.5,51 25.5,51" stroke="#b4b4b4" stroke-width="0.05" stroke-dasharray="none" stroke-dashoffset="0mm" stroke-linecap="round" stroke-linejoin="round"/><polyline points="-25.5,52 25.5,52" stroke="#b4b4b4" stroke-width="0.05" stroke-dasharray="none" stroke-dashoffset="0mm" stroke-linecap="round" stroke-linejoin="round"/><polyline points="-25.5,53 25.5,53" stroke="#b4b4b4" stroke-width="0.05" stroke-dasharray="none" stroke-dashoffset="0mm" stroke-linecap="round" stroke-linejoin="round"/><polyline points="-25.5,54 25.5,54" stroke="#b4b4b4" stroke-width="0.05" stroke-dasharray="none" stroke-dashoffset="0mm" stroke-linecap="round" stroke-linejoin="round"/><polyline points="-25.5,55 25.5,55" stroke="#b4b4b4" stroke-width="0.05" stroke-dasharray="none" stroke-dashoffset="0mm" stroke-linecap="round" stroke-linejoin="round"/><polyline points="-25,-5.5 -25,55.5" stroke="#b4b4b4" stroke-width="0.08" stroke-dasharray="none" stroke-dashoffset="0mm" stroke-linecap="round" stroke-linejoin="round"/><polyline points="-20,-5.5 -20,55.5" stroke="#b4b4b4" stroke-width="0.08" stroke-dasharray="none" stroke-dashoffset="0mm" stroke-linecap="round" stroke-linejoin="round"/><polyline points="-15,-5.5 -15,55.5" stroke="#b4b4b4" stroke-width="0.08" stroke-dasharray="none" stroke-dashoffset="0mm" stroke-linecap="round" stroke-linejoin="round"/><polyline points="-10,-5.5 -10,55.5" stroke="#b4b4b4" stroke-width="0.08" stroke-dasharray="none" stroke-dashoffset="0mm" stroke-linecap="round" stroke-linejoin="round"/><polyline points="-5,-5.5 -5,55.5" stroke="#b4b4b4" stroke-width="0.08" stroke-dasharray="none" stroke-dashoffset="0mm" stroke-linecap="round" stroke-linejoin="round"/><polyline points="0,-5.5 0,55.5" stroke="#b4b4b4" stroke-width="0.08" stroke-dasharray="none" stroke-dashoffset="0mm" stroke-linecap="round" stroke-linejoin="round"/><polyline points="5,-5.5 5,55.5" stroke="#b4b4b4" stroke-width="0.08" stroke-dasharray="none" stroke-dashoffset="0mm" stroke-linecap="round" stroke-linejoin="round"/><polyline points="10,-5.5 10,55.5" stroke="#b4b4b4" stroke-width="0.08" stroke-dasharray="none" stroke-dashoffset="0mm" stroke-linecap="round" stroke-linejoin="round"/><polyline points="15,-5.5 15,55.5" stroke="#b4b4b4" stroke-width="0.08" stroke-dasharray="none" stroke-dashoffset="0mm" stroke-linecap="round" stroke-linejoin="round"/><polyline points="20,-5.5 20,55.5" stroke="#b4b4b4" stroke-width="0.08" stroke-dasharray="none" stroke-dashoffset="0mm" stroke-linecap="round" stroke-linejoin="round"/><polyline points="25,-5.5 25,55.5" stroke="#b4b4b4" stroke-width="0.08" stroke-dasharray="none" stroke-dashoffset="0mm" stroke-linecap="round" stroke-linejoin="round"/><polyline points="-25.5,-5 25.5,-5" stroke="#b4b4b4" stroke-width="0.08" stroke-dasharray="none" stroke-dashoffset="0mm" stroke-linecap="round" stroke-linejoin="round"/><polyline points="-25.5,0 25.5,0" stroke="#b4b4b4" stroke-width="0.08" stroke-dasharray="none" stroke-dashoffset="0mm" stroke-linecap="round" stroke-linejoin="round"/><polyline points="-25.5,5 25.5,5" stroke="#b4b4b4" stroke-width="0.08" stroke-dasharray="none" stroke-dashoffset="0mm" stroke-linecap="round" stroke-linejoin="round"/><polyline points="-25.5,10 25.5,10" stroke="#b4b4b4" stroke-width="0.08" stroke-dasharray="none" stroke-dashoffset="0mm" stroke-linecap="round" stroke-linejoin="round"/><polyline points="-25.5,15 25.5,15" stroke="#b4b4b4" stroke-width="0.08" stroke-dasharray="none" stroke-dashoffset="0mm" stroke-linecap="round" stroke-linejoin="round"/><polyline points="-25.5,20 25.5,20" stroke="#b4b4b4" stroke-width="0.08" stroke-dasharray="none" stroke-dashoffset="0mm" stroke-linecap="round" stroke-linejoin="round"/><polyline points="-25.5,25 25.5,25" stroke="#b4b4b4" stroke-width="0.08" stroke-dasharray="none" stroke-dashoffset="0mm" stroke-linecap="round" stroke-linejoin="round"/><polyline points="-25.5,30 25.5,30" stroke="#b4b4b4" stroke-width="0.08" stroke-dasharray="none" stroke-dashoffset="0mm" stroke-linecap="round" stroke-linejoin="round"/><polyline points="-25.5,35 25.5,35" stroke="#b4b4b4" stroke-width="0.08" stroke-dasharray="none" stroke-dashoffset="0mm" stroke-linecap="round" stroke-linejoin="round"/><polyline points="-25.5,40 25.5,40" stroke="#b4b4b4" stroke-width="0.08" stroke-dasharray="none" stroke-dashoffset="0mm" stroke-linecap="round" stroke-linejoin="round"/><polyline points="-25.5,45 25.5,45" stroke="#b4b4b4" stroke-width="0.08" stroke-dasharray="none" stroke-dashoffset="0mm" stroke-linecap="round" stroke-linejoin="round"/><polyline points="-25.5,50 25.5,50" stroke="#b4b4b4" stroke-width="0.08" stroke-dasharray="none" stroke-dashoffset="0mm" stroke-linecap="round" stroke-linejoin="round"/><polyline points="-25.5,55 25.5,55" stroke="#b4b4b4" stroke-width="0.08" stroke-dasharray="none" stroke-dashoffset="0mm" stroke-linecap="round" stroke-linejoin="round"/><polyline points="-20,16 -19.960938,16 -19.84375,16 -19.648438,16 -19.375,16 -19.023438,16 -18.59375,16 -18.085938,16 -17.5,16 -16.835938,16 -16.09375,16 -15.273437,16 -14.375,16 -13.398437,16 -12.34375,16 -11.210937,16 -10,16 -8.710937,16 -7.34375,16 -5.898437,16 -4.375,16 -2.773437,16 -1.09375,16 0.664063,16 2.5,16 4.414063,16 6.40625,16 8.476562,16 10.625,16 12.851562,16 15.15625,16 17.539062,16 20,16" stroke="#000000" stroke-width="0.25" stroke-dasharray="none" stroke-dashoffset="0mm" stroke-linecap="round" stroke-linejoin="round" fill="none"/><polyline points="5.9125,0.01375 20,0" stroke="#000000" stroke-width="0.25" stroke-dasharray="none" stroke-dashoffset="0mm" stroke-linecap="round" stroke-linejoin="round"/><polyline points="-20,0 5.9125,0.01375" stroke="#000000" stroke-width="0.25" stroke-dasharray="none" stroke-dashoffset="0mm" stroke-linecap="round" stroke-linejoin="round"/><polyline points="0,50 0.019531,49.966797 0.078125,49.867188 0.175781,49.701172 0.3125,49.46875 0.488281,49.169922 0.703125,48.804688 0.957031,48.373047 1.25,47.875 1.582031,47.310547 1.953125,46.679688 2.363281,45.982422 2.8125,45.21875 3.300781,44.388672 3.828125,43.492188 4.394531,42.529297 5,41.5 5.644531,40.404297 6.328125,39.242188 7.050781,38.013672 7.8125,36.71875 8.613281,35.357422 9.453125,33.929688 10.332031,32.435547 11.25,30.875 12.207031,29.248047 13.203125,27.554687 14.238281,25.794922 15.3125,23.96875 16.425781,22.076172 17.578125,20.117187 18.769531,18.091797 20,16" stroke="#000000" stroke-width="0.25" stroke-dasharray="none" stroke-dashoffset="0mm" stroke-linecap="round" stroke-linejoin="round" fill="none"/><polyline points="-20,16 0,50" stroke="#000000" stroke-width="0.25" stroke-dasharray="none" stroke-dashoffset="0mm" stroke-linecap="round" stroke-linejoin="round"/><polyline points="20,16 20,0" stroke="#000000" stroke-width="0.25" stroke-dasharray="none" stroke-dashoffset="0mm" stroke-linecap="round" stroke-linejoin="round"/><polyline points="-20,16 -20,0" stroke="#000000" stroke-width="0.25" stroke-dasharray="none" stroke-dashoffset="0mm" stroke-linecap="round" stroke-linejoin="round"/><ellipse rx="1" ry="1" stroke="#ff0000" stroke-width="0.125" stroke-dasharray="none" stroke-dashoffset="0mm" stroke-linecap="round" stroke-linejoin="round" fill="none"/><ellipse rx="1" ry="1" stroke="#ff4040" stroke-width="0" stroke-dasharray="none" stroke-dashoffset="0mm" stroke-linecap="round" stroke-linejoin="round" fill="#ff4040" transform="translate(16,28)"/><text fill="#0000ff" font-size="3.3px" font-family="Arial" transform="translate(16,31.3)">A</text></svg>