<svg xmlns="http://www.w3.org/2000/svg" width="34.0mm" height="98.0mm" viewBox="-17 -48.9 34 98" style="background-color: #ffffff;"><polygon points="-15.996356,-4.059075 -15.913765,-3.228968 -15.671354,-2.422856 -15.277165,-1.644819 -14.73924,-0.898936 -14.065621,-0.189284 -13.264349,0.480057 -12.343467,1.105008 -11.311017,1.681492 -10.175041,2.205429 -8.94358,2.672741 -7.624678,3.079349 -6.226375,3.421174 -4.756713,3.694138 -3.223736,3.894162 -1.635484,4.017167 0,4.059075 0,4.059075 1.635484,4.017167 3.223736,3.894162 4.756713,3.694138 6.226375,3.421174 7.624678,3.079349 8.94358,2.672741 10.175041,2.205429 11.311017,1.681492 12.343467,1.105008 13.264349,0.480057 14.065621,-0.189284 14.73924,-0.898936 15.277165,-1.644819 15.671354,-2.422856 15.913765,-3.228968 15.996356,-4.059075" stroke="#000000" stroke-width="0.25" stroke-dasharray="none" stroke-dashoffset="0mm" stroke-linecap="round" stroke-linejoin="round" fill="none" transform="translate(0,44.044967)"/><polygon points="15.996356,3.960973 15.913765,3.150986 15.671354,2.3644 15.277165,1.605197 14.73924,0.877359 14.065621,0.184866 13.264349,-0.468299 12.343467,-1.078155 11.311017,-1.64072 10.175041,-2.152013 8.94358,-2.608051 7.624678,-3.004854 6.226375,-3.338439 4.756713,-3.604825 3.223736,-3.80003 1.635484,-3.920073 0,-3.960973 0,-3.960973 -1.635484,-3.920073 -3.223736,-3.80003 -4.756713,-3.604825 -6.226375,-3.338439 -7.624678,-3.004854 -8.94358,-2.608051 -10.175041,-2.152013 -11.311017,-1.64072 -12.343467,-1.078155 -13.264349,-0.468299 -14.065621,0.184866 -14.73924,0.877359 -15.277165,1.605197 -15.671354,2.3644 -15.913765,3.150986 -15.996356,3.960973" stroke="#000000" stroke-width="0.25" stroke-dasharray="none" stroke-dashoffset="0mm" stroke-linecap="round" stroke-linejoin="round" fill="none" transform="translate(0,-43.904373)"/><polygon points="15.996356,-39.980892 15.996356,39.980892 -15.996356,39.980892 -15.996356,-39.980892" stroke="#000000" stroke-width="0.25" stroke-dasharray="none" stroke-dashoffset="0mm" stroke-linecap="round" stroke-linejoin="round" fill="none" transform="translate(-0.017495,0.008749)"/></svg>