<svg xmlns="http://www.w3.org/2000/svg" width="34.0mm" height="98.0mm" viewBox="-17 -49 34 98" style="background-color: #ffffff;"><polygon points="-15.907207,-3.938898 -15.825077,-3.133425 -15.584017,-2.351223 -15.192025,-1.596252 -14.657097,-0.872469 -13.987232,-0.183836 -13.190426,0.465689 -12.274676,1.072146 -11.24798,1.631576 -10.118335,2.140019 -8.893737,2.593516 -7.582185,2.988107 -6.191675,3.319833 -4.730204,3.584735 -3.20577,3.778853 -1.626369,3.898227 0,3.938898 0,3.938898 1.626369,3.898227 3.20577,3.778853 4.730204,3.584735 6.191675,3.319833 7.582185,2.988107 8.893737,2.593516 10.118335,2.140019 11.24798,1.631576 12.274676,1.072146 13.190426,0.465689 13.987232,-0.183836 14.657097,-0.872469 15.192025,-1.596252 15.584017,-2.351223 15.825077,-3.133425 15.907207,-3.938898" stroke="#000000" stroke-width="0.25" stroke-dasharray="none" stroke-dashoffset="0mm" stroke-linecap="round" stroke-linejoin="round" fill="none" transform="translate(0,44.079742)"/><polyline points="-15.986744,20.62966 15.951947,20.62966" stroke="#000000" stroke-width="0.25" stroke-dasharray="0.75 0.375" stroke-linecap="round" stroke-linejoin="round"/><polyline points="-15.861226,-21.37531 16.01657,-21.295774" stroke="#000000" stroke-width="0.25" stroke-dasharray="0.75 0.375" stroke-linecap="round" stroke-linejoin="round"/><polygon points="15.907207,3.938898 15.825077,3.133425 15.584017,2.351223 15.192025,1.596252 14.657097,0.872469 13.987232,0.183836 13.190426,-0.465689 12.274676,-1.072146 11.24798,-1.631576 10.118335,-2.140019 8.893737,-2.593516 7.582185,-2.988107 6.191675,-3.319833 4.730204,-3.584735 3.20577,-3.778853 1.626369,-3.898227 0,-3.938898 0,-3.938898 -1.626369,-3.898227 -3.20577,-3.778853 -4.730204,-3.584735 -6.191675,-3.319833 -7.582185,-2.988107 -8.893737,-2.593516 -10.118335,-2.140019 -11.24798,-1.631576 -12.274676,-1.072146 -13.190426,-0.465689 -13.987232,0.183836 -14.657097,0.872469 -15.192025,1.596252 -15.584017,2.351223 -15.825077,3.133425 -15.907207,3.938898" stroke="#000000" stroke-width="0.25" stroke-dasharray="none" stroke-dashoffset="0mm" stroke-linecap="round" stroke-linejoin="round" fill="none" transform="translate(0,-44.032517)"/><polygon points="15.909693,-40.095484 15.909693,40.095484 -15.909693,40.095484 -15.909693,-40.095484" stroke="#000000" stroke-width="0.25" stroke-dasharray="none" stroke-dashoffset="0mm" stroke-linecap="round" stroke-linejoin="round" fill="none" transform="translate(-0.019886,-0.025477)"/></svg>