<svg xmlns="http://www.w3.org/2000/svg" width="10.0mm" height="8.0mm" viewBox="-5 -4 10 8" style="background-color: #ffffff;"><polyline points="-3.990507,0 -1.49644,0" stroke="#000000" stroke-width="0.25" stroke-dasharray="none" stroke-dashoffset="0mm" stroke-linecap="round" stroke-linejoin="round"/><polyline points="1.49644,0 3.990507,0" stroke="#000000" stroke-width="0.25" stroke-dasharray="none" stroke-dashoffset="0mm" stroke-linecap="round" stroke-linejoin="round"/><polyline points="1.510158,0.013717 1.681157,0.326564 1.790779,0.657985 1.840017,0.999373 1.829866,1.34212 1.761318,1.677618 1.635367,1.99726 1.453008,2.292439 1.215234,2.554548" stroke="#000000" stroke-width="0.25" stroke-dasharray="none" stroke-dashoffset="0mm" stroke-linecap="round" stroke-linejoin="round" fill="none"/><polyline points="1.215234,2.554548 0.934999,2.766595 0.629723,2.917805 0.307802,3.008193 -0.022368,3.037773 -0.352393,3.006561 -0.673875,2.91457 -0.97842,2.761816 -1.257633,2.548313" stroke="#000000" stroke-width="0.25" stroke-dasharray="none" stroke-dashoffset="0mm" stroke-linecap="round" stroke-linejoin="round" fill="none"/><polyline points="-1.257633,2.548313 -1.494156,2.284949 -1.675126,1.988814 -1.799585,1.668522 -1.866575,1.332689 -1.87514,0.989929 -1.824322,0.648857 -1.713164,0.318087 -1.54071,0.006235" stroke="#000000" stroke-width="0.25" stroke-dasharray="none" stroke-dashoffset="0mm" stroke-linecap="round" stroke-linejoin="round" fill="none"/><polyline points="-1.498934,0.034293 -1.663562,-0.277679 -1.768566,-0.607539 -1.81494,-0.946869 -1.803678,-1.28725 -1.735773,-1.620267 -1.612219,-1.9375 -1.43401,-2.230533 -1.20214,-2.490949" stroke="#000000" stroke-width="0.25" stroke-dasharray="none" stroke-dashoffset="0mm" stroke-linecap="round" stroke-linejoin="round" fill="none"/><polyline points="-1.20214,-2.490949 -0.929044,-2.702287 -0.631418,-2.85368 -0.317352,-2.945098 0.005066,-2.976513 0.327747,-2.947894 0.642602,-2.859214 0.941543,-2.710442 1.216481,-2.501549" stroke="#000000" stroke-width="0.25" stroke-dasharray="none" stroke-dashoffset="0mm" stroke-linecap="round" stroke-linejoin="round" fill="none"/><polyline points="1.216481,-2.501549 1.450358,-2.24321 1.630808,-1.951734 1.756778,-1.635546 1.827215,-1.303072 1.841069,-0.962735 1.797287,-0.622961 1.694816,-0.292175 1.532604,0.0212" stroke="#000000" stroke-width="0.25" stroke-dasharray="none" stroke-dashoffset="0mm" stroke-linecap="round" stroke-linejoin="round" fill="none"/><polyline points="3.990507,1.995253 3.990507,-1.995253" stroke="#000000" stroke-width="0.25" stroke-dasharray="none" stroke-dashoffset="0mm" stroke-linecap="round" stroke-linejoin="round"/><polyline points="-3.990507,1.995253 -3.990507,-1.995253" stroke="#000000" stroke-width="0.25" stroke-dasharray="none" stroke-dashoffset="0mm" stroke-linecap="round" stroke-linejoin="round"/></svg>