<svg xmlns="http://www.w3.org/2000/svg" width="17.0mm" height="8.0mm" viewBox="-16 -4 17 8" style="background-color: #ffffff;"><polyline points="-3,0 0,0" stroke="#000000" stroke-width="0.25" stroke-dasharray="none" stroke-dashoffset="0mm" stroke-linecap="round" stroke-linejoin="round"/><polyline points="-13,-0.03125 -5,-0.03125" stroke="#000000" stroke-width="0.25" stroke-dasharray="none" stroke-dashoffset="0mm" stroke-linecap="round" stroke-linejoin="round"/><polyline points="-13,2 -5,2" stroke="#000000" stroke-width="0.25" stroke-dasharray="none" stroke-dashoffset="0mm" stroke-linecap="round" stroke-linejoin="round"/><polyline points="-13,-2 -5,-2" stroke="#000000" stroke-width="0.25" stroke-dasharray="none" stroke-dashoffset="0mm" stroke-linecap="round" stroke-linejoin="round"/><polygon points="0.5,3 0.265625,2.953125 0.0625,2.8125 -0.109375,2.578125 -0.25,2.25 -0.359375,1.828125 -0.4375,1.3125 -0.484375,0.703125 -0.5,0 -0.5,0 -0.484375,-0.703125 -0.4375,-1.3125 -0.359375,-1.828125 -0.25,-2.25 -0.109375,-2.578125 0.0625,-2.8125 0.265625,-2.953125 0.5,-3" stroke="#000000" stroke-width="0.25" stroke-dasharray="none" stroke-dashoffset="0mm" stroke-linecap="round" stroke-linejoin="round" fill="none" transform="translate(-14.5,0)"/><polygon points="-0.5,-3 -0.265625,-2.953125 -0.0625,-2.8125 0.109375,-2.578125 0.25,-2.25 0.359375,-1.828125 0.4375,-1.3125 0.484375,-0.703125 0.5,0 0.5,0 0.484375,0.703125 0.4375,1.3125 0.359375,1.828125 0.25,2.25 0.109375,2.578125 -0.0625,2.8125 -0.265625,2.953125 -0.5,3" stroke="#000000" stroke-width="0.25" stroke-dasharray="none" stroke-dashoffset="0mm" stroke-linecap="round" stroke-linejoin="round" fill="none" transform="translate(-3.5,0)"/><polygon points="-5,-3 5,-3 5,3 -5,3" stroke="#000000" stroke-width="0.25" stroke-dasharray="none" stroke-dashoffset="0mm" stroke-linecap="round" stroke-linejoin="round" fill="none" transform="translate(-9,0)"/></svg>