<svg xmlns="http://www.w3.org/2000/svg" width="32.0mm" height="40.0mm" viewBox="-16 -1 32 40" style="background-color: #ffffff;"><polyline points="0.9125,0.01375 15,0" stroke="#000000" stroke-width="0.25" stroke-dasharray="none" stroke-dashoffset="0mm" stroke-linecap="round" stroke-linejoin="round"/><polyline points="-15,0 0.9125,0.01375" stroke="#000000" stroke-width="0.25" stroke-dasharray="none" stroke-dashoffset="0mm" stroke-linecap="round" stroke-linejoin="round"/><polyline points="0,38 0.014648,37.970703 0.058594,37.882812 0.131836,37.736328 0.234375,37.53125 0.366211,37.267578 0.527344,36.945312 0.717773,36.564453 0.9375,36.125 1.186523,35.626953 1.464844,35.070312 1.772461,34.455078 2.109375,33.78125 2.475586,33.048828 2.871094,32.257812 3.295898,31.408203 3.75,30.5 4.233398,29.533203 4.746094,28.507812 5.288086,27.423828 5.859375,26.28125 6.459961,25.080078 7.089844,23.820312 7.749023,22.501953 8.4375,21.125 9.155273,19.689453 9.902344,18.195312 10.678711,16.642578 11.484375,15.03125 12.319336,13.361328 13.183594,11.632812 14.077148,9.845703 15,8" stroke="#000000" stroke-width="0.25" stroke-dasharray="none" stroke-dashoffset="0mm" stroke-linecap="round" stroke-linejoin="round" fill="none"/><polyline points="-15,8 0,38" stroke="#000000" stroke-width="0.25" stroke-dasharray="none" stroke-dashoffset="0mm" stroke-linecap="round" stroke-linejoin="round"/><polyline points="15,8 15,0" stroke="#000000" stroke-width="0.25" stroke-dasharray="none" stroke-dashoffset="0mm" stroke-linecap="round" stroke-linejoin="round"/><polyline points="-15,8 -15,0" stroke="#000000" stroke-width="0.25" stroke-dasharray="none" stroke-dashoffset="0mm" stroke-linecap="round" stroke-linejoin="round"/></svg>