<svg xmlns="http://www.w3.org/2000/svg" width="34.0mm" height="40.0mm" viewBox="-8.5 -14.5 17 20" style="background-color: #ffffff;"><polyline points="-8,-14.5 -8,5.5" stroke="#b4b4b4" stroke-width="0.05" stroke-dasharray="none" stroke-dashoffset="0mm" stroke-linecap="round" stroke-linejoin="round"/><polyline points="-7,-14.5 -7,5.5" stroke="#b4b4b4" stroke-width="0.05" stroke-dasharray="none" stroke-dashoffset="0mm" stroke-linecap="round" stroke-linejoin="round"/><polyline points="-6,-14.5 -6,5.5" stroke="#b4b4b4" stroke-width="0.05" stroke-dasharray="none" stroke-dashoffset="0mm" stroke-linecap="round" stroke-linejoin="round"/><polyline points="-5,-14.5 -5,5.5" stroke="#b4b4b4" stroke-width="0.05" stroke-dasharray="none" stroke-dashoffset="0mm" stroke-linecap="round" stroke-linejoin="round"/><polyline points="-4,-14.5 -4,5.5" stroke="#b4b4b4" stroke-width="0.05" stroke-dasharray="none" stroke-dashoffset="0mm" stroke-linecap="round" stroke-linejoin="round"/><polyline points="-3,-14.5 -3,5.5" stroke="#b4b4b4" stroke-width="0.05" stroke-dasharray="none" stroke-dashoffset="0mm" stroke-linecap="round" stroke-linejoin="round"/><polyline points="-2,-14.5 -2,5.5" stroke="#b4b4b4" stroke-width="0.05" stroke-dasharray="none" stroke-dashoffset="0mm" stroke-linecap="round" stroke-linejoin="round"/><polyline points="-1,-14.5 -1,5.5" stroke="#b4b4b4" stroke-width="0.05" stroke-dasharray="none" stroke-dashoffset="0mm" stroke-linecap="round" stroke-linejoin="round"/><polyline points="0,-14.5 0,5.5" stroke="#b4b4b4" stroke-width="0.05" stroke-dasharray="none" stroke-dashoffset="0mm" stroke-linecap="round" stroke-linejoin="round"/><polyline points="1,-14.5 1,5.5" stroke="#b4b4b4" stroke-width="0.05" stroke-dasharray="none" stroke-dashoffset="0mm" stroke-linecap="round" stroke-linejoin="round"/><polyline points="2,-14.5 2,5.5" stroke="#b4b4b4" stroke-width="0.05" stroke-dasharray="none" stroke-dashoffset="0mm" stroke-linecap="round" stroke-linejoin="round"/><polyline points="3,-14.5 3,5.5" stroke="#b4b4b4" stroke-width="0.05" stroke-dasharray="none" stroke-dashoffset="0mm" stroke-linecap="round" stroke-linejoin="round"/><polyline points="4,-14.5 4,5.5" stroke="#b4b4b4" stroke-width="0.05" stroke-dasharray="none" stroke-dashoffset="0mm" stroke-linecap="round" stroke-linejoin="round"/><polyline points="5,-14.5 5,5.5" stroke="#b4b4b4" stroke-width="0.05" stroke-dasharray="none" stroke-dashoffset="0mm" stroke-linecap="round" stroke-linejoin="round"/><polyline points="6,-14.5 6,5.5" stroke="#b4b4b4" stroke-width="0.05" stroke-dasharray="none" stroke-dashoffset="0mm" stroke-linecap="round" stroke-linejoin="round"/><polyline points="7,-14.5 7,5.5" stroke="#b4b4b4" stroke-width="0.05" stroke-dasharray="none" stroke-dashoffset="0mm" stroke-linecap="round" stroke-linejoin="round"/><polyline points="8,-14.5 8,5.5" stroke="#b4b4b4" stroke-width="0.05" stroke-dasharray="none" stroke-dashoffset="0mm" stroke-linecap="round" stroke-linejoin="round"/><polyline points="-8.5,-14 8.5,-14" stroke="#b4b4b4" stroke-width="0.05" stroke-dasharray="none" stroke-dashoffset="0mm" stroke-linecap="round" stroke-linejoin="round"/><polyline points="-8.5,-13 8.5,-13" stroke="#b4b4b4" stroke-width="0.05" stroke-dasharray="none" stroke-dashoffset="0mm" stroke-linecap="round" stroke-linejoin="round"/><polyline points="-8.5,-12 8.5,-12" stroke="#b4b4b4" stroke-width="0.05" stroke-dasharray="none" stroke-dashoffset="0mm" stroke-linecap="round" stroke-linejoin="round"/><polyline points="-8.5,-11 8.5,-11" stroke="#b4b4b4" stroke-width="0.05" stroke-dasharray="none" stroke-dashoffset="0mm" stroke-linecap="round" stroke-linejoin="round"/><polyline points="-8.5,-10 8.5,-10" stroke="#b4b4b4" stroke-width="0.05" stroke-dasharray="none" stroke-dashoffset="0mm" stroke-linecap="round" stroke-linejoin="round"/><polyline points="-8.5,-9 8.5,-9" stroke="#b4b4b4" stroke-width="0.05" stroke-dasharray="none" stroke-dashoffset="0mm" stroke-linecap="round" stroke-linejoin="round"/><polyline points="-8.5,-8 8.5,-8" stroke="#b4b4b4" stroke-width="0.05" stroke-dasharray="none" stroke-dashoffset="0mm" stroke-linecap="round" stroke-linejoin="round"/><polyline points="-8.5,-7 8.5,-7" stroke="#b4b4b4" stroke-width="0.05" stroke-dasharray="none" stroke-dashoffset="0mm" stroke-linecap="round" stroke-linejoin="round"/><polyline points="-8.5,-6 8.5,-6" stroke="#b4b4b4" stroke-width="0.05" stroke-dasharray="none" stroke-dashoffset="0mm" stroke-linecap="round" stroke-linejoin="round"/><polyline points="-8.5,-5 8.5,-5" stroke="#b4b4b4" stroke-width="0.05" stroke-dasharray="none" stroke-dashoffset="0mm" stroke-linecap="round" stroke-linejoin="round"/><polyline points="-8.5,-4 8.5,-4" stroke="#b4b4b4" stroke-width="0.05" stroke-dasharray="none" stroke-dashoffset="0mm" stroke-linecap="round" stroke-linejoin="round"/><polyline points="-8.5,-3 8.5,-3" stroke="#b4b4b4" stroke-width="0.05" stroke-dasharray="none" stroke-dashoffset="0mm" stroke-linecap="round" stroke-linejoin="round"/><polyline points="-8.5,-2 8.5,-2" stroke="#b4b4b4" stroke-width="0.05" stroke-dasharray="none" stroke-dashoffset="0mm" stroke-linecap="round" stroke-linejoin="round"/><polyline points="-8.5,-1 8.5,-1" stroke="#b4b4b4" stroke-width="0.05" stroke-dasharray="none" stroke-dashoffset="0mm" stroke-linecap="round" stroke-linejoin="round"/><polyline points="-8.5,0 8.5,0" stroke="#b4b4b4" stroke-width="0.05" stroke-dasharray="none" stroke-dashoffset="0mm" stroke-linecap="round" stroke-linejoin="round"/><polyline points="-8.5,1 8.5,1" stroke="#b4b4b4" stroke-width="0.05" stroke-dasharray="none" stroke-dashoffset="0mm" stroke-linecap="round" stroke-linejoin="round"/><polyline points="-8.5,2 8.5,2" stroke="#b4b4b4" stroke-width="0.05" stroke-dasharray="none" stroke-dashoffset="0mm" stroke-linecap="round" stroke-linejoin="round"/><polyline points="-8.5,3 8.5,3" stroke="#b4b4b4" stroke-width="0.05" stroke-dasharray="none" stroke-dashoffset="0mm" stroke-linecap="round" stroke-linejoin="round"/><polyline points="-8.5,4 8.5,4" stroke="#b4b4b4" stroke-width="0.05" stroke-dasharray="none" stroke-dashoffset="0mm" stroke-linecap="round" stroke-linejoin="round"/><polyline points="-8.5,5 8.5,5" stroke="#b4b4b4" stroke-width="0.05" stroke-dasharray="none" stroke-dashoffset="0mm" stroke-linecap="round" stroke-linejoin="round"/><polyline points="-5,-14.5 -5,5.5" stroke="#b4b4b4" stroke-width="0.08" stroke-dasharray="none" stroke-dashoffset="0mm" stroke-linecap="round" stroke-linejoin="round"/><polyline points="0,-14.5 0,5.5" stroke="#b4b4b4" stroke-width="0.08" stroke-dasharray="none" stroke-dashoffset="0mm" stroke-linecap="round" stroke-linejoin="round"/><polyline points="5,-14.5 5,5.5" stroke="#b4b4b4" stroke-width="0.08" stroke-dasharray="none" stroke-dashoffset="0mm" stroke-linecap="round" stroke-linejoin="round"/><polyline points="-8.5,-10 8.5,-10" stroke="#b4b4b4" stroke-width="0.08" stroke-dasharray="none" stroke-dashoffset="0mm" stroke-linecap="round" stroke-linejoin="round"/><polyline points="-8.5,-5 8.5,-5" stroke="#b4b4b4" stroke-width="0.08" stroke-dasharray="none" stroke-dashoffset="0mm" stroke-linecap="round" stroke-linejoin="round"/><polyline points="-8.5,0 8.5,0" stroke="#b4b4b4" stroke-width="0.08" stroke-dasharray="none" stroke-dashoffset="0mm" stroke-linecap="round" stroke-linejoin="round"/><polyline points="-8.5,5 8.5,5" stroke="#b4b4b4" stroke-width="0.08" stroke-dasharray="none" stroke-dashoffset="0mm" stroke-linecap="round" stroke-linejoin="round"/><polygon points="-2.997387,0.988667 -2.950553,0.525229 -2.81005,0.123583 -2.575879,-0.216271 -2.24804,-0.494333 -1.826533,-0.710604 -1.311357,-0.865083 -0.702513,-0.957771 0,-0.988667 0,-0.988667 0.702513,-0.957771 1.311357,-0.865083 1.826533,-0.710604 2.24804,-0.494333 2.575879,-0.216271 2.81005,0.123583 2.950553,0.525229 2.997387,0.988667" stroke="#000000" stroke-width="0.25" stroke-dasharray="none" stroke-dashoffset="0mm" stroke-linecap="round" stroke-linejoin="round" fill="none" transform="translate(-0.015693,-8.019187)"/><polyline points="0,0 0,-7.03052" stroke="#000000" stroke-width="0.25" stroke-dasharray="none" stroke-dashoffset="0mm" stroke-linecap="round" stroke-linejoin="round"/><ellipse rx="1" ry="1" stroke="#ff0000" stroke-width="0.125" stroke-dasharray="none" stroke-dashoffset="0mm" stroke-linecap="round" stroke-linejoin="round" fill="none"/><ellipse rx="1" ry="1" stroke="#0000ff" stroke-width="0" stroke-dasharray="none" stroke-dashoffset="0mm" stroke-linecap="round" stroke-linejoin="round" fill="#0000ff" transform="translate(0,-9.039239)"/></svg>