<svg xmlns="http://www.w3.org/2000/svg" width="47.0mm" height="20.0mm" viewBox="-34 -10 47 20" style="background-color: #ffffff;"><polyline points="-26.124964,3.999995 -26.53219,3.845698 -26.816369,3.632808 -26.977502,3.361324 -27.015588,3.031246 -26.930627,2.642575 -26.72262,2.195309 -26.391565,1.689451 -25.937464,1.124998" stroke="#000000" stroke-width="0.25" stroke-dasharray="1.25 1.75" stroke-linecap="round" stroke-linejoin="round" fill="none"/><polyline points="-25.937464,1.124998 -25.414028,0.578124 -24.874966,0.125 -24.320279,-0.234375 -23.749967,-0.499999 -23.164031,-0.671874 -22.562469,-0.749999 -21.945282,-0.734374 -21.312471,-0.624999" stroke="#000000" stroke-width="0.25" stroke-dasharray="1.25 1.75" stroke-linecap="round" stroke-linejoin="round" fill="none"/><polyline points="-21.312471,-0.624999 -20.751925,-0.469726 -20.351535,-0.316406 -20.111301,-0.165039 -20.031223,-0.015625 -20.111301,0.131836 -20.351535,0.277343 -20.751925,0.420898 -21.312471,0.562499" stroke="#000000" stroke-width="0.25" stroke-dasharray="1.25 1.75" stroke-linecap="round" stroke-linejoin="round" fill="none"/><polyline points="-21.312471,0.562499 -21.945282,0.658202 -22.562469,0.664062 -23.164031,0.580077 -23.749967,0.406249 -24.320279,0.142578 -24.874966,-0.210937 -25.414028,-0.654296 -25.937464,-1.187498" stroke="#000000" stroke-width="0.25" stroke-dasharray="1.25 1.75" stroke-linecap="round" stroke-linejoin="round" fill="none"/><polyline points="-25.937464,-1.187498 -26.387659,-1.737302 -26.706995,-2.230466 -26.895471,-2.666989 -26.953088,-3.046871 -26.879846,-3.370113 -26.675745,-3.636714 -26.340784,-3.846674 -25.874965,-3.999995" stroke="#000000" stroke-width="0.25" stroke-dasharray="1.25 1.75" stroke-linecap="round" stroke-linejoin="round" fill="none"/><polyline points="-26.124964,3.999995 0,3.999995" stroke="#000000" stroke-width="0.25" stroke-dasharray="1.25 1.75" stroke-linecap="round" stroke-linejoin="round"/><polyline points="-25.999964,-3.999995 0.125,-3.999995" stroke="#000000" stroke-width="0.25" stroke-dasharray="1.25 1.75" stroke-linecap="round" stroke-linejoin="round"/><polyline points="-29.944334,6.998115 -30.256576,6.947959 -30.559511,6.831119 -30.851669,6.650931 -31.131578,6.410733 -31.39777,6.113861 -31.648773,5.763649 -31.883116,5.363436 -32.099331,4.916556 -32.471491,3.896142 -32.75349,2.729098 -32.933566,1.442112 -32.999955,0.061875" stroke="#000000" stroke-width="0.25" stroke-dasharray="none" stroke-dashoffset="0mm" stroke-linecap="round" stroke-linejoin="round" fill="none"/><polyline points="-32.999955,0.061875 -32.944543,-1.320571 -32.77475,-2.614342 -32.50211,-3.792289 -32.138159,-4.827259 -31.925547,-5.282644 -31.694433,-5.692103 -31.446259,-6.052243 -31.182467,-6.359669 -30.904499,-6.610988 -30.613797,-6.802807 -30.311803,-6.93173 -29.999959,-6.994365" stroke="#000000" stroke-width="0.25" stroke-dasharray="none" stroke-dashoffset="0mm" stroke-linecap="round" stroke-linejoin="round" fill="none"/><polyline points="-29.999959,6.99999 0,6.99999" stroke="#000000" stroke-width="0.25" stroke-dasharray="none" stroke-dashoffset="0mm" stroke-linecap="round" stroke-linejoin="round"/><polyline points="-29.999959,-6.99999 0,-6.99999" stroke="#000000" stroke-width="0.25" stroke-dasharray="none" stroke-dashoffset="0mm" stroke-linecap="round" stroke-linejoin="round"/><polyline points="0,8.999988 0,-8.999988" stroke="#000000" stroke-width="0.25" stroke-dasharray="none" stroke-dashoffset="0mm" stroke-linecap="round" stroke-linejoin="round"/><polyline points="1.999997,8.999988 1.999997,-8.999988" stroke="#000000" stroke-width="0.25" stroke-dasharray="none" stroke-dashoffset="0mm" stroke-linecap="round" stroke-linejoin="round"/><polyline points="1.999997,0.999999 5.999992,1.000624" stroke="#000000" stroke-width="0.25" stroke-dasharray="none" stroke-dashoffset="0mm" stroke-linecap="round" stroke-linejoin="round"/><polyline points="1.999997,-1.062499 5.999992,-1.061874" stroke="#000000" stroke-width="0.25" stroke-dasharray="none" stroke-dashoffset="0mm" stroke-linecap="round" stroke-linejoin="round"/><polygon points="-2.999996,-2.999996 2.999996,-2.999996 2.999996,2.999996 -2.999996,2.999996" stroke="#000000" stroke-width="0.25" stroke-dasharray="none" stroke-dashoffset="0mm" stroke-linecap="round" stroke-linejoin="round" fill="none" transform="translate(8.999988,0)"/></svg>