<svg xmlns="http://www.w3.org/2000/svg" width="26.0mm" height="22.0mm" viewBox="-13 -9 26 22" style="background-color: #ffffff;"><polyline points="-11.999804,0 -11.947071,0.905015 -11.851369,1.776338 -11.712699,2.613971 -11.531062,3.417913 -11.306456,4.188164 -11.038882,4.924724 -10.72834,5.627594 -10.374831,6.296772 -9.978353,6.93226 -9.538907,7.534057 -9.056493,8.102163 -8.531111,8.636578 -7.962761,9.137302 -7.351442,9.604335 -6.697156,10.037678 -5.999902,10.43733" stroke="#000000" stroke-width="0.25" stroke-dasharray="none" stroke-dashoffset="0mm" stroke-linecap="round" stroke-linejoin="round" fill="none"/><polyline points="-5.999902,10.43733 -4.560472,11.109194 -3.117137,11.593561 -1.669895,11.890431 -0.218746,11.999804 1.236308,11.92168 2.695268,11.65606 4.158135,11.202942 5.624908,10.562327" stroke="#000000" stroke-width="0.25" stroke-dasharray="none" stroke-dashoffset="0mm" stroke-linecap="round" stroke-linejoin="round" fill="none"/><polyline points="5.624908,10.562327 6.338275,10.176836 7.009651,9.754723 7.639035,9.295991 8.226428,8.800638 8.771829,8.268664 9.275239,7.70007 9.736657,7.094855 10.156084,6.45302 10.533519,5.774564 10.868963,5.059488 11.162415,4.307791 11.413876,3.519474 11.623345,2.694536 11.790823,1.832978 11.916309,0.934799 11.999804,0" stroke="#000000" stroke-width="0.25" stroke-dasharray="none" stroke-dashoffset="0mm" stroke-linecap="round" stroke-linejoin="round" fill="none"/><polyline points="7.999869,0 11.999804,0" stroke="#000000" stroke-width="0.25" stroke-dasharray="none" stroke-dashoffset="0mm" stroke-linecap="round" stroke-linejoin="round"/><polyline points="-11.999804,0 -7.999869,0" stroke="#000000" stroke-width="0.25" stroke-dasharray="none" stroke-dashoffset="0mm" stroke-linecap="round" stroke-linejoin="round"/><ellipse rx="7.999869" ry="7.999869" stroke="#000000" stroke-width="0.25" stroke-dasharray="none" stroke-dashoffset="0mm" stroke-linecap="round" stroke-linejoin="round" fill="none"/></svg>