<svg xmlns="http://www.w3.org/2000/svg" width="34.0mm" height="50.0mm" viewBox="-17 -1.1 34 50" style="background-color: #ffffff;"><polyline points="-15.965742,8.287266 -15.869649,7.434347 -15.620552,6.60595 -15.225996,5.80613 -14.693526,5.038943 -14.030689,4.308442 -13.245028,3.618684 -12.34409,2.973723 -11.335421,2.377615 -10.226565,1.834414 -9.025068,1.348176 -7.738475,0.922955 -6.374332,0.562807 -4.940184,0.271787 -3.443577,0.053949 -1.892056,-0.086651 -0.293167,-0.145959" stroke="#000000" stroke-width="0.25" stroke-dasharray="none" stroke-dashoffset="0mm" stroke-linecap="round" stroke-linejoin="round" fill="none"/><polyline points="-0.293167,-0.145959 1.308861,-0.120615 2.869605,-0.013027 4.381227,0.172909 5.835892,0.433299 7.225764,0.76425 8.543007,1.161867 9.779785,1.622256 10.928262,2.141522 11.980603,2.715772 12.92897,3.341111 13.765529,4.013645 14.482442,4.72948 15.071875,5.484721 15.525992,6.275475 15.836955,7.097846 15.99693,7.947941" stroke="#000000" stroke-width="0.25" stroke-dasharray="none" stroke-dashoffset="0mm" stroke-linecap="round" stroke-linejoin="round" fill="none"/><polyline points="-0.249504,47.904711 15.968237,39.920592" stroke="#000000" stroke-width="0.25" stroke-dasharray="none" stroke-dashoffset="0mm" stroke-linecap="round" stroke-linejoin="round"/><polyline points="-15.968237,39.920592 -0.249504,47.904711" stroke="#000000" stroke-width="0.25" stroke-dasharray="none" stroke-dashoffset="0mm" stroke-linecap="round" stroke-linejoin="round"/><polygon points="-15.968237,-15.968237 15.968237,-15.968237 15.968237,15.968237 -15.968237,15.968237" stroke="#000000" stroke-width="0.25" stroke-dasharray="none" stroke-dashoffset="0mm" stroke-linecap="round" stroke-linejoin="round" fill="none" transform="translate(0,23.952355)"/></svg>