<svg xmlns="http://www.w3.org/2000/svg" width="78.0mm" height="26.0mm" viewBox="-33 -25 78 26" style="background-color: #ffffff;"><polyline points="-31.999975,0 -31.999975,-7.999994" stroke="#000000" stroke-width="0.25" stroke-dasharray="none" stroke-dashoffset="0mm" stroke-linecap="round" stroke-linejoin="round"/><polyline points="-31.999975,-15.999988 -31.999975,-23.999981" stroke="#000000" stroke-width="0.25" stroke-dasharray="none" stroke-dashoffset="0mm" stroke-linecap="round" stroke-linejoin="round"/><polyline points="-31.999975,-15.999988 31.999975,-15.999988" stroke="#000000" stroke-width="0.25" stroke-dasharray="none" stroke-dashoffset="0mm" stroke-linecap="round" stroke-linejoin="round"/><polyline points="-31.999975,-7.999994 31.999975,-7.999994" stroke="#000000" stroke-width="0.25" stroke-dasharray="none" stroke-dashoffset="0mm" stroke-linecap="round" stroke-linejoin="round"/><polyline points="31.916225,-15.999988 32.73831,-15.912182 33.503529,-15.676062 34.195799,-15.307256 34.799036,-14.821395 35.297155,-14.234108 35.674074,-13.561025 35.913708,-12.817776 35.999972,-12.019991" stroke="#000000" stroke-width="0.25" stroke-dasharray="none" stroke-dashoffset="0mm" stroke-linecap="round" stroke-linejoin="round" fill="none"/><polyline points="35.999972,-12.019991 35.92194,-11.221412 35.690011,-10.47589 35.320095,-9.799216 34.828098,-9.20718 34.22993,-8.715574 33.541497,-8.340189 32.77871,-8.096815 31.957475,-8.001244" stroke="#000000" stroke-width="0.25" stroke-dasharray="none" stroke-dashoffset="0mm" stroke-linecap="round" stroke-linejoin="round" fill="none"/><polyline points="-31.999975,0 34.249973,0" stroke="#000000" stroke-width="0.25" stroke-dasharray="none" stroke-dashoffset="0mm" stroke-linecap="round" stroke-linejoin="round"/><polyline points="-31.999975,-23.999981 34.249973,-23.999981" stroke="#000000" stroke-width="0.25" stroke-dasharray="none" stroke-dashoffset="0mm" stroke-linecap="round" stroke-linejoin="round"/><polyline points="33.852474,-23.999981 34.889176,-23.927015 35.89549,-23.736874 36.866428,-23.43543 37.797002,-23.028556 38.682225,-22.522125 39.517108,-21.922007 40.296664,-21.234076 41.015906,-20.464203 41.669844,-19.618261 42.253493,-18.702122 42.761863,-17.721658 43.189967,-16.682741 43.532817,-15.591244 43.785425,-14.453038 43.942804,-13.273996 43.999966,-12.059991" stroke="#000000" stroke-width="0.25" stroke-dasharray="none" stroke-dashoffset="0mm" stroke-linecap="round" stroke-linejoin="round" fill="none"/><polyline points="43.999966,-12.059991 43.953211,-10.845379 43.805928,-9.66456 43.563056,-8.523464 43.229537,-7.428022 42.810309,-6.384163 42.310314,-5.397821 41.734491,-4.474924 41.087781,-3.621403 40.375123,-2.843191 39.601459,-2.146217 38.771727,-1.536411 37.890869,-1.019706 36.963825,-0.602032 35.995534,-0.289319 34.990937,-0.087498 33.954974,-0.0025" stroke="#000000" stroke-width="0.25" stroke-dasharray="none" stroke-dashoffset="0mm" stroke-linecap="round" stroke-linejoin="round" fill="none"/></svg>