<svg xmlns="http://www.w3.org/2000/svg" width="36.0mm" height="45.0mm" viewBox="-18 -37 36 45" style="background-color: #ffffff;"><polyline points="12.887472,-1.69766 12.862136,-0.838086 12.705934,-0.000539 12.425154,0.810649 12.026082,1.591147 11.515005,2.336626 10.898209,3.042752 10.181981,3.705197 9.372608,4.319629 8.476376,4.881717 7.499571,5.38713 6.448482,5.831537 5.329393,6.210609 4.148591,6.520013 2.912364,6.755419 1.626998,6.912496 0.298779,6.986913" stroke="#000000" stroke-width="0.25" stroke-dasharray="none" stroke-dashoffset="0mm" stroke-linecap="round" stroke-linejoin="round" fill="none"/><polyline points="0.298779,6.986913 -1.034504,6.974751 -2.334285,6.878133 -3.593812,6.701087 -4.806333,6.447643 -5.965097,6.121828 -7.063352,5.727672 -8.094345,5.269204 -9.051326,4.750451 -9.927542,4.175443 -10.716242,3.548208 -11.410674,2.872775 -12.004086,2.153173 -12.489727,1.393431 -12.860844,0.597577 -13.110687,-0.230361 -13.232503,-1.086352" stroke="#000000" stroke-width="0.25" stroke-dasharray="none" stroke-dashoffset="0mm" stroke-linecap="round" stroke-linejoin="round" fill="none"/><polyline points="12.893722,-1.602652 12.911223,-32.128045" stroke="#000000" stroke-width="0.25" stroke-dasharray="none" stroke-dashoffset="0mm" stroke-linecap="round" stroke-linejoin="round"/><polyline points="-13.217503,-1.012596 -13.216252,-32.07804" stroke="#000000" stroke-width="0.25" stroke-dasharray="none" stroke-dashoffset="0mm" stroke-linecap="round" stroke-linejoin="round"/><polygon points="-17.001611,-1.937684 17.001611,-1.937684 17.001611,1.937684 -17.001611,1.937684" stroke="#000000" stroke-width="0.25" stroke-dasharray="none" stroke-dashoffset="0mm" stroke-linecap="round" stroke-linejoin="round" fill="none" transform="translate(-0.125012,-34.065728)"/></svg>