<svg xmlns="http://www.w3.org/2000/svg" width="86.0mm" height="26.0mm" viewBox="-43 -13 86 26" style="background-color: #ffffff;"><polyline points="37.577852,-7.99271 38.030643,-7.915394 38.469134,-7.765062 38.891294,-7.545396 39.29509,-7.26008 39.678488,-6.912796 40.039456,-6.507228 40.375962,-6.047059 40.685972,-5.535973 40.967454,-4.977651 41.218375,-4.375778 41.436702,-3.734036 41.620403,-3.056108 41.875793,-1.60643 41.968284,-0.056207" stroke="#000000" stroke-width="0.25" stroke-dasharray="none" stroke-dashoffset="0mm" stroke-linecap="round" stroke-linejoin="round" fill="none"/><polyline points="41.968284,-0.056207 41.886657,1.495779 41.641266,2.950544 41.462191,3.632164 41.248213,4.278315 41.001346,4.885274 40.7236,5.44932 40.41699,5.966731 40.083527,6.433786 39.725225,6.846763 39.344096,7.20194 38.942152,7.495597 38.521407,7.724012 38.083873,7.883462 37.631562,7.970227" stroke="#000000" stroke-width="0.25" stroke-dasharray="none" stroke-dashoffset="0mm" stroke-linecap="round" stroke-linejoin="round" fill="none"/><polyline points="37.624067,-8.002702 29.977346,-8.002702" stroke="#000000" stroke-width="0.25" stroke-dasharray="none" stroke-dashoffset="0mm" stroke-linecap="round" stroke-linejoin="round"/><polyline points="37.670282,8.001453 29.977346,7.985216" stroke="#000000" stroke-width="0.25" stroke-dasharray="none" stroke-dashoffset="0mm" stroke-linecap="round" stroke-linejoin="round"/><polyline points="-37.577852,8.020189 -38.030643,7.942668 -38.469134,7.792183 -38.891294,7.572412 -39.29509,7.287032 -39.678488,6.939722 -40.039456,6.534159 -40.375962,6.07402 -40.685972,5.562984 -40.967454,5.004727 -41.218375,4.402928 -41.436702,3.761263 -41.620403,3.083412 -41.875793,1.633858 -41.968284,0.083687" stroke="#000000" stroke-width="0.25" stroke-dasharray="none" stroke-dashoffset="0mm" stroke-linecap="round" stroke-linejoin="round" fill="none"/><polyline points="-41.968284,0.083687 -41.886657,-1.4683 -41.641266,-2.923064 -41.462191,-3.604685 -41.248213,-4.250835 -41.001346,-4.857794 -40.7236,-5.42184 -40.41699,-5.939251 -40.083527,-6.406306 -39.725225,-6.819283 -39.344096,-7.174461 -38.942152,-7.468118 -38.521407,-7.696532 -38.083873,-7.855983 -37.631562,-7.942748" stroke="#000000" stroke-width="0.25" stroke-dasharray="none" stroke-dashoffset="0mm" stroke-linecap="round" stroke-linejoin="round" fill="none"/><polyline points="-37.624067,8.030182 -29.977346,8.030182" stroke="#000000" stroke-width="0.25" stroke-dasharray="none" stroke-dashoffset="0mm" stroke-linecap="round" stroke-linejoin="round"/><polyline points="-37.670282,-7.973974 -29.979844,-7.973974" stroke="#000000" stroke-width="0.25" stroke-dasharray="none" stroke-dashoffset="0mm" stroke-linecap="round" stroke-linejoin="round"/><polyline points="-25.980367,8.030182 25.980367,8.030182" stroke="#000000" stroke-width="0.25" stroke-dasharray="none" stroke-dashoffset="0mm" stroke-linecap="round" stroke-linejoin="round"/><polyline points="-25.980367,-7.957736 25.980367,-7.986465" stroke="#000000" stroke-width="0.25" stroke-dasharray="none" stroke-dashoffset="0mm" stroke-linecap="round" stroke-linejoin="round"/><polyline points="27.978856,11.990938 28.978101,11.990938" stroke="#000000" stroke-width="0.25" stroke-dasharray="none" stroke-dashoffset="0mm" stroke-linecap="round" stroke-linejoin="round"/><polyline points="28.978101,11.990938 29.977346,11.990938" stroke="#000000" stroke-width="0.25" stroke-dasharray="none" stroke-dashoffset="0mm" stroke-linecap="round" stroke-linejoin="round"/><polyline points="29.977346,11.990938 29.977346,-11.990938" stroke="#000000" stroke-width="0.25" stroke-dasharray="none" stroke-dashoffset="0mm" stroke-linecap="round" stroke-linejoin="round"/><polyline points="27.978856,-11.990938 28.978101,-11.990938" stroke="#000000" stroke-width="0.25" stroke-dasharray="none" stroke-dashoffset="0mm" stroke-linecap="round" stroke-linejoin="round"/><polyline points="28.978101,-11.990938 29.977346,-11.990938" stroke="#000000" stroke-width="0.25" stroke-dasharray="none" stroke-dashoffset="0mm" stroke-linecap="round" stroke-linejoin="round"/><polygon points="-0.999245,-11.990938 0.999245,-11.990938 0.999245,11.990938 -0.999245,11.990938" stroke="#000000" stroke-width="0.25" stroke-dasharray="none" stroke-dashoffset="0mm" stroke-linecap="round" stroke-linejoin="round" fill="none" transform="translate(26.979611,0)"/><polyline points="-27.978856,12.027161 -26.979611,12.027161" stroke="#000000" stroke-width="0.25" stroke-dasharray="none" stroke-dashoffset="0mm" stroke-linecap="round" stroke-linejoin="round"/><polyline points="-26.979611,12.027161 -25.980367,12.027161" stroke="#000000" stroke-width="0.25" stroke-dasharray="none" stroke-dashoffset="0mm" stroke-linecap="round" stroke-linejoin="round"/><polyline points="-25.980367,12.027161 -25.980367,-11.954716" stroke="#000000" stroke-width="0.25" stroke-dasharray="none" stroke-dashoffset="0mm" stroke-linecap="round" stroke-linejoin="round"/><polyline points="-27.978856,-11.954716 -25.980367,-11.954716" stroke="#000000" stroke-width="0.25" stroke-dasharray="none" stroke-dashoffset="0mm" stroke-linecap="round" stroke-linejoin="round"/><polygon points="-0.999245,-11.990938 0.999245,-11.990938 0.999245,11.990938 -0.999245,11.990938" stroke="#000000" stroke-width="0.25" stroke-dasharray="none" stroke-dashoffset="0mm" stroke-linecap="round" stroke-linejoin="round" fill="none" transform="translate(-28.978101,0.036223)"/></svg>