<svg xmlns="http://www.w3.org/2000/svg" width="46.0mm" height="82.0mm" viewBox="-11.5 -5.5 23 41" style="background-color: #ffffff;"><polyline points="-11,-5.5 -11,35.5" stroke="#b4b4b4" stroke-width="0.05" stroke-dasharray="none" stroke-dashoffset="0mm" stroke-linecap="round" stroke-linejoin="round"/><polyline points="-10,-5.5 -10,35.5" stroke="#b4b4b4" stroke-width="0.05" stroke-dasharray="none" stroke-dashoffset="0mm" stroke-linecap="round" stroke-linejoin="round"/><polyline points="-9,-5.5 -9,35.5" stroke="#b4b4b4" stroke-width="0.05" stroke-dasharray="none" stroke-dashoffset="0mm" stroke-linecap="round" stroke-linejoin="round"/><polyline points="-8,-5.5 -8,35.5" stroke="#b4b4b4" stroke-width="0.05" stroke-dasharray="none" stroke-dashoffset="0mm" stroke-linecap="round" stroke-linejoin="round"/><polyline points="-7,-5.5 -7,35.5" stroke="#b4b4b4" stroke-width="0.05" stroke-dasharray="none" stroke-dashoffset="0mm" stroke-linecap="round" stroke-linejoin="round"/><polyline points="-6,-5.5 -6,35.5" stroke="#b4b4b4" stroke-width="0.05" stroke-dasharray="none" stroke-dashoffset="0mm" stroke-linecap="round" stroke-linejoin="round"/><polyline points="-5,-5.5 -5,35.5" stroke="#b4b4b4" stroke-width="0.05" stroke-dasharray="none" stroke-dashoffset="0mm" stroke-linecap="round" stroke-linejoin="round"/><polyline points="-4,-5.5 -4,35.5" stroke="#b4b4b4" stroke-width="0.05" stroke-dasharray="none" stroke-dashoffset="0mm" stroke-linecap="round" stroke-linejoin="round"/><polyline points="-3,-5.5 -3,35.5" stroke="#b4b4b4" stroke-width="0.05" stroke-dasharray="none" stroke-dashoffset="0mm" stroke-linecap="round" stroke-linejoin="round"/><polyline points="-2,-5.5 -2,35.5" stroke="#b4b4b4" stroke-width="0.05" stroke-dasharray="none" stroke-dashoffset="0mm" stroke-linecap="round" stroke-linejoin="round"/><polyline points="-1,-5.5 -1,35.5" stroke="#b4b4b4" stroke-width="0.05" stroke-dasharray="none" stroke-dashoffset="0mm" stroke-linecap="round" stroke-linejoin="round"/><polyline points="0,-5.5 0,35.5" stroke="#b4b4b4" stroke-width="0.05" stroke-dasharray="none" stroke-dashoffset="0mm" stroke-linecap="round" stroke-linejoin="round"/><polyline points="1,-5.5 1,35.5" stroke="#b4b4b4" stroke-width="0.05" stroke-dasharray="none" stroke-dashoffset="0mm" stroke-linecap="round" stroke-linejoin="round"/><polyline points="2,-5.5 2,35.5" stroke="#b4b4b4" stroke-width="0.05" stroke-dasharray="none" stroke-dashoffset="0mm" stroke-linecap="round" stroke-linejoin="round"/><polyline points="3,-5.5 3,35.5" stroke="#b4b4b4" stroke-width="0.05" stroke-dasharray="none" stroke-dashoffset="0mm" stroke-linecap="round" stroke-linejoin="round"/><polyline points="4,-5.5 4,35.5" stroke="#b4b4b4" stroke-width="0.05" stroke-dasharray="none" stroke-dashoffset="0mm" stroke-linecap="round" stroke-linejoin="round"/><polyline points="5,-5.5 5,35.5" stroke="#b4b4b4" stroke-width="0.05" stroke-dasharray="none" stroke-dashoffset="0mm" stroke-linecap="round" stroke-linejoin="round"/><polyline points="6,-5.5 6,35.5" stroke="#b4b4b4" stroke-width="0.05" stroke-dasharray="none" stroke-dashoffset="0mm" stroke-linecap="round" stroke-linejoin="round"/><polyline points="7,-5.5 7,35.5" stroke="#b4b4b4" stroke-width="0.05" stroke-dasharray="none" stroke-dashoffset="0mm" stroke-linecap="round" stroke-linejoin="round"/><polyline points="8,-5.5 8,35.5" stroke="#b4b4b4" stroke-width="0.05" stroke-dasharray="none" stroke-dashoffset="0mm" stroke-linecap="round" stroke-linejoin="round"/><polyline points="9,-5.5 9,35.5" stroke="#b4b4b4" stroke-width="0.05" stroke-dasharray="none" stroke-dashoffset="0mm" stroke-linecap="round" stroke-linejoin="round"/><polyline points="10,-5.5 10,35.5" stroke="#b4b4b4" stroke-width="0.05" stroke-dasharray="none" stroke-dashoffset="0mm" stroke-linecap="round" stroke-linejoin="round"/><polyline points="11,-5.5 11,35.5" stroke="#b4b4b4" stroke-width="0.05" stroke-dasharray="none" stroke-dashoffset="0mm" stroke-linecap="round" stroke-linejoin="round"/><polyline points="-11.5,-5 11.5,-5" stroke="#b4b4b4" stroke-width="0.05" stroke-dasharray="none" stroke-dashoffset="0mm" stroke-linecap="round" stroke-linejoin="round"/><polyline points="-11.5,-4 11.5,-4" stroke="#b4b4b4" stroke-width="0.05" stroke-dasharray="none" stroke-dashoffset="0mm" stroke-linecap="round" stroke-linejoin="round"/><polyline points="-11.5,-3 11.5,-3" stroke="#b4b4b4" stroke-width="0.05" stroke-dasharray="none" stroke-dashoffset="0mm" stroke-linecap="round" stroke-linejoin="round"/><polyline points="-11.5,-2 11.5,-2" stroke="#b4b4b4" stroke-width="0.05" stroke-dasharray="none" stroke-dashoffset="0mm" stroke-linecap="round" stroke-linejoin="round"/><polyline points="-11.5,-1 11.5,-1" stroke="#b4b4b4" stroke-width="0.05" stroke-dasharray="none" stroke-dashoffset="0mm" stroke-linecap="round" stroke-linejoin="round"/><polyline points="-11.5,0 11.5,0" stroke="#b4b4b4" stroke-width="0.05" stroke-dasharray="none" stroke-dashoffset="0mm" stroke-linecap="round" stroke-linejoin="round"/><polyline points="-11.5,1 11.5,1" stroke="#b4b4b4" stroke-width="0.05" stroke-dasharray="none" stroke-dashoffset="0mm" stroke-linecap="round" stroke-linejoin="round"/><polyline points="-11.5,2 11.5,2" stroke="#b4b4b4" stroke-width="0.05" stroke-dasharray="none" stroke-dashoffset="0mm" stroke-linecap="round" stroke-linejoin="round"/><polyline points="-11.5,3 11.5,3" stroke="#b4b4b4" stroke-width="0.05" stroke-dasharray="none" stroke-dashoffset="0mm" stroke-linecap="round" stroke-linejoin="round"/><polyline points="-11.5,4 11.5,4" stroke="#b4b4b4" stroke-width="0.05" stroke-dasharray="none" stroke-dashoffset="0mm" stroke-linecap="round" stroke-linejoin="round"/><polyline points="-11.5,5 11.5,5" stroke="#b4b4b4" stroke-width="0.05" stroke-dasharray="none" stroke-dashoffset="0mm" stroke-linecap="round" stroke-linejoin="round"/><polyline points="-11.5,6 11.5,6" stroke="#b4b4b4" stroke-width="0.05" stroke-dasharray="none" stroke-dashoffset="0mm" stroke-linecap="round" stroke-linejoin="round"/><polyline points="-11.5,7 11.5,7" stroke="#b4b4b4" stroke-width="0.05" stroke-dasharray="none" stroke-dashoffset="0mm" stroke-linecap="round" stroke-linejoin="round"/><polyline points="-11.5,8 11.5,8" stroke="#b4b4b4" stroke-width="0.05" stroke-dasharray="none" stroke-dashoffset="0mm" stroke-linecap="round" stroke-linejoin="round"/><polyline points="-11.5,9 11.5,9" stroke="#b4b4b4" stroke-width="0.05" stroke-dasharray="none" stroke-dashoffset="0mm" stroke-linecap="round" stroke-linejoin="round"/><polyline points="-11.5,10 11.5,10" stroke="#b4b4b4" stroke-width="0.05" stroke-dasharray="none" stroke-dashoffset="0mm" stroke-linecap="round" stroke-linejoin="round"/><polyline points="-11.5,11 11.5,11" stroke="#b4b4b4" stroke-width="0.05" stroke-dasharray="none" stroke-dashoffset="0mm" stroke-linecap="round" stroke-linejoin="round"/><polyline points="-11.5,12 11.5,12" stroke="#b4b4b4" stroke-width="0.05" stroke-dasharray="none" stroke-dashoffset="0mm" stroke-linecap="round" stroke-linejoin="round"/><polyline points="-11.5,13 11.5,13" stroke="#b4b4b4" stroke-width="0.05" stroke-dasharray="none" stroke-dashoffset="0mm" stroke-linecap="round" stroke-linejoin="round"/><polyline points="-11.5,14 11.5,14" stroke="#b4b4b4" stroke-width="0.05" stroke-dasharray="none" stroke-dashoffset="0mm" stroke-linecap="round" stroke-linejoin="round"/><polyline points="-11.5,15 11.5,15" stroke="#b4b4b4" stroke-width="0.05" stroke-dasharray="none" stroke-dashoffset="0mm" stroke-linecap="round" stroke-linejoin="round"/><polyline points="-11.5,16 11.5,16" stroke="#b4b4b4" stroke-width="0.05" stroke-dasharray="none" stroke-dashoffset="0mm" stroke-linecap="round" stroke-linejoin="round"/><polyline points="-11.5,17 11.5,17" stroke="#b4b4b4" stroke-width="0.05" stroke-dasharray="none" stroke-dashoffset="0mm" stroke-linecap="round" stroke-linejoin="round"/><polyline points="-11.5,18 11.5,18" stroke="#b4b4b4" stroke-width="0.05" stroke-dasharray="none" stroke-dashoffset="0mm" stroke-linecap="round" stroke-linejoin="round"/><polyline points="-11.5,19 11.5,19" stroke="#b4b4b4" stroke-width="0.05" stroke-dasharray="none" stroke-dashoffset="0mm" stroke-linecap="round" stroke-linejoin="round"/><polyline points="-11.5,20 11.5,20" stroke="#b4b4b4" stroke-width="0.05" stroke-dasharray="none" stroke-dashoffset="0mm" stroke-linecap="round" stroke-linejoin="round"/><polyline points="-11.5,21 11.5,21" stroke="#b4b4b4" stroke-width="0.05" stroke-dasharray="none" stroke-dashoffset="0mm" stroke-linecap="round" stroke-linejoin="round"/><polyline points="-11.5,22 11.5,22" stroke="#b4b4b4" stroke-width="0.05" stroke-dasharray="none" stroke-dashoffset="0mm" stroke-linecap="round" stroke-linejoin="round"/><polyline points="-11.5,23 11.5,23" stroke="#b4b4b4" stroke-width="0.05" stroke-dasharray="none" stroke-dashoffset="0mm" stroke-linecap="round" stroke-linejoin="round"/><polyline points="-11.5,24 11.5,24" stroke="#b4b4b4" stroke-width="0.05" stroke-dasharray="none" stroke-dashoffset="0mm" stroke-linecap="round" stroke-linejoin="round"/><polyline points="-11.5,25 11.5,25" stroke="#b4b4b4" stroke-width="0.05" stroke-dasharray="none" stroke-dashoffset="0mm" stroke-linecap="round" stroke-linejoin="round"/><polyline points="-11.5,26 11.5,26" stroke="#b4b4b4" stroke-width="0.05" stroke-dasharray="none" stroke-dashoffset="0mm" stroke-linecap="round" stroke-linejoin="round"/><polyline points="-11.5,27 11.5,27" stroke="#b4b4b4" stroke-width="0.05" stroke-dasharray="none" stroke-dashoffset="0mm" stroke-linecap="round" stroke-linejoin="round"/><polyline points="-11.5,28 11.5,28" stroke="#b4b4b4" stroke-width="0.05" stroke-dasharray="none" stroke-dashoffset="0mm" stroke-linecap="round" stroke-linejoin="round"/><polyline points="-11.5,29 11.5,29" stroke="#b4b4b4" stroke-width="0.05" stroke-dasharray="none" stroke-dashoffset="0mm" stroke-linecap="round" stroke-linejoin="round"/><polyline points="-11.5,30 11.5,30" stroke="#b4b4b4" stroke-width="0.05" stroke-dasharray="none" stroke-dashoffset="0mm" stroke-linecap="round" stroke-linejoin="round"/><polyline points="-11.5,31 11.5,31" stroke="#b4b4b4" stroke-width="0.05" stroke-dasharray="none" stroke-dashoffset="0mm" stroke-linecap="round" stroke-linejoin="round"/><polyline points="-11.5,32 11.5,32" stroke="#b4b4b4" stroke-width="0.05" stroke-dasharray="none" stroke-dashoffset="0mm" stroke-linecap="round" stroke-linejoin="round"/><polyline points="-11.5,33 11.5,33" stroke="#b4b4b4" stroke-width="0.05" stroke-dasharray="none" stroke-dashoffset="0mm" stroke-linecap="round" stroke-linejoin="round"/><polyline points="-11.5,34 11.5,34" stroke="#b4b4b4" stroke-width="0.05" stroke-dasharray="none" stroke-dashoffset="0mm" stroke-linecap="round" stroke-linejoin="round"/><polyline points="-11.5,35 11.5,35" stroke="#b4b4b4" stroke-width="0.05" stroke-dasharray="none" stroke-dashoffset="0mm" stroke-linecap="round" stroke-linejoin="round"/><polyline points="-10,-5.5 -10,35.5" stroke="#b4b4b4" stroke-width="0.08" stroke-dasharray="none" stroke-dashoffset="0mm" stroke-linecap="round" stroke-linejoin="round"/><polyline points="-5,-5.5 -5,35.5" stroke="#b4b4b4" stroke-width="0.08" stroke-dasharray="none" stroke-dashoffset="0mm" stroke-linecap="round" stroke-linejoin="round"/><polyline points="0,-5.5 0,35.5" stroke="#b4b4b4" stroke-width="0.08" stroke-dasharray="none" stroke-dashoffset="0mm" stroke-linecap="round" stroke-linejoin="round"/><polyline points="5,-5.5 5,35.5" stroke="#b4b4b4" stroke-width="0.08" stroke-dasharray="none" stroke-dashoffset="0mm" stroke-linecap="round" stroke-linejoin="round"/><polyline points="10,-5.5 10,35.5" stroke="#b4b4b4" stroke-width="0.08" stroke-dasharray="none" stroke-dashoffset="0mm" stroke-linecap="round" stroke-linejoin="round"/><polyline points="-11.5,-5 11.5,-5" stroke="#b4b4b4" stroke-width="0.08" stroke-dasharray="none" stroke-dashoffset="0mm" stroke-linecap="round" stroke-linejoin="round"/><polyline points="-11.5,0 11.5,0" stroke="#b4b4b4" stroke-width="0.08" stroke-dasharray="none" stroke-dashoffset="0mm" stroke-linecap="round" stroke-linejoin="round"/><polyline points="-11.5,5 11.5,5" stroke="#b4b4b4" stroke-width="0.08" stroke-dasharray="none" stroke-dashoffset="0mm" stroke-linecap="round" stroke-linejoin="round"/><polyline points="-11.5,10 11.5,10" stroke="#b4b4b4" stroke-width="0.08" stroke-dasharray="none" stroke-dashoffset="0mm" stroke-linecap="round" stroke-linejoin="round"/><polyline points="-11.5,15 11.5,15" stroke="#b4b4b4" stroke-width="0.08" stroke-dasharray="none" stroke-dashoffset="0mm" stroke-linecap="round" stroke-linejoin="round"/><polyline points="-11.5,20 11.5,20" stroke="#b4b4b4" stroke-width="0.08" stroke-dasharray="none" stroke-dashoffset="0mm" stroke-linecap="round" stroke-linejoin="round"/><polyline points="-11.5,25 11.5,25" stroke="#b4b4b4" stroke-width="0.08" stroke-dasharray="none" stroke-dashoffset="0mm" stroke-linecap="round" stroke-linejoin="round"/><polyline points="-11.5,30 11.5,30" stroke="#b4b4b4" stroke-width="0.08" stroke-dasharray="none" stroke-dashoffset="0mm" stroke-linecap="round" stroke-linejoin="round"/><polyline points="-11.5,35 11.5,35" stroke="#b4b4b4" stroke-width="0.08" stroke-dasharray="none" stroke-dashoffset="0mm" stroke-linecap="round" stroke-linejoin="round"/><polyline points="2.937483,26.999844 2.999983,5.999965" stroke="#000000" stroke-width="0.25" stroke-dasharray="none" stroke-dashoffset="0mm" stroke-linecap="round" stroke-linejoin="round"/><polyline points="4.685598,27.010469 4.980339,27.072278 5.249979,27.183612 5.489518,27.338804 5.693951,27.532185 5.858278,27.758084 5.977495,28.010834 6.0466,28.284766 6.06059,28.57421" stroke="#000000" stroke-width="0.25" stroke-dasharray="none" stroke-dashoffset="0mm" stroke-linecap="round" stroke-linejoin="round" fill="none"/><polyline points="6.06059,28.57421 6.01687,28.860718 5.919888,29.126638 5.775211,29.366792 5.588405,29.576001 5.365037,29.749087 5.110674,29.880872 4.83088,29.966178 4.531224,29.999827" stroke="#000000" stroke-width="0.25" stroke-dasharray="none" stroke-dashoffset="0mm" stroke-linecap="round" stroke-linejoin="round" fill="none"/><polyline points="-4.560599,29.989202 -4.855339,29.927393 -5.12498,29.816058 -5.364519,29.660866 -5.568952,29.467486 -5.733279,29.241586 -5.852495,28.988836 -5.9216,28.714905 -5.935591,28.425461" stroke="#000000" stroke-width="0.25" stroke-dasharray="none" stroke-dashoffset="0mm" stroke-linecap="round" stroke-linejoin="round" fill="none"/><polyline points="-5.935591,28.425461 -5.89187,28.138952 -5.794888,27.873032 -5.650211,27.632879 -5.463406,27.42367 -5.240038,27.250583 -4.985674,27.118798 -4.705881,27.033492 -4.406225,26.999844" stroke="#000000" stroke-width="0.25" stroke-dasharray="none" stroke-dashoffset="0mm" stroke-linecap="round" stroke-linejoin="round" fill="none"/><polyline points="-4.553099,29.996702 4.562474,29.999827" stroke="#000000" stroke-width="0.25" stroke-dasharray="none" stroke-dashoffset="0mm" stroke-linecap="round" stroke-linejoin="round"/><polyline points="-4.421849,27.021094 4.687473,26.999844" stroke="#000000" stroke-width="0.25" stroke-dasharray="none" stroke-dashoffset="0mm" stroke-linecap="round" stroke-linejoin="round"/><polyline points="2.999983,5.999965 5.999965,5.999965" stroke="#000000" stroke-width="0.25" stroke-dasharray="none" stroke-dashoffset="0mm" stroke-linecap="round" stroke-linejoin="round"/><polyline points="0,26.999844 0,0" stroke="#000000" stroke-width="0.25" stroke-dasharray="none" stroke-dashoffset="0mm" stroke-linecap="round" stroke-linejoin="round"/><ellipse rx="1" ry="1" stroke="#ff0000" stroke-width="0.125" stroke-dasharray="none" stroke-dashoffset="0mm" stroke-linecap="round" stroke-linejoin="round" fill="none"/><ellipse rx="1" ry="1" stroke="#ff4040" stroke-width="0" stroke-dasharray="none" stroke-dashoffset="0mm" stroke-linecap="round" stroke-linejoin="round" fill="#ff4040" transform="translate(0,30.999821)"/><text fill="#0000ff" font-size="3.3px" font-family="Arial" text-anchor="middle" transform="translate(0,34.299821)">A</text></svg>